<?xml version="1.0" encoding="utf-8" standalone="no"?>
<!DOCTYPE svg PUBLIC "-//W3C//DTD SVG 1.1//EN"
  "http://www.w3.org/Graphics/SVG/1.1/DTD/svg11.dtd">
<svg height="388.844525pt" version="1.1" viewBox="0 0 1000.318125 388.844525" width="1000.318125pt" xmlns="http://www.w3.org/2000/svg" xmlns:xlink="http://www.w3.org/1999/xlink">
 <metadata>
  <rdf:RDF xmlns:cc="http://creativecommons.org/ns#" xmlns:dc="http://purl.org/dc/elements/1.1/" xmlns:rdf="http://www.w3.org/1999/02/22-rdf-syntax-ns#">
   <cc:Work>
    <dc:type rdf:resource="http://purl.org/dc/dcmitype/StillImage"/>
    <dc:date>2021-08-13T14:22:51.389232</dc:date>
    <dc:format>image/svg+xml</dc:format>
    <dc:creator>
     <cc:Agent>
      <dc:title>Matplotlib v3.4.2, https://matplotlib.org/</dc:title>
     </cc:Agent>
    </dc:creator>
   </cc:Work>
  </rdf:RDF>
 </metadata>
 <defs>
  <style type="text/css">*{stroke-linecap:butt;stroke-linejoin:round;}</style>
 </defs>
 <g id="figure_1">
  <g id="axes_1">
   <g id="patch_1">
    <path d="M 38.058125 353.2239 
L 993.118125 353.2239 
L 993.118125 35.2559 
L 38.058125 35.2559 
z
" style="fill:#ffffff;"/>
   </g>
   <g id="patch_2">
    <path clip-path="url(#pd578f7d92f)" d="M 38.058125 105.376184 
L 958.476371 105.376184 
L 958.476371 -531.946515 
L 38.058125 -531.946515 
z
" style="fill:#c3e6c3;"/>
   </g>
   <g id="patch_3">
    <path clip-path="url(#pd578f7d92f)" d="M 38.058125 176.189817 
L 958.476371 176.189817 
L 958.476371 105.376184 
L 38.058125 105.376184 
z
" style="fill:#e6dcc3;"/>
   </g>
   <g id="patch_4">
    <path clip-path="url(#pd578f7d92f)" d="M 38.058125 353.2239 
L 958.476371 353.2239 
L 958.476371 176.189817 
L 38.058125 176.189817 
z
" style="fill:#e6c3c3;"/>
   </g>
   <g id="matplotlib.axis_1">
    <g id="xtick_1">
     <g id="text_1">
      <!-- 0 -->
      <g transform="translate(70.154879 366.30265)scale(0.08 -0.08)">
       <defs>
        <path d="M 2034 4250 
Q 1547 4250 1301 3770 
Q 1056 3291 1056 2328 
Q 1056 1369 1301 889 
Q 1547 409 2034 409 
Q 2525 409 2770 889 
Q 3016 1369 3016 2328 
Q 3016 3291 2770 3770 
Q 2525 4250 2034 4250 
z
M 2034 4750 
Q 2819 4750 3233 4129 
Q 3647 3509 3647 2328 
Q 3647 1150 3233 529 
Q 2819 -91 2034 -91 
Q 1250 -91 836 529 
Q 422 1150 422 2328 
Q 422 3509 836 4129 
Q 1250 4750 2034 4750 
z
" id="DejaVuSans-30" transform="scale(0.015625)"/>
       </defs>
       <use xlink:href="#DejaVuSans-30"/>
      </g>
     </g>
    </g>
    <g id="xtick_2">
     <g id="text_2">
      <!-- 20 -->
      <g transform="translate(243.011164 366.30265)scale(0.08 -0.08)">
       <defs>
        <path d="M 1228 531 
L 3431 531 
L 3431 0 
L 469 0 
L 469 531 
Q 828 903 1448 1529 
Q 2069 2156 2228 2338 
Q 2531 2678 2651 2914 
Q 2772 3150 2772 3378 
Q 2772 3750 2511 3984 
Q 2250 4219 1831 4219 
Q 1534 4219 1204 4116 
Q 875 4013 500 3803 
L 500 4441 
Q 881 4594 1212 4672 
Q 1544 4750 1819 4750 
Q 2544 4750 2975 4387 
Q 3406 4025 3406 3419 
Q 3406 3131 3298 2873 
Q 3191 2616 2906 2266 
Q 2828 2175 2409 1742 
Q 1991 1309 1228 531 
z
" id="DejaVuSans-32" transform="scale(0.015625)"/>
       </defs>
       <use xlink:href="#DejaVuSans-32"/>
       <use x="63.623047" xlink:href="#DejaVuSans-30"/>
      </g>
     </g>
    </g>
    <g id="xtick_3">
     <g id="text_3">
      <!-- 40 -->
      <g transform="translate(418.41245 366.30265)scale(0.08 -0.08)">
       <defs>
        <path d="M 2419 4116 
L 825 1625 
L 2419 1625 
L 2419 4116 
z
M 2253 4666 
L 3047 4666 
L 3047 1625 
L 3713 1625 
L 3713 1100 
L 3047 1100 
L 3047 0 
L 2419 0 
L 2419 1100 
L 313 1100 
L 313 1709 
L 2253 4666 
z
" id="DejaVuSans-34" transform="scale(0.015625)"/>
       </defs>
       <use xlink:href="#DejaVuSans-34"/>
       <use x="63.623047" xlink:href="#DejaVuSans-30"/>
      </g>
     </g>
    </g>
    <g id="xtick_4">
     <g id="text_4">
      <!-- 60 -->
      <g transform="translate(593.813736 366.30265)scale(0.08 -0.08)">
       <defs>
        <path d="M 2113 2584 
Q 1688 2584 1439 2293 
Q 1191 2003 1191 1497 
Q 1191 994 1439 701 
Q 1688 409 2113 409 
Q 2538 409 2786 701 
Q 3034 994 3034 1497 
Q 3034 2003 2786 2293 
Q 2538 2584 2113 2584 
z
M 3366 4563 
L 3366 3988 
Q 3128 4100 2886 4159 
Q 2644 4219 2406 4219 
Q 1781 4219 1451 3797 
Q 1122 3375 1075 2522 
Q 1259 2794 1537 2939 
Q 1816 3084 2150 3084 
Q 2853 3084 3261 2657 
Q 3669 2231 3669 1497 
Q 3669 778 3244 343 
Q 2819 -91 2113 -91 
Q 1303 -91 875 529 
Q 447 1150 447 2328 
Q 447 3434 972 4092 
Q 1497 4750 2381 4750 
Q 2619 4750 2861 4703 
Q 3103 4656 3366 4563 
z
" id="DejaVuSans-36" transform="scale(0.015625)"/>
       </defs>
       <use xlink:href="#DejaVuSans-36"/>
       <use x="63.623047" xlink:href="#DejaVuSans-30"/>
      </g>
     </g>
    </g>
    <g id="xtick_5">
     <g id="text_5">
      <!-- 80 -->
      <g transform="translate(769.215021 366.30265)scale(0.08 -0.08)">
       <defs>
        <path d="M 2034 2216 
Q 1584 2216 1326 1975 
Q 1069 1734 1069 1313 
Q 1069 891 1326 650 
Q 1584 409 2034 409 
Q 2484 409 2743 651 
Q 3003 894 3003 1313 
Q 3003 1734 2745 1975 
Q 2488 2216 2034 2216 
z
M 1403 2484 
Q 997 2584 770 2862 
Q 544 3141 544 3541 
Q 544 4100 942 4425 
Q 1341 4750 2034 4750 
Q 2731 4750 3128 4425 
Q 3525 4100 3525 3541 
Q 3525 3141 3298 2862 
Q 3072 2584 2669 2484 
Q 3125 2378 3379 2068 
Q 3634 1759 3634 1313 
Q 3634 634 3220 271 
Q 2806 -91 2034 -91 
Q 1263 -91 848 271 
Q 434 634 434 1313 
Q 434 1759 690 2068 
Q 947 2378 1403 2484 
z
M 1172 3481 
Q 1172 3119 1398 2916 
Q 1625 2713 2034 2713 
Q 2441 2713 2670 2916 
Q 2900 3119 2900 3481 
Q 2900 3844 2670 4047 
Q 2441 4250 2034 4250 
Q 1625 4250 1398 4047 
Q 1172 3844 1172 3481 
z
" id="DejaVuSans-38" transform="scale(0.015625)"/>
       </defs>
       <use xlink:href="#DejaVuSans-38"/>
       <use x="63.623047" xlink:href="#DejaVuSans-30"/>
      </g>
     </g>
    </g>
    <g id="xtick_6">
     <g id="text_6">
      <!-- 100 -->
      <g transform="translate(942.071307 366.30265)scale(0.08 -0.08)">
       <defs>
        <path d="M 794 531 
L 1825 531 
L 1825 4091 
L 703 3866 
L 703 4441 
L 1819 4666 
L 2450 4666 
L 2450 531 
L 3481 531 
L 3481 0 
L 794 0 
L 794 531 
z
" id="DejaVuSans-31" transform="scale(0.015625)"/>
       </defs>
       <use xlink:href="#DejaVuSans-31"/>
       <use x="63.623047" xlink:href="#DejaVuSans-30"/>
       <use x="127.246094" xlink:href="#DejaVuSans-30"/>
      </g>
     </g>
    </g>
    <g id="text_7">
     <!-- Position (bp) -->
     <g transform="translate(484.285 379.564837)scale(0.1 -0.1)">
      <defs>
       <path d="M 1259 4147 
L 1259 2394 
L 2053 2394 
Q 2494 2394 2734 2622 
Q 2975 2850 2975 3272 
Q 2975 3691 2734 3919 
Q 2494 4147 2053 4147 
L 1259 4147 
z
M 628 4666 
L 2053 4666 
Q 2838 4666 3239 4311 
Q 3641 3956 3641 3272 
Q 3641 2581 3239 2228 
Q 2838 1875 2053 1875 
L 1259 1875 
L 1259 0 
L 628 0 
L 628 4666 
z
" id="DejaVuSans-50" transform="scale(0.015625)"/>
       <path d="M 1959 3097 
Q 1497 3097 1228 2736 
Q 959 2375 959 1747 
Q 959 1119 1226 758 
Q 1494 397 1959 397 
Q 2419 397 2687 759 
Q 2956 1122 2956 1747 
Q 2956 2369 2687 2733 
Q 2419 3097 1959 3097 
z
M 1959 3584 
Q 2709 3584 3137 3096 
Q 3566 2609 3566 1747 
Q 3566 888 3137 398 
Q 2709 -91 1959 -91 
Q 1206 -91 779 398 
Q 353 888 353 1747 
Q 353 2609 779 3096 
Q 1206 3584 1959 3584 
z
" id="DejaVuSans-6f" transform="scale(0.015625)"/>
       <path d="M 2834 3397 
L 2834 2853 
Q 2591 2978 2328 3040 
Q 2066 3103 1784 3103 
Q 1356 3103 1142 2972 
Q 928 2841 928 2578 
Q 928 2378 1081 2264 
Q 1234 2150 1697 2047 
L 1894 2003 
Q 2506 1872 2764 1633 
Q 3022 1394 3022 966 
Q 3022 478 2636 193 
Q 2250 -91 1575 -91 
Q 1294 -91 989 -36 
Q 684 19 347 128 
L 347 722 
Q 666 556 975 473 
Q 1284 391 1588 391 
Q 1994 391 2212 530 
Q 2431 669 2431 922 
Q 2431 1156 2273 1281 
Q 2116 1406 1581 1522 
L 1381 1569 
Q 847 1681 609 1914 
Q 372 2147 372 2553 
Q 372 3047 722 3315 
Q 1072 3584 1716 3584 
Q 2034 3584 2315 3537 
Q 2597 3491 2834 3397 
z
" id="DejaVuSans-73" transform="scale(0.015625)"/>
       <path d="M 603 3500 
L 1178 3500 
L 1178 0 
L 603 0 
L 603 3500 
z
M 603 4863 
L 1178 4863 
L 1178 4134 
L 603 4134 
L 603 4863 
z
" id="DejaVuSans-69" transform="scale(0.015625)"/>
       <path d="M 1172 4494 
L 1172 3500 
L 2356 3500 
L 2356 3053 
L 1172 3053 
L 1172 1153 
Q 1172 725 1289 603 
Q 1406 481 1766 481 
L 2356 481 
L 2356 0 
L 1766 0 
Q 1100 0 847 248 
Q 594 497 594 1153 
L 594 3053 
L 172 3053 
L 172 3500 
L 594 3500 
L 594 4494 
L 1172 4494 
z
" id="DejaVuSans-74" transform="scale(0.015625)"/>
       <path d="M 3513 2113 
L 3513 0 
L 2938 0 
L 2938 2094 
Q 2938 2591 2744 2837 
Q 2550 3084 2163 3084 
Q 1697 3084 1428 2787 
Q 1159 2491 1159 1978 
L 1159 0 
L 581 0 
L 581 3500 
L 1159 3500 
L 1159 2956 
Q 1366 3272 1645 3428 
Q 1925 3584 2291 3584 
Q 2894 3584 3203 3211 
Q 3513 2838 3513 2113 
z
" id="DejaVuSans-6e" transform="scale(0.015625)"/>
       <path id="DejaVuSans-20" transform="scale(0.015625)"/>
       <path d="M 1984 4856 
Q 1566 4138 1362 3434 
Q 1159 2731 1159 2009 
Q 1159 1288 1364 580 
Q 1569 -128 1984 -844 
L 1484 -844 
Q 1016 -109 783 600 
Q 550 1309 550 2009 
Q 550 2706 781 3412 
Q 1013 4119 1484 4856 
L 1984 4856 
z
" id="DejaVuSans-28" transform="scale(0.015625)"/>
       <path d="M 3116 1747 
Q 3116 2381 2855 2742 
Q 2594 3103 2138 3103 
Q 1681 3103 1420 2742 
Q 1159 2381 1159 1747 
Q 1159 1113 1420 752 
Q 1681 391 2138 391 
Q 2594 391 2855 752 
Q 3116 1113 3116 1747 
z
M 1159 2969 
Q 1341 3281 1617 3432 
Q 1894 3584 2278 3584 
Q 2916 3584 3314 3078 
Q 3713 2572 3713 1747 
Q 3713 922 3314 415 
Q 2916 -91 2278 -91 
Q 1894 -91 1617 61 
Q 1341 213 1159 525 
L 1159 0 
L 581 0 
L 581 4863 
L 1159 4863 
L 1159 2969 
z
" id="DejaVuSans-62" transform="scale(0.015625)"/>
       <path d="M 1159 525 
L 1159 -1331 
L 581 -1331 
L 581 3500 
L 1159 3500 
L 1159 2969 
Q 1341 3281 1617 3432 
Q 1894 3584 2278 3584 
Q 2916 3584 3314 3078 
Q 3713 2572 3713 1747 
Q 3713 922 3314 415 
Q 2916 -91 2278 -91 
Q 1894 -91 1617 61 
Q 1341 213 1159 525 
z
M 3116 1747 
Q 3116 2381 2855 2742 
Q 2594 3103 2138 3103 
Q 1681 3103 1420 2742 
Q 1159 2381 1159 1747 
Q 1159 1113 1420 752 
Q 1681 391 2138 391 
Q 2594 391 2855 752 
Q 3116 1113 3116 1747 
z
" id="DejaVuSans-70" transform="scale(0.015625)"/>
       <path d="M 513 4856 
L 1013 4856 
Q 1481 4119 1714 3412 
Q 1947 2706 1947 2009 
Q 1947 1309 1714 600 
Q 1481 -109 1013 -844 
L 513 -844 
Q 928 -128 1133 580 
Q 1338 1288 1338 2009 
Q 1338 2731 1133 3434 
Q 928 4138 513 4856 
z
" id="DejaVuSans-29" transform="scale(0.015625)"/>
      </defs>
      <use xlink:href="#DejaVuSans-50"/>
      <use x="56.677734" xlink:href="#DejaVuSans-6f"/>
      <use x="117.859375" xlink:href="#DejaVuSans-73"/>
      <use x="169.958984" xlink:href="#DejaVuSans-69"/>
      <use x="197.742188" xlink:href="#DejaVuSans-74"/>
      <use x="236.951172" xlink:href="#DejaVuSans-69"/>
      <use x="264.734375" xlink:href="#DejaVuSans-6f"/>
      <use x="325.916016" xlink:href="#DejaVuSans-6e"/>
      <use x="389.294922" xlink:href="#DejaVuSans-20"/>
      <use x="421.082031" xlink:href="#DejaVuSans-28"/>
      <use x="460.095703" xlink:href="#DejaVuSans-62"/>
      <use x="523.572266" xlink:href="#DejaVuSans-70"/>
      <use x="587.048828" xlink:href="#DejaVuSans-29"/>
     </g>
    </g>
   </g>
   <g id="matplotlib.axis_2">
    <g id="ytick_1">
     <g id="line2d_1">
      <path clip-path="url(#pd578f7d92f)" d="M 38.058125 353.2239 
L 993.118125 353.2239 
" style="fill:none;stroke:#dedede;stroke-linecap:square;"/>
     </g>
     <g id="text_8">
      <!-- 0 -->
      <g transform="translate(25.968125 356.263275)scale(0.08 -0.08)">
       <use xlink:href="#DejaVuSans-30"/>
      </g>
     </g>
    </g>
    <g id="ytick_2">
     <g id="line2d_2">
      <path clip-path="url(#pd578f7d92f)" d="M 38.058125 308.965379 
L 993.118125 308.965379 
" style="fill:none;stroke:#dedede;stroke-linecap:square;"/>
     </g>
     <g id="text_9">
      <!-- 5 -->
      <g transform="translate(25.968125 312.004754)scale(0.08 -0.08)">
       <defs>
        <path d="M 691 4666 
L 3169 4666 
L 3169 4134 
L 1269 4134 
L 1269 2991 
Q 1406 3038 1543 3061 
Q 1681 3084 1819 3084 
Q 2600 3084 3056 2656 
Q 3513 2228 3513 1497 
Q 3513 744 3044 326 
Q 2575 -91 1722 -91 
Q 1428 -91 1123 -41 
Q 819 9 494 109 
L 494 744 
Q 775 591 1075 516 
Q 1375 441 1709 441 
Q 2250 441 2565 725 
Q 2881 1009 2881 1497 
Q 2881 1984 2565 2268 
Q 2250 2553 1709 2553 
Q 1456 2553 1204 2497 
Q 953 2441 691 2322 
L 691 4666 
z
" id="DejaVuSans-35" transform="scale(0.015625)"/>
       </defs>
       <use xlink:href="#DejaVuSans-35"/>
      </g>
     </g>
    </g>
    <g id="ytick_3">
     <g id="line2d_3">
      <path clip-path="url(#pd578f7d92f)" d="M 38.058125 264.706858 
L 993.118125 264.706858 
" style="fill:none;stroke:#dedede;stroke-linecap:square;"/>
     </g>
     <g id="text_10">
      <!-- 10 -->
      <g transform="translate(20.878125 267.746233)scale(0.08 -0.08)">
       <use xlink:href="#DejaVuSans-31"/>
       <use x="63.623047" xlink:href="#DejaVuSans-30"/>
      </g>
     </g>
    </g>
    <g id="ytick_4">
     <g id="line2d_4">
      <path clip-path="url(#pd578f7d92f)" d="M 38.058125 220.448338 
L 993.118125 220.448338 
" style="fill:none;stroke:#dedede;stroke-linecap:square;"/>
     </g>
     <g id="text_11">
      <!-- 15 -->
      <g transform="translate(20.878125 223.487713)scale(0.08 -0.08)">
       <use xlink:href="#DejaVuSans-31"/>
       <use x="63.623047" xlink:href="#DejaVuSans-35"/>
      </g>
     </g>
    </g>
    <g id="ytick_5">
     <g id="line2d_5">
      <path clip-path="url(#pd578f7d92f)" d="M 38.058125 176.189817 
L 993.118125 176.189817 
" style="fill:none;stroke:#dedede;stroke-linecap:square;"/>
     </g>
     <g id="text_12">
      <!-- 20 -->
      <g transform="translate(20.878125 179.229192)scale(0.08 -0.08)">
       <use xlink:href="#DejaVuSans-32"/>
       <use x="63.623047" xlink:href="#DejaVuSans-30"/>
      </g>
     </g>
    </g>
    <g id="ytick_6">
     <g id="line2d_6">
      <path clip-path="url(#pd578f7d92f)" d="M 38.058125 131.931296 
L 993.118125 131.931296 
" style="fill:none;stroke:#dedede;stroke-linecap:square;"/>
     </g>
     <g id="text_13">
      <!-- 25 -->
      <g transform="translate(20.878125 134.970671)scale(0.08 -0.08)">
       <use xlink:href="#DejaVuSans-32"/>
       <use x="63.623047" xlink:href="#DejaVuSans-35"/>
      </g>
     </g>
    </g>
    <g id="ytick_7">
     <g id="line2d_7">
      <path clip-path="url(#pd578f7d92f)" d="M 38.058125 87.672775 
L 993.118125 87.672775 
" style="fill:none;stroke:#dedede;stroke-linecap:square;"/>
     </g>
     <g id="text_14">
      <!-- 30 -->
      <g transform="translate(20.878125 90.71215)scale(0.08 -0.08)">
       <defs>
        <path d="M 2597 2516 
Q 3050 2419 3304 2112 
Q 3559 1806 3559 1356 
Q 3559 666 3084 287 
Q 2609 -91 1734 -91 
Q 1441 -91 1130 -33 
Q 819 25 488 141 
L 488 750 
Q 750 597 1062 519 
Q 1375 441 1716 441 
Q 2309 441 2620 675 
Q 2931 909 2931 1356 
Q 2931 1769 2642 2001 
Q 2353 2234 1838 2234 
L 1294 2234 
L 1294 2753 
L 1863 2753 
Q 2328 2753 2575 2939 
Q 2822 3125 2822 3475 
Q 2822 3834 2567 4026 
Q 2313 4219 1838 4219 
Q 1578 4219 1281 4162 
Q 984 4106 628 3988 
L 628 4550 
Q 988 4650 1302 4700 
Q 1616 4750 1894 4750 
Q 2613 4750 3031 4423 
Q 3450 4097 3450 3541 
Q 3450 3153 3228 2886 
Q 3006 2619 2597 2516 
z
" id="DejaVuSans-33" transform="scale(0.015625)"/>
       </defs>
       <use xlink:href="#DejaVuSans-33"/>
       <use x="63.623047" xlink:href="#DejaVuSans-30"/>
      </g>
     </g>
    </g>
    <g id="ytick_8">
     <g id="line2d_8">
      <path clip-path="url(#pd578f7d92f)" d="M 38.058125 43.414255 
L 993.118125 43.414255 
" style="fill:none;stroke:#dedede;stroke-linecap:square;"/>
     </g>
     <g id="text_15">
      <!-- 35 -->
      <g transform="translate(20.878125 46.45363)scale(0.08 -0.08)">
       <use xlink:href="#DejaVuSans-33"/>
       <use x="63.623047" xlink:href="#DejaVuSans-35"/>
      </g>
     </g>
    </g>
    <g id="text_16">
     <!-- Phred Score -->
     <g transform="translate(14.798438 224.20865)rotate(-90)scale(0.1 -0.1)">
      <defs>
       <path d="M 3513 2113 
L 3513 0 
L 2938 0 
L 2938 2094 
Q 2938 2591 2744 2837 
Q 2550 3084 2163 3084 
Q 1697 3084 1428 2787 
Q 1159 2491 1159 1978 
L 1159 0 
L 581 0 
L 581 4863 
L 1159 4863 
L 1159 2956 
Q 1366 3272 1645 3428 
Q 1925 3584 2291 3584 
Q 2894 3584 3203 3211 
Q 3513 2838 3513 2113 
z
" id="DejaVuSans-68" transform="scale(0.015625)"/>
       <path d="M 2631 2963 
Q 2534 3019 2420 3045 
Q 2306 3072 2169 3072 
Q 1681 3072 1420 2755 
Q 1159 2438 1159 1844 
L 1159 0 
L 581 0 
L 581 3500 
L 1159 3500 
L 1159 2956 
Q 1341 3275 1631 3429 
Q 1922 3584 2338 3584 
Q 2397 3584 2469 3576 
Q 2541 3569 2628 3553 
L 2631 2963 
z
" id="DejaVuSans-72" transform="scale(0.015625)"/>
       <path d="M 3597 1894 
L 3597 1613 
L 953 1613 
Q 991 1019 1311 708 
Q 1631 397 2203 397 
Q 2534 397 2845 478 
Q 3156 559 3463 722 
L 3463 178 
Q 3153 47 2828 -22 
Q 2503 -91 2169 -91 
Q 1331 -91 842 396 
Q 353 884 353 1716 
Q 353 2575 817 3079 
Q 1281 3584 2069 3584 
Q 2775 3584 3186 3129 
Q 3597 2675 3597 1894 
z
M 3022 2063 
Q 3016 2534 2758 2815 
Q 2500 3097 2075 3097 
Q 1594 3097 1305 2825 
Q 1016 2553 972 2059 
L 3022 2063 
z
" id="DejaVuSans-65" transform="scale(0.015625)"/>
       <path d="M 2906 2969 
L 2906 4863 
L 3481 4863 
L 3481 0 
L 2906 0 
L 2906 525 
Q 2725 213 2448 61 
Q 2172 -91 1784 -91 
Q 1150 -91 751 415 
Q 353 922 353 1747 
Q 353 2572 751 3078 
Q 1150 3584 1784 3584 
Q 2172 3584 2448 3432 
Q 2725 3281 2906 2969 
z
M 947 1747 
Q 947 1113 1208 752 
Q 1469 391 1925 391 
Q 2381 391 2643 752 
Q 2906 1113 2906 1747 
Q 2906 2381 2643 2742 
Q 2381 3103 1925 3103 
Q 1469 3103 1208 2742 
Q 947 2381 947 1747 
z
" id="DejaVuSans-64" transform="scale(0.015625)"/>
       <path d="M 3425 4513 
L 3425 3897 
Q 3066 4069 2747 4153 
Q 2428 4238 2131 4238 
Q 1616 4238 1336 4038 
Q 1056 3838 1056 3469 
Q 1056 3159 1242 3001 
Q 1428 2844 1947 2747 
L 2328 2669 
Q 3034 2534 3370 2195 
Q 3706 1856 3706 1288 
Q 3706 609 3251 259 
Q 2797 -91 1919 -91 
Q 1588 -91 1214 -16 
Q 841 59 441 206 
L 441 856 
Q 825 641 1194 531 
Q 1563 422 1919 422 
Q 2459 422 2753 634 
Q 3047 847 3047 1241 
Q 3047 1584 2836 1778 
Q 2625 1972 2144 2069 
L 1759 2144 
Q 1053 2284 737 2584 
Q 422 2884 422 3419 
Q 422 4038 858 4394 
Q 1294 4750 2059 4750 
Q 2388 4750 2728 4690 
Q 3069 4631 3425 4513 
z
" id="DejaVuSans-53" transform="scale(0.015625)"/>
       <path d="M 3122 3366 
L 3122 2828 
Q 2878 2963 2633 3030 
Q 2388 3097 2138 3097 
Q 1578 3097 1268 2742 
Q 959 2388 959 1747 
Q 959 1106 1268 751 
Q 1578 397 2138 397 
Q 2388 397 2633 464 
Q 2878 531 3122 666 
L 3122 134 
Q 2881 22 2623 -34 
Q 2366 -91 2075 -91 
Q 1284 -91 818 406 
Q 353 903 353 1747 
Q 353 2603 823 3093 
Q 1294 3584 2113 3584 
Q 2378 3584 2631 3529 
Q 2884 3475 3122 3366 
z
" id="DejaVuSans-63" transform="scale(0.015625)"/>
      </defs>
      <use xlink:href="#DejaVuSans-50"/>
      <use x="60.302734" xlink:href="#DejaVuSans-68"/>
      <use x="123.681641" xlink:href="#DejaVuSans-72"/>
      <use x="162.544922" xlink:href="#DejaVuSans-65"/>
      <use x="224.068359" xlink:href="#DejaVuSans-64"/>
      <use x="287.544922" xlink:href="#DejaVuSans-20"/>
      <use x="319.332031" xlink:href="#DejaVuSans-53"/>
      <use x="382.808594" xlink:href="#DejaVuSans-63"/>
      <use x="437.789062" xlink:href="#DejaVuSans-6f"/>
      <use x="498.970703" xlink:href="#DejaVuSans-72"/>
      <use x="537.833984" xlink:href="#DejaVuSans-65"/>
     </g>
    </g>
   </g>
   <g id="line2d_9">
    <path clip-path="url(#pd578f7d92f)" d="M 81.469943 123.079592 
L 90.240007 123.079592 
L 99.010072 123.079592 
L 107.780136 123.079592 
L 116.5502 123.079592 
L 125.320265 123.079592 
L 134.090329 123.079592 
L 142.860393 123.079592 
L 151.630457 123.079592 
L 160.400522 123.079592 
L 177.94065 123.079592 
L 195.480779 123.079592 
L 213.020907 123.079592 
L 230.561036 123.079592 
L 248.101164 123.079592 
L 265.641293 123.079592 
L 283.181422 123.079592 
L 300.72155 123.079592 
L 318.261679 123.079592 
L 335.801807 123.079592 
L 353.341936 123.079592 
L 370.882064 123.079592 
L 388.422193 123.079592 
L 405.962322 123.079592 
L 423.50245 123.079592 
L 441.042579 123.079592 
L 458.582707 123.079592 
L 476.122836 123.079592 
L 493.662964 123.079592 
L 511.203093 123.079592 
L 528.743221 123.079592 
L 546.28335 123.079592 
L 563.823479 123.079592 
L 581.363607 123.079592 
L 598.903736 123.079592 
L 616.443864 123.079592 
L 633.983993 123.079592 
L 651.524121 123.079592 
L 669.06425 123.079592 
L 686.604378 123.079592 
L 704.144507 123.079592 
L 721.684636 123.079592 
L 739.224764 123.079592 
L 756.764893 123.079592 
L 774.305021 123.079592 
L 791.84515 123.079592 
L 809.385278 123.079592 
L 826.925407 123.079592 
L 844.465535 123.079592 
L 862.005664 123.079592 
L 879.545793 123.079592 
L 897.085921 123.079592 
L 914.62605 123.079592 
L 932.166178 123.079592 
L 949.706307 123.079592 
" style="fill:none;stroke:#5cb85c;stroke-linecap:square;"/>
   </g>
   <g id="line2d_10">
    <path clip-path="url(#pd578f7d92f)" d="M 81.469943 123.079592 
L 90.240007 123.079592 
L 99.010072 123.079592 
L 107.780136 123.079592 
L 116.5502 123.079592 
L 125.320265 123.079592 
L 134.090329 123.079592 
L 142.860393 123.079592 
L 151.630457 123.079592 
L 160.400522 123.079592 
L 177.94065 123.079592 
L 195.480779 123.079592 
L 213.020907 123.079592 
L 230.561036 123.079592 
L 248.101164 123.079592 
L 265.641293 123.079592 
L 283.181422 123.079592 
L 300.72155 123.079592 
L 318.261679 123.079592 
L 335.801807 123.079592 
L 353.341936 123.079592 
L 370.882064 123.079592 
L 388.422193 123.079592 
L 405.962322 123.079592 
L 423.50245 123.079592 
L 441.042579 123.079592 
L 458.582707 123.079592 
L 476.122836 123.079592 
L 493.662964 123.079592 
L 511.203093 123.079592 
L 528.743221 123.079592 
L 546.28335 123.079592 
L 563.823479 123.079592 
L 581.363607 123.079592 
L 598.903736 123.079592 
L 616.443864 123.079592 
L 633.983993 123.079592 
L 651.524121 123.079592 
L 669.06425 123.079592 
L 686.604378 123.079592 
L 704.144507 123.079592 
L 721.684636 123.079592 
L 739.224764 123.079592 
L 756.764893 123.079592 
L 774.305021 123.079592 
L 791.84515 123.079592 
L 809.385278 123.079592 
L 826.925407 123.079592 
L 844.465535 123.079592 
L 862.005664 123.079592 
L 879.545793 123.079592 
L 897.085921 123.079592 
L 914.62605 123.079592 
L 932.166178 123.079592 
L 949.706307 123.079592 
" style="fill:none;stroke:#5cb85c;stroke-linecap:square;"/>
   </g>
   <g id="line2d_11">
    <path clip-path="url(#pd578f7d92f)" d="M 81.469943 41.794606 
L 90.240007 39.437981 
L 99.010072 43.215729 
L 107.780136 41.201242 
L 116.5502 42.801373 
L 125.320265 46.228749 
L 134.090329 46.572889 
L 142.860393 46.986277 
L 151.630457 46.045165 
L 160.400522 46.883725 
L 177.94065 47.353977 
L 195.480779 47.618774 
L 213.020907 47.698232 
L 230.561036 48.178408 
L 248.101164 48.292252 
L 265.641293 48.458524 
L 283.181422 48.712749 
L 300.72155 49.190637 
L 318.261679 49.206202 
L 335.801807 49.162889 
L 353.341936 49.745968 
L 370.882064 50.283234 
L 388.422193 50.120026 
L 405.962322 50.316957 
L 423.50245 51.023021 
L 441.042579 51.33716 
L 458.582707 51.510783 
L 476.122836 52.016511 
L 493.662964 52.078855 
L 511.203093 52.971505 
L 528.743221 52.875999 
L 546.28335 53.093099 
L 563.823479 53.533597 
L 581.363607 54.200126 
L 598.903736 54.627956 
L 616.443864 54.414878 
L 633.983993 54.173752 
L 651.524121 52.908044 
L 669.06425 54.101187 
L 686.604378 54.399477 
L 704.144507 53.527491 
L 721.684636 53.239826 
L 739.224764 55.777874 
L 756.764893 54.40547 
L 774.305021 54.07885 
L 791.84515 56.694807 
L 809.385278 55.906724 
L 826.925407 56.895574 
L 844.465535 57.003448 
L 862.005664 58.058221 
L 879.545793 55.337386 
L 897.085921 57.063379 
L 914.62605 59.121984 
L 932.166178 60.940869 
L 949.706307 59.008117 
" style="fill:none;stroke:#5cb85c;stroke-linecap:square;"/>
   </g>
   <g id="line2d_12">
    <path clip-path="url(#pd578f7d92f)" d="M 81.469943 61.009723 
L 90.240007 56.183892 
L 99.010072 50.815165 
L 107.780136 50.158081 
L 116.5502 52.948744 
L 125.320265 51.482024 
L 134.090329 55.200628 
L 142.860393 54.404196 
L 151.630457 52.780168 
L 160.400522 52.094897 
L 177.94065 53.411755 
L 195.480779 52.570849 
L 213.020907 53.167403 
L 230.561036 52.89133 
L 248.101164 53.164877 
L 265.641293 53.269946 
L 283.181422 53.305505 
L 300.72155 53.269856 
L 318.261679 53.194006 
L 335.801807 53.578887 
L 353.341936 53.655025 
L 370.882064 53.715923 
L 388.422193 54.111916 
L 405.962322 54.27716 
L 423.50245 54.394541 
L 441.042579 54.44517 
L 458.582707 54.648451 
L 476.122836 54.56457 
L 493.662964 54.774142 
L 511.203093 54.980273 
L 528.743221 55.220181 
L 546.28335 55.404165 
L 563.823479 55.417834 
L 581.363607 55.635327 
L 598.903736 55.946454 
L 616.443864 55.928117 
L 633.983993 56.233595 
L 651.524121 56.304625 
L 669.06425 56.756999 
L 686.604378 56.971617 
L 704.144507 57.754527 
L 721.684636 55.256281 
L 739.224764 54.743576 
L 756.764893 54.981726 
L 774.305021 55.238292 
L 791.84515 55.599897 
L 809.385278 55.396561 
L 826.925407 55.82559 
L 844.465535 56.115513 
L 862.005664 55.325943 
L 879.545793 55.787265 
L 897.085921 56.161645 
L 914.62605 56.2933 
L 932.166178 57.45867 
L 949.706307 57.371019 
" style="fill:none;stroke:#5cb85c;stroke-linecap:square;"/>
   </g>
   <g id="line2d_13">
    <path clip-path="url(#pd578f7d92f)" d="M 81.469943 123.079592 
L 90.240007 123.079592 
L 99.010072 123.079592 
L 107.780136 123.079592 
L 116.5502 123.079592 
L 125.320265 123.079592 
L 134.090329 123.079592 
L 142.860393 123.079592 
L 151.630457 123.079592 
L 160.400522 123.079592 
L 177.94065 123.079592 
L 195.480779 123.079592 
L 213.020907 123.079592 
L 230.561036 123.079592 
L 248.101164 123.079592 
L 265.641293 123.079592 
L 283.181422 123.079592 
L 300.72155 123.079592 
L 318.261679 123.079592 
L 335.801807 123.079592 
L 353.341936 123.079592 
L 370.882064 123.079592 
L 388.422193 123.079592 
L 405.962322 123.079592 
L 423.50245 123.079592 
L 441.042579 123.079592 
L 458.582707 123.079592 
L 476.122836 123.079592 
L 493.662964 123.079592 
L 511.203093 123.079592 
L 528.743221 123.079592 
L 546.28335 123.079592 
L 563.823479 123.079592 
L 581.363607 123.079592 
L 598.903736 123.079592 
L 616.443864 123.079592 
L 633.983993 123.079592 
L 651.524121 123.079592 
L 669.06425 123.079592 
L 686.604378 123.079592 
L 704.144507 123.079592 
L 721.684636 123.079592 
L 739.224764 123.079592 
L 756.764893 123.079592 
L 774.305021 123.079592 
L 791.84515 123.079592 
L 809.385278 123.079592 
L 826.925407 123.079592 
L 844.465535 123.079592 
L 862.005664 123.079592 
L 879.545793 123.079592 
L 897.085921 123.079592 
L 914.62605 123.079592 
L 932.166178 123.079592 
L 949.706307 123.079592 
" style="fill:none;stroke:#5cb85c;stroke-linecap:square;"/>
   </g>
   <g id="line2d_14">
    <path clip-path="url(#pd578f7d92f)" d="M 81.469943 123.079592 
L 90.240007 123.079592 
L 99.010072 123.079592 
L 107.780136 123.079592 
L 116.5502 123.079592 
L 125.320265 123.079592 
L 134.090329 123.079592 
L 142.860393 123.079592 
L 151.630457 123.079592 
L 160.400522 123.079592 
L 177.94065 123.079592 
L 195.480779 123.079592 
L 213.020907 123.079592 
L 230.561036 123.079592 
L 248.101164 123.079592 
L 265.641293 123.079592 
L 283.181422 123.079592 
L 300.72155 123.079592 
L 318.261679 123.079592 
L 335.801807 123.079592 
L 353.341936 123.079592 
L 370.882064 123.079592 
L 388.422193 123.079592 
L 405.962322 123.079592 
L 423.50245 123.079592 
L 441.042579 123.079592 
L 458.582707 123.079592 
L 476.122836 123.079592 
L 493.662964 123.079592 
L 511.203093 123.079592 
L 528.743221 123.079592 
L 546.28335 123.079592 
L 563.823479 123.079592 
L 581.363607 123.079592 
L 598.903736 123.079592 
L 616.443864 123.079592 
L 633.983993 123.079592 
L 651.524121 123.079592 
L 669.06425 123.079592 
L 686.604378 123.079592 
L 704.144507 123.079592 
L 721.684636 123.079592 
L 739.224764 123.079592 
L 756.764893 123.079592 
L 774.305021 123.079592 
L 791.84515 123.079592 
L 809.385278 123.079592 
L 826.925407 123.079592 
L 844.465535 123.079592 
L 862.005664 123.079592 
L 879.545793 123.079592 
L 897.085921 123.079592 
L 914.62605 123.079592 
L 932.166178 123.079592 
L 949.706307 123.079592 
" style="fill:none;stroke:#5cb85c;stroke-linecap:square;"/>
   </g>
   <g id="line2d_15">
    <path clip-path="url(#pd578f7d92f)" d="M 81.469943 41.80665 
L 90.240007 39.44128 
L 99.010072 43.21081 
L 107.780136 41.181492 
L 116.5502 42.867788 
L 125.320265 46.275751 
L 134.090329 46.568055 
L 142.860393 47.000082 
L 151.630457 46.068141 
L 160.400522 46.910297 
L 177.94065 47.372472 
L 195.480779 47.682854 
L 213.020907 47.68674 
L 230.561036 48.184464 
L 248.101164 48.315965 
L 265.641293 48.471013 
L 283.181422 48.706433 
L 300.72155 49.210307 
L 318.261679 49.200812 
L 335.801807 49.174714 
L 353.341936 49.779767 
L 370.882064 50.302655 
L 388.422193 50.122718 
L 405.962322 50.337397 
L 423.50245 51.013116 
L 441.042579 51.361018 
L 458.582707 51.496391 
L 476.122836 52.023103 
L 493.662964 52.126507 
L 511.203093 53.000457 
L 528.743221 52.930575 
L 546.28335 53.137983 
L 563.823479 53.553344 
L 581.363607 54.233118 
L 598.903736 54.637448 
L 616.443864 54.433167 
L 633.983993 54.347557 
L 651.524121 52.577585 
L 669.06425 53.964684 
L 686.604378 53.765134 
L 704.144507 53.466494 
L 721.684636 53.01256 
L 739.224764 55.103043 
L 756.764893 54.329565 
L 774.305021 54.508749 
L 791.84515 56.369279 
L 809.385278 55.13888 
L 826.925407 56.157244 
L 844.465535 57.298051 
L 862.005664 56.832172 
L 879.545793 55.240418 
L 897.085921 57.265201 
L 914.62605 58.376143 
L 932.166178 59.812604 
L 949.706307 59.463195 
" style="fill:none;stroke:#5cb85c;stroke-linecap:square;"/>
   </g>
   <g id="line2d_16">
    <path clip-path="url(#pd578f7d92f)" d="M 81.469943 61.003257 
L 90.240007 56.172195 
L 99.010072 50.837318 
L 107.780136 50.172428 
L 116.5502 52.98706 
L 125.320265 51.487647 
L 134.090329 55.197571 
L 142.860393 54.428409 
L 151.630457 52.813917 
L 160.400522 52.080846 
L 177.94065 53.416874 
L 195.480779 52.582391 
L 213.020907 53.16203 
L 230.561036 52.874957 
L 248.101164 53.135729 
L 265.641293 53.258629 
L 283.181422 53.313093 
L 300.72155 53.235639 
L 318.261679 53.183552 
L 335.801807 53.537749 
L 353.341936 53.656167 
L 370.882064 53.707265 
L 388.422193 54.126203 
L 405.962322 54.304433 
L 423.50245 54.368096 
L 441.042579 54.414651 
L 458.582707 54.65508 
L 476.122836 54.569573 
L 493.662964 54.775083 
L 511.203093 54.998742 
L 528.743221 55.282037 
L 546.28335 55.395696 
L 563.823479 55.451462 
L 581.363607 55.628504 
L 598.903736 55.950175 
L 616.443864 55.932955 
L 633.983993 56.228959 
L 651.524121 56.307577 
L 669.06425 56.752786 
L 686.604378 56.950154 
L 704.144507 57.7571 
L 721.684636 55.192464 
L 739.224764 54.561257 
L 756.764893 54.511141 
L 774.305021 55.122948 
L 791.84515 55.290964 
L 809.385278 55.003139 
L 826.925407 55.607502 
L 844.465535 55.808484 
L 862.005664 55.118694 
L 879.545793 55.72483 
L 897.085921 55.945662 
L 914.62605 56.130338 
L 932.166178 57.218546 
L 949.706307 57.507081 
" style="fill:none;stroke:#5cb85c;stroke-linecap:square;"/>
   </g>
   <g id="line2d_17">
    <path clip-path="url(#pd578f7d92f)" d="M 81.469943 123.079592 
L 90.240007 123.079592 
L 99.010072 123.079592 
L 107.780136 123.079592 
L 116.5502 123.079592 
L 125.320265 123.079592 
L 134.090329 123.079592 
L 142.860393 123.079592 
L 151.630457 123.079592 
L 160.400522 123.079592 
L 177.94065 123.079592 
L 195.480779 123.079592 
L 213.020907 123.079592 
L 230.561036 123.079592 
L 248.101164 123.079592 
L 265.641293 123.079592 
L 283.181422 123.079592 
L 300.72155 123.079592 
L 318.261679 123.079592 
L 335.801807 123.079592 
L 353.341936 123.079592 
L 370.882064 123.079592 
L 388.422193 123.079592 
L 405.962322 123.079592 
L 423.50245 123.079592 
L 441.042579 123.079592 
L 458.582707 123.079592 
L 476.122836 123.079592 
L 493.662964 123.079592 
L 511.203093 123.079592 
L 528.743221 123.079592 
L 546.28335 123.079592 
L 563.823479 123.079592 
L 581.363607 123.079592 
L 598.903736 123.079592 
L 616.443864 123.079592 
L 633.983993 123.079592 
L 651.524121 123.079592 
L 669.06425 123.079592 
L 686.604378 123.079592 
L 704.144507 123.079592 
L 721.684636 123.079592 
L 739.224764 123.079592 
L 756.764893 123.079592 
L 774.305021 123.079592 
L 791.84515 123.079592 
L 809.385278 123.079592 
L 826.925407 123.079592 
L 844.465535 123.079592 
L 862.005664 123.079592 
L 879.545793 123.079592 
L 897.085921 123.079592 
L 914.62605 123.079592 
L 932.166178 123.079592 
L 949.706307 123.079592 
" style="fill:none;stroke:#5cb85c;stroke-linecap:square;"/>
   </g>
   <g id="line2d_18">
    <path clip-path="url(#pd578f7d92f)" d="M 81.469943 123.079592 
L 90.240007 123.079592 
L 99.010072 123.079592 
L 107.780136 123.079592 
L 116.5502 123.079592 
L 125.320265 123.079592 
L 134.090329 123.079592 
L 142.860393 123.079592 
L 151.630457 123.079592 
L 160.400522 123.079592 
L 177.94065 123.079592 
L 195.480779 123.079592 
L 213.020907 123.079592 
L 230.561036 123.079592 
L 248.101164 123.079592 
L 265.641293 123.079592 
L 283.181422 123.079592 
L 300.72155 123.079592 
L 318.261679 123.079592 
L 335.801807 123.079592 
L 353.341936 123.079592 
L 370.882064 123.079592 
L 388.422193 123.079592 
L 405.962322 123.079592 
L 423.50245 123.079592 
L 441.042579 123.079592 
L 458.582707 123.079592 
L 476.122836 123.079592 
L 493.662964 123.079592 
L 511.203093 123.079592 
L 528.743221 123.079592 
L 546.28335 123.079592 
L 563.823479 123.079592 
L 581.363607 123.079592 
L 598.903736 123.079592 
L 616.443864 123.079592 
L 633.983993 123.079592 
L 651.524121 123.079592 
L 669.06425 123.079592 
L 686.604378 123.079592 
L 704.144507 123.079592 
L 721.684636 123.079592 
L 739.224764 123.079592 
L 756.764893 123.079592 
L 774.305021 123.079592 
L 791.84515 123.079592 
L 809.385278 123.079592 
L 826.925407 123.079592 
L 844.465535 123.079592 
L 862.005664 123.079592 
L 879.545793 123.079592 
L 897.085921 123.079592 
L 914.62605 123.079592 
L 932.166178 123.079592 
L 949.706307 123.079592 
" style="fill:none;stroke:#5cb85c;stroke-linecap:square;"/>
   </g>
   <g id="line2d_19">
    <path clip-path="url(#pd578f7d92f)" d="M 81.469943 41.77815 
L 90.240007 39.44604 
L 99.010072 43.250491 
L 107.780136 41.16386 
L 116.5502 42.827949 
L 125.320265 46.271423 
L 134.090329 46.597579 
L 142.860393 46.970976 
L 151.630457 46.056163 
L 160.400522 46.907356 
L 177.94065 47.346833 
L 195.480779 47.633935 
L 213.020907 47.693357 
L 230.561036 48.199743 
L 248.101164 48.325122 
L 265.641293 48.471915 
L 283.181422 48.710427 
L 300.72155 49.181025 
L 318.261679 49.186016 
L 335.801807 49.165868 
L 353.341936 49.771095 
L 370.882064 50.288518 
L 388.422193 50.130212 
L 405.962322 50.325633 
L 423.50245 51.008285 
L 441.042579 51.349792 
L 458.582707 51.503214 
L 476.122836 52.002815 
L 493.662964 52.105175 
L 511.203093 52.990314 
L 528.743221 52.881065 
L 546.28335 53.088426 
L 563.823479 53.543037 
L 581.363607 54.19206 
L 598.903736 54.619364 
L 616.443864 54.247647 
L 633.983993 54.088319 
L 651.524121 52.510818 
L 669.06425 54.240729 
L 686.604378 54.017477 
L 704.144507 52.953495 
L 721.684636 53.008393 
L 739.224764 55.11283 
L 756.764893 53.87631 
L 774.305021 53.999178 
L 791.84515 55.802981 
L 809.385278 55.227855 
L 826.925407 56.506202 
L 844.465535 57.023815 
L 862.005664 57.261708 
L 879.545793 55.071003 
L 897.085921 57.253865 
L 914.62605 58.150538 
L 932.166178 59.248505 
L 949.706307 58.440715 
" style="fill:none;stroke:#5cb85c;stroke-linecap:square;"/>
   </g>
   <g id="line2d_20">
    <path clip-path="url(#pd578f7d92f)" d="M 81.469943 61.067479 
L 90.240007 56.249478 
L 99.010072 50.868784 
L 107.780136 50.219717 
L 116.5502 52.993597 
L 125.320265 51.554937 
L 134.090329 55.227244 
L 142.860393 54.489797 
L 151.630457 52.846927 
L 160.400522 52.132538 
L 177.94065 53.482522 
L 195.480779 52.630954 
L 213.020907 53.204702 
L 230.561036 52.92358 
L 248.101164 53.207688 
L 265.641293 53.291727 
L 283.181422 53.351048 
L 300.72155 53.281088 
L 318.261679 53.243779 
L 335.801807 53.600211 
L 353.341936 53.692387 
L 370.882064 53.747721 
L 388.422193 54.146307 
L 405.962322 54.316005 
L 423.50245 54.410654 
L 441.042579 54.455418 
L 458.582707 54.685978 
L 476.122836 54.581603 
L 493.662964 54.784897 
L 511.203093 55.008002 
L 528.743221 55.275168 
L 546.28335 55.423343 
L 563.823479 55.470588 
L 581.363607 55.652236 
L 598.903736 55.960595 
L 616.443864 55.934775 
L 633.983993 56.259908 
L 651.524121 56.299009 
L 669.06425 56.750957 
L 686.604378 56.97425 
L 704.144507 57.754105 
L 721.684636 55.565847 
L 739.224764 54.935057 
L 756.764893 55.084289 
L 774.305021 55.297832 
L 791.84515 55.704879 
L 809.385278 55.476932 
L 826.925407 55.804762 
L 844.465535 56.2522 
L 862.005664 55.673567 
L 879.545793 55.819478 
L 897.085921 56.140106 
L 914.62605 56.544648 
L 932.166178 57.486492 
L 949.706307 57.563204 
" style="fill:none;stroke:#5cb85c;stroke-linecap:square;"/>
   </g>
   <g id="line2d_21">
    <path clip-path="url(#pd578f7d92f)" d="M 81.469943 123.079592 
L 90.240007 123.079592 
L 99.010072 123.079592 
L 107.780136 123.079592 
L 116.5502 123.079592 
L 125.320265 123.079592 
L 134.090329 123.079592 
L 142.860393 123.079592 
L 151.630457 123.079592 
L 160.400522 123.079592 
L 177.94065 123.079592 
L 195.480779 123.079592 
L 213.020907 123.079592 
L 230.561036 123.079592 
L 248.101164 123.079592 
L 265.641293 123.079592 
L 283.181422 123.079592 
L 300.72155 123.079592 
L 318.261679 123.079592 
L 335.801807 123.079592 
L 353.341936 123.079592 
L 370.882064 123.079592 
L 388.422193 123.079592 
L 405.962322 123.079592 
L 423.50245 123.079592 
L 441.042579 123.079592 
L 458.582707 123.079592 
L 476.122836 123.079592 
L 493.662964 123.079592 
L 511.203093 123.079592 
L 528.743221 123.079592 
L 546.28335 123.079592 
L 563.823479 123.079592 
L 581.363607 123.079592 
L 598.903736 123.079592 
L 616.443864 123.079592 
L 633.983993 123.079592 
L 651.524121 123.079592 
L 669.06425 123.079592 
L 686.604378 123.079592 
L 704.144507 123.079592 
L 721.684636 123.079592 
L 739.224764 123.079592 
L 756.764893 123.079592 
L 774.305021 123.079592 
L 791.84515 123.079592 
L 809.385278 123.079592 
L 826.925407 123.079592 
L 844.465535 123.079592 
L 862.005664 123.079592 
L 879.545793 123.079592 
L 897.085921 123.079592 
L 914.62605 123.079592 
L 932.166178 123.079592 
L 949.706307 123.079592 
" style="fill:none;stroke:#5cb85c;stroke-linecap:square;"/>
   </g>
   <g id="line2d_22">
    <path clip-path="url(#pd578f7d92f)" d="M 81.469943 123.079592 
L 90.240007 123.079592 
L 99.010072 123.079592 
L 107.780136 123.079592 
L 116.5502 123.079592 
L 125.320265 123.079592 
L 134.090329 123.079592 
L 142.860393 123.079592 
L 151.630457 123.079592 
L 160.400522 123.079592 
L 177.94065 123.079592 
L 195.480779 123.079592 
L 213.020907 123.079592 
L 230.561036 123.079592 
L 248.101164 123.079592 
L 265.641293 123.079592 
L 283.181422 123.079592 
L 300.72155 123.079592 
L 318.261679 123.079592 
L 335.801807 123.079592 
L 353.341936 123.079592 
L 370.882064 123.079592 
L 388.422193 123.079592 
L 405.962322 123.079592 
L 423.50245 123.079592 
L 441.042579 123.079592 
L 458.582707 123.079592 
L 476.122836 123.079592 
L 493.662964 123.079592 
L 511.203093 123.079592 
L 528.743221 123.079592 
L 546.28335 123.079592 
L 563.823479 123.079592 
L 581.363607 123.079592 
L 598.903736 123.079592 
L 616.443864 123.079592 
L 633.983993 123.079592 
L 651.524121 123.079592 
L 669.06425 123.079592 
L 686.604378 123.079592 
L 704.144507 123.079592 
L 721.684636 123.079592 
L 739.224764 123.079592 
L 756.764893 123.079592 
L 774.305021 123.079592 
L 791.84515 123.079592 
L 809.385278 123.079592 
L 826.925407 123.079592 
L 844.465535 123.079592 
L 862.005664 123.079592 
L 879.545793 123.079592 
L 897.085921 123.079592 
L 914.62605 123.079592 
L 932.166178 123.079592 
L 949.706307 123.079592 
" style="fill:none;stroke:#5cb85c;stroke-linecap:square;"/>
   </g>
   <g id="line2d_23">
    <path clip-path="url(#pd578f7d92f)" d="M 81.469943 41.82376 
L 90.240007 39.450294 
L 99.010072 43.244782 
L 107.780136 41.169945 
L 116.5502 42.849971 
L 125.320265 46.273607 
L 134.090329 46.579823 
L 142.860393 46.980375 
L 151.630457 46.07054 
L 160.400522 46.895401 
L 177.94065 47.355691 
L 195.480779 47.656953 
L 213.020907 47.695848 
L 230.561036 48.18806 
L 248.101164 48.325921 
L 265.641293 48.471839 
L 283.181422 48.720999 
L 300.72155 49.174928 
L 318.261679 49.197322 
L 335.801807 49.17115 
L 353.341936 49.756606 
L 370.882064 50.303491 
L 388.422193 50.12244 
L 405.962322 50.326233 
L 423.50245 51.016766 
L 441.042579 51.33281 
L 458.582707 51.496616 
L 476.122836 52.01447 
L 493.662964 52.107978 
L 511.203093 52.99813 
L 528.743221 52.890285 
L 546.28335 53.088747 
L 563.823479 53.546769 
L 581.363607 54.196067 
L 598.903736 54.620059 
L 616.443864 54.093924 
L 633.983993 54.08439 
L 651.524121 52.339345 
L 669.06425 53.951515 
L 686.604378 53.684231 
L 704.144507 52.907997 
L 721.684636 52.718543 
L 739.224764 54.555193 
L 756.764893 53.631605 
L 774.305021 54.157866 
L 791.84515 55.752436 
L 809.385278 55.286695 
L 826.925407 56.110293 
L 844.465535 56.539195 
L 862.005664 57.091769 
L 879.545793 55.084085 
L 897.085921 57.044405 
L 914.62605 58.02325 
L 932.166178 58.731071 
L 949.706307 58.302168 
" style="fill:none;stroke:#5cb85c;stroke-linecap:square;"/>
   </g>
   <g id="line2d_24">
    <path clip-path="url(#pd578f7d92f)" d="M 81.469943 61.058667 
L 90.240007 56.249969 
L 99.010072 50.885051 
L 107.780136 50.213623 
L 116.5502 53.020861 
L 125.320265 51.526 
L 134.090329 55.232283 
L 142.860393 54.500244 
L 151.630457 52.850898 
L 160.400522 52.117257 
L 177.94065 53.462594 
L 195.480779 52.62667 
L 213.020907 53.195288 
L 230.561036 52.911733 
L 248.101164 53.205118 
L 265.641293 53.283299 
L 283.181422 53.352709 
L 300.72155 53.276822 
L 318.261679 53.248384 
L 335.801807 53.59307 
L 353.341936 53.684656 
L 370.882064 53.753585 
L 388.422193 54.138009 
L 405.962322 54.306661 
L 423.50245 54.404056 
L 441.042579 54.45155 
L 458.582707 54.68848 
L 476.122836 54.569154 
L 493.662964 54.797563 
L 511.203093 55.002006 
L 528.743221 55.279042 
L 546.28335 55.420658 
L 563.823479 55.454401 
L 581.363607 55.648489 
L 598.903736 55.987665 
L 616.443864 55.946551 
L 633.983993 56.254707 
L 651.524121 56.283527 
L 669.06425 56.762563 
L 686.604378 56.978119 
L 704.144507 57.752928 
L 721.684636 55.482028 
L 739.224764 54.836845 
L 756.764893 54.986839 
L 774.305021 55.272357 
L 791.84515 55.677781 
L 809.385278 55.511229 
L 826.925407 55.816784 
L 844.465535 56.232852 
L 862.005664 55.647101 
L 879.545793 55.77452 
L 897.085921 55.979893 
L 914.62605 56.420693 
L 932.166178 57.463212 
L 949.706307 57.55682 
" style="fill:none;stroke:#5cb85c;stroke-linecap:square;"/>
   </g>
   <g id="line2d_25">
    <path clip-path="url(#pd578f7d92f)" d="M 38.058125 353.2239 
L 993.118125 353.2239 
" style="fill:none;stroke:#dedede;stroke-linecap:square;stroke-width:2;"/>
   </g>
   <g id="text_17">
    <!-- FastQC: Mean Quality Scores -->
    <g transform="translate(400.349375 19.3575)scale(0.16 -0.16)">
     <defs>
      <path d="M 628 4666 
L 3309 4666 
L 3309 4134 
L 1259 4134 
L 1259 2759 
L 3109 2759 
L 3109 2228 
L 1259 2228 
L 1259 0 
L 628 0 
L 628 4666 
z
" id="DejaVuSans-46" transform="scale(0.015625)"/>
      <path d="M 2194 1759 
Q 1497 1759 1228 1600 
Q 959 1441 959 1056 
Q 959 750 1161 570 
Q 1363 391 1709 391 
Q 2188 391 2477 730 
Q 2766 1069 2766 1631 
L 2766 1759 
L 2194 1759 
z
M 3341 1997 
L 3341 0 
L 2766 0 
L 2766 531 
Q 2569 213 2275 61 
Q 1981 -91 1556 -91 
Q 1019 -91 701 211 
Q 384 513 384 1019 
Q 384 1609 779 1909 
Q 1175 2209 1959 2209 
L 2766 2209 
L 2766 2266 
Q 2766 2663 2505 2880 
Q 2244 3097 1772 3097 
Q 1472 3097 1187 3025 
Q 903 2953 641 2809 
L 641 3341 
Q 956 3463 1253 3523 
Q 1550 3584 1831 3584 
Q 2591 3584 2966 3190 
Q 3341 2797 3341 1997 
z
" id="DejaVuSans-61" transform="scale(0.015625)"/>
      <path d="M 2522 4238 
Q 1834 4238 1429 3725 
Q 1025 3213 1025 2328 
Q 1025 1447 1429 934 
Q 1834 422 2522 422 
Q 3209 422 3611 934 
Q 4013 1447 4013 2328 
Q 4013 3213 3611 3725 
Q 3209 4238 2522 4238 
z
M 3406 84 
L 4238 -825 
L 3475 -825 
L 2784 -78 
Q 2681 -84 2626 -87 
Q 2572 -91 2522 -91 
Q 1538 -91 948 567 
Q 359 1225 359 2328 
Q 359 3434 948 4092 
Q 1538 4750 2522 4750 
Q 3503 4750 4090 4092 
Q 4678 3434 4678 2328 
Q 4678 1516 4351 937 
Q 4025 359 3406 84 
z
" id="DejaVuSans-51" transform="scale(0.015625)"/>
      <path d="M 4122 4306 
L 4122 3641 
Q 3803 3938 3442 4084 
Q 3081 4231 2675 4231 
Q 1875 4231 1450 3742 
Q 1025 3253 1025 2328 
Q 1025 1406 1450 917 
Q 1875 428 2675 428 
Q 3081 428 3442 575 
Q 3803 722 4122 1019 
L 4122 359 
Q 3791 134 3420 21 
Q 3050 -91 2638 -91 
Q 1578 -91 968 557 
Q 359 1206 359 2328 
Q 359 3453 968 4101 
Q 1578 4750 2638 4750 
Q 3056 4750 3426 4639 
Q 3797 4528 4122 4306 
z
" id="DejaVuSans-43" transform="scale(0.015625)"/>
      <path d="M 750 794 
L 1409 794 
L 1409 0 
L 750 0 
L 750 794 
z
M 750 3309 
L 1409 3309 
L 1409 2516 
L 750 2516 
L 750 3309 
z
" id="DejaVuSans-3a" transform="scale(0.015625)"/>
      <path d="M 628 4666 
L 1569 4666 
L 2759 1491 
L 3956 4666 
L 4897 4666 
L 4897 0 
L 4281 0 
L 4281 4097 
L 3078 897 
L 2444 897 
L 1241 4097 
L 1241 0 
L 628 0 
L 628 4666 
z
" id="DejaVuSans-4d" transform="scale(0.015625)"/>
      <path d="M 544 1381 
L 544 3500 
L 1119 3500 
L 1119 1403 
Q 1119 906 1312 657 
Q 1506 409 1894 409 
Q 2359 409 2629 706 
Q 2900 1003 2900 1516 
L 2900 3500 
L 3475 3500 
L 3475 0 
L 2900 0 
L 2900 538 
Q 2691 219 2414 64 
Q 2138 -91 1772 -91 
Q 1169 -91 856 284 
Q 544 659 544 1381 
z
M 1991 3584 
L 1991 3584 
z
" id="DejaVuSans-75" transform="scale(0.015625)"/>
      <path d="M 603 4863 
L 1178 4863 
L 1178 0 
L 603 0 
L 603 4863 
z
" id="DejaVuSans-6c" transform="scale(0.015625)"/>
      <path d="M 2059 -325 
Q 1816 -950 1584 -1140 
Q 1353 -1331 966 -1331 
L 506 -1331 
L 506 -850 
L 844 -850 
Q 1081 -850 1212 -737 
Q 1344 -625 1503 -206 
L 1606 56 
L 191 3500 
L 800 3500 
L 1894 763 
L 2988 3500 
L 3597 3500 
L 2059 -325 
z
" id="DejaVuSans-79" transform="scale(0.015625)"/>
     </defs>
     <use xlink:href="#DejaVuSans-46"/>
     <use x="48.394531" xlink:href="#DejaVuSans-61"/>
     <use x="109.673828" xlink:href="#DejaVuSans-73"/>
     <use x="161.773438" xlink:href="#DejaVuSans-74"/>
     <use x="200.982422" xlink:href="#DejaVuSans-51"/>
     <use x="279.693359" xlink:href="#DejaVuSans-43"/>
     <use x="349.517578" xlink:href="#DejaVuSans-3a"/>
     <use x="383.208984" xlink:href="#DejaVuSans-20"/>
     <use x="414.996094" xlink:href="#DejaVuSans-4d"/>
     <use x="501.275391" xlink:href="#DejaVuSans-65"/>
     <use x="562.798828" xlink:href="#DejaVuSans-61"/>
     <use x="624.078125" xlink:href="#DejaVuSans-6e"/>
     <use x="687.457031" xlink:href="#DejaVuSans-20"/>
     <use x="719.244141" xlink:href="#DejaVuSans-51"/>
     <use x="797.955078" xlink:href="#DejaVuSans-75"/>
     <use x="861.333984" xlink:href="#DejaVuSans-61"/>
     <use x="922.613281" xlink:href="#DejaVuSans-6c"/>
     <use x="950.396484" xlink:href="#DejaVuSans-69"/>
     <use x="978.179688" xlink:href="#DejaVuSans-74"/>
     <use x="1017.388672" xlink:href="#DejaVuSans-79"/>
     <use x="1076.568359" xlink:href="#DejaVuSans-20"/>
     <use x="1108.355469" xlink:href="#DejaVuSans-53"/>
     <use x="1171.832031" xlink:href="#DejaVuSans-63"/>
     <use x="1226.8125" xlink:href="#DejaVuSans-6f"/>
     <use x="1287.994141" xlink:href="#DejaVuSans-72"/>
     <use x="1326.857422" xlink:href="#DejaVuSans-65"/>
     <use x="1388.380859" xlink:href="#DejaVuSans-73"/>
    </g>
   </g>
  </g>
 </g>
 <defs>
  <clipPath id="pd578f7d92f">
   <rect height="317.968" width="955.06" x="38.058125" y="35.2559"/>
  </clipPath>
 </defs>
</svg>
