<?xml version="1.0" encoding="utf-8" standalone="no"?>
<!DOCTYPE svg PUBLIC "-//W3C//DTD SVG 1.1//EN"
  "http://www.w3.org/Graphics/SVG/1.1/DTD/svg11.dtd">
<svg height="388.844525pt" version="1.1" viewBox="0 0 1000.358125 388.844525" width="1000.358125pt" xmlns="http://www.w3.org/2000/svg" xmlns:xlink="http://www.w3.org/1999/xlink">
 <metadata>
  <rdf:RDF xmlns:cc="http://creativecommons.org/ns#" xmlns:dc="http://purl.org/dc/elements/1.1/" xmlns:rdf="http://www.w3.org/1999/02/22-rdf-syntax-ns#">
   <cc:Work>
    <dc:type rdf:resource="http://purl.org/dc/dcmitype/StillImage"/>
    <dc:date>2021-08-19T14:46:57.371945</dc:date>
    <dc:format>image/svg+xml</dc:format>
    <dc:creator>
     <cc:Agent>
      <dc:title>Matplotlib v3.4.3, https://matplotlib.org/</dc:title>
     </cc:Agent>
    </dc:creator>
   </cc:Work>
  </rdf:RDF>
 </metadata>
 <defs>
  <style type="text/css">*{stroke-linecap:butt;stroke-linejoin:round;}</style>
 </defs>
 <g id="figure_1">
  <g id="axes_1">
   <g id="patch_1">
    <path d="M 32.968125 353.2239 
L 993.158125 353.2239 
L 993.158125 35.2559 
L 32.968125 35.2559 
z
" style="fill:#ffffff;"/>
   </g>
   <g id="patch_2">
    <path clip-path="url(#p6c48430f18)" d="M 32.968125 -918.6481 
L 993.158125 -918.6481 
L 993.158125 -6006.1361 
L 32.968125 -6006.1361 
z
" style="fill:#e6c3c3;"/>
   </g>
   <g id="patch_3">
    <path clip-path="url(#p6c48430f18)" d="M 32.968125 35.2559 
L 993.158125 35.2559 
L 993.158125 -918.6481 
L 32.968125 -918.6481 
z
" style="fill:#e6dcc3;"/>
   </g>
   <g id="patch_4">
    <path clip-path="url(#p6c48430f18)" d="M 32.968125 353.2239 
L 993.158125 353.2239 
L 993.158125 35.2559 
L 32.968125 35.2559 
z
" style="fill:#c3e6c3;"/>
   </g>
   <g id="matplotlib.axis_1">
    <g id="xtick_1">
     <g id="text_1">
      <!-- 0 -->
      <g transform="translate(30.423125 366.30265)scale(0.08 -0.08)">
       <defs>
        <path d="M 2034 4250 
Q 1547 4250 1301 3770 
Q 1056 3291 1056 2328 
Q 1056 1369 1301 889 
Q 1547 409 2034 409 
Q 2525 409 2770 889 
Q 3016 1369 3016 2328 
Q 3016 3291 2770 3770 
Q 2525 4250 2034 4250 
z
M 2034 4750 
Q 2819 4750 3233 4129 
Q 3647 3509 3647 2328 
Q 3647 1150 3233 529 
Q 2819 -91 2034 -91 
Q 1250 -91 836 529 
Q 422 1150 422 2328 
Q 422 3509 836 4129 
Q 1250 4750 2034 4750 
z
" id="DejaVuSans-30" transform="scale(0.015625)"/>
       </defs>
       <use xlink:href="#DejaVuSans-30"/>
      </g>
     </g>
    </g>
    <g id="xtick_2">
     <g id="text_2">
      <!-- 20 -->
      <g transform="translate(210.858592 366.30265)scale(0.08 -0.08)">
       <defs>
        <path d="M 1228 531 
L 3431 531 
L 3431 0 
L 469 0 
L 469 531 
Q 828 903 1448 1529 
Q 2069 2156 2228 2338 
Q 2531 2678 2651 2914 
Q 2772 3150 2772 3378 
Q 2772 3750 2511 3984 
Q 2250 4219 1831 4219 
Q 1534 4219 1204 4116 
Q 875 4013 500 3803 
L 500 4441 
Q 881 4594 1212 4672 
Q 1544 4750 1819 4750 
Q 2544 4750 2975 4387 
Q 3406 4025 3406 3419 
Q 3406 3131 3298 2873 
Q 3191 2616 2906 2266 
Q 2828 2175 2409 1742 
Q 1991 1309 1228 531 
z
" id="DejaVuSans-32" transform="scale(0.015625)"/>
       </defs>
       <use xlink:href="#DejaVuSans-32"/>
       <use x="63.623047" xlink:href="#DejaVuSans-30"/>
      </g>
     </g>
    </g>
    <g id="xtick_3">
     <g id="text_3">
      <!-- 40 -->
      <g transform="translate(393.839059 366.30265)scale(0.08 -0.08)">
       <defs>
        <path d="M 2419 4116 
L 825 1625 
L 2419 1625 
L 2419 4116 
z
M 2253 4666 
L 3047 4666 
L 3047 1625 
L 3713 1625 
L 3713 1100 
L 3047 1100 
L 3047 0 
L 2419 0 
L 2419 1100 
L 313 1100 
L 313 1709 
L 2253 4666 
z
" id="DejaVuSans-34" transform="scale(0.015625)"/>
       </defs>
       <use xlink:href="#DejaVuSans-34"/>
       <use x="63.623047" xlink:href="#DejaVuSans-30"/>
      </g>
     </g>
    </g>
    <g id="xtick_4">
     <g id="text_4">
      <!-- 60 -->
      <g transform="translate(576.819526 366.30265)scale(0.08 -0.08)">
       <defs>
        <path d="M 2113 2584 
Q 1688 2584 1439 2293 
Q 1191 2003 1191 1497 
Q 1191 994 1439 701 
Q 1688 409 2113 409 
Q 2538 409 2786 701 
Q 3034 994 3034 1497 
Q 3034 2003 2786 2293 
Q 2538 2584 2113 2584 
z
M 3366 4563 
L 3366 3988 
Q 3128 4100 2886 4159 
Q 2644 4219 2406 4219 
Q 1781 4219 1451 3797 
Q 1122 3375 1075 2522 
Q 1259 2794 1537 2939 
Q 1816 3084 2150 3084 
Q 2853 3084 3261 2657 
Q 3669 2231 3669 1497 
Q 3669 778 3244 343 
Q 2819 -91 2113 -91 
Q 1303 -91 875 529 
Q 447 1150 447 2328 
Q 447 3434 972 4092 
Q 1497 4750 2381 4750 
Q 2619 4750 2861 4703 
Q 3103 4656 3366 4563 
z
" id="DejaVuSans-36" transform="scale(0.015625)"/>
       </defs>
       <use xlink:href="#DejaVuSans-36"/>
       <use x="63.623047" xlink:href="#DejaVuSans-30"/>
      </g>
     </g>
    </g>
    <g id="xtick_5">
     <g id="text_5">
      <!-- 80 -->
      <g transform="translate(759.799993 366.30265)scale(0.08 -0.08)">
       <defs>
        <path d="M 2034 2216 
Q 1584 2216 1326 1975 
Q 1069 1734 1069 1313 
Q 1069 891 1326 650 
Q 1584 409 2034 409 
Q 2484 409 2743 651 
Q 3003 894 3003 1313 
Q 3003 1734 2745 1975 
Q 2488 2216 2034 2216 
z
M 1403 2484 
Q 997 2584 770 2862 
Q 544 3141 544 3541 
Q 544 4100 942 4425 
Q 1341 4750 2034 4750 
Q 2731 4750 3128 4425 
Q 3525 4100 3525 3541 
Q 3525 3141 3298 2862 
Q 3072 2584 2669 2484 
Q 3125 2378 3379 2068 
Q 3634 1759 3634 1313 
Q 3634 634 3220 271 
Q 2806 -91 2034 -91 
Q 1263 -91 848 271 
Q 434 634 434 1313 
Q 434 1759 690 2068 
Q 947 2378 1403 2484 
z
M 1172 3481 
Q 1172 3119 1398 2916 
Q 1625 2713 2034 2713 
Q 2441 2713 2670 2916 
Q 2900 3119 2900 3481 
Q 2900 3844 2670 4047 
Q 2441 4250 2034 4250 
Q 1625 4250 1398 4047 
Q 1172 3844 1172 3481 
z
" id="DejaVuSans-38" transform="scale(0.015625)"/>
       </defs>
       <use xlink:href="#DejaVuSans-38"/>
       <use x="63.623047" xlink:href="#DejaVuSans-30"/>
      </g>
     </g>
    </g>
    <g id="xtick_6">
     <g id="text_6">
      <!-- 100 -->
      <g transform="translate(940.235459 366.30265)scale(0.08 -0.08)">
       <defs>
        <path d="M 794 531 
L 1825 531 
L 1825 4091 
L 703 3866 
L 703 4441 
L 1819 4666 
L 2450 4666 
L 2450 531 
L 3481 531 
L 3481 0 
L 794 0 
L 794 531 
z
" id="DejaVuSans-31" transform="scale(0.015625)"/>
       </defs>
       <use xlink:href="#DejaVuSans-31"/>
       <use x="63.623047" xlink:href="#DejaVuSans-30"/>
       <use x="127.246094" xlink:href="#DejaVuSans-30"/>
      </g>
     </g>
    </g>
    <g id="text_7">
     <!-- Position in Read (bp) -->
     <g transform="translate(461.46 379.564837)scale(0.1 -0.1)">
      <defs>
       <path d="M 1259 4147 
L 1259 2394 
L 2053 2394 
Q 2494 2394 2734 2622 
Q 2975 2850 2975 3272 
Q 2975 3691 2734 3919 
Q 2494 4147 2053 4147 
L 1259 4147 
z
M 628 4666 
L 2053 4666 
Q 2838 4666 3239 4311 
Q 3641 3956 3641 3272 
Q 3641 2581 3239 2228 
Q 2838 1875 2053 1875 
L 1259 1875 
L 1259 0 
L 628 0 
L 628 4666 
z
" id="DejaVuSans-50" transform="scale(0.015625)"/>
       <path d="M 1959 3097 
Q 1497 3097 1228 2736 
Q 959 2375 959 1747 
Q 959 1119 1226 758 
Q 1494 397 1959 397 
Q 2419 397 2687 759 
Q 2956 1122 2956 1747 
Q 2956 2369 2687 2733 
Q 2419 3097 1959 3097 
z
M 1959 3584 
Q 2709 3584 3137 3096 
Q 3566 2609 3566 1747 
Q 3566 888 3137 398 
Q 2709 -91 1959 -91 
Q 1206 -91 779 398 
Q 353 888 353 1747 
Q 353 2609 779 3096 
Q 1206 3584 1959 3584 
z
" id="DejaVuSans-6f" transform="scale(0.015625)"/>
       <path d="M 2834 3397 
L 2834 2853 
Q 2591 2978 2328 3040 
Q 2066 3103 1784 3103 
Q 1356 3103 1142 2972 
Q 928 2841 928 2578 
Q 928 2378 1081 2264 
Q 1234 2150 1697 2047 
L 1894 2003 
Q 2506 1872 2764 1633 
Q 3022 1394 3022 966 
Q 3022 478 2636 193 
Q 2250 -91 1575 -91 
Q 1294 -91 989 -36 
Q 684 19 347 128 
L 347 722 
Q 666 556 975 473 
Q 1284 391 1588 391 
Q 1994 391 2212 530 
Q 2431 669 2431 922 
Q 2431 1156 2273 1281 
Q 2116 1406 1581 1522 
L 1381 1569 
Q 847 1681 609 1914 
Q 372 2147 372 2553 
Q 372 3047 722 3315 
Q 1072 3584 1716 3584 
Q 2034 3584 2315 3537 
Q 2597 3491 2834 3397 
z
" id="DejaVuSans-73" transform="scale(0.015625)"/>
       <path d="M 603 3500 
L 1178 3500 
L 1178 0 
L 603 0 
L 603 3500 
z
M 603 4863 
L 1178 4863 
L 1178 4134 
L 603 4134 
L 603 4863 
z
" id="DejaVuSans-69" transform="scale(0.015625)"/>
       <path d="M 1172 4494 
L 1172 3500 
L 2356 3500 
L 2356 3053 
L 1172 3053 
L 1172 1153 
Q 1172 725 1289 603 
Q 1406 481 1766 481 
L 2356 481 
L 2356 0 
L 1766 0 
Q 1100 0 847 248 
Q 594 497 594 1153 
L 594 3053 
L 172 3053 
L 172 3500 
L 594 3500 
L 594 4494 
L 1172 4494 
z
" id="DejaVuSans-74" transform="scale(0.015625)"/>
       <path d="M 3513 2113 
L 3513 0 
L 2938 0 
L 2938 2094 
Q 2938 2591 2744 2837 
Q 2550 3084 2163 3084 
Q 1697 3084 1428 2787 
Q 1159 2491 1159 1978 
L 1159 0 
L 581 0 
L 581 3500 
L 1159 3500 
L 1159 2956 
Q 1366 3272 1645 3428 
Q 1925 3584 2291 3584 
Q 2894 3584 3203 3211 
Q 3513 2838 3513 2113 
z
" id="DejaVuSans-6e" transform="scale(0.015625)"/>
       <path id="DejaVuSans-20" transform="scale(0.015625)"/>
       <path d="M 2841 2188 
Q 3044 2119 3236 1894 
Q 3428 1669 3622 1275 
L 4263 0 
L 3584 0 
L 2988 1197 
Q 2756 1666 2539 1819 
Q 2322 1972 1947 1972 
L 1259 1972 
L 1259 0 
L 628 0 
L 628 4666 
L 2053 4666 
Q 2853 4666 3247 4331 
Q 3641 3997 3641 3322 
Q 3641 2881 3436 2590 
Q 3231 2300 2841 2188 
z
M 1259 4147 
L 1259 2491 
L 2053 2491 
Q 2509 2491 2742 2702 
Q 2975 2913 2975 3322 
Q 2975 3731 2742 3939 
Q 2509 4147 2053 4147 
L 1259 4147 
z
" id="DejaVuSans-52" transform="scale(0.015625)"/>
       <path d="M 3597 1894 
L 3597 1613 
L 953 1613 
Q 991 1019 1311 708 
Q 1631 397 2203 397 
Q 2534 397 2845 478 
Q 3156 559 3463 722 
L 3463 178 
Q 3153 47 2828 -22 
Q 2503 -91 2169 -91 
Q 1331 -91 842 396 
Q 353 884 353 1716 
Q 353 2575 817 3079 
Q 1281 3584 2069 3584 
Q 2775 3584 3186 3129 
Q 3597 2675 3597 1894 
z
M 3022 2063 
Q 3016 2534 2758 2815 
Q 2500 3097 2075 3097 
Q 1594 3097 1305 2825 
Q 1016 2553 972 2059 
L 3022 2063 
z
" id="DejaVuSans-65" transform="scale(0.015625)"/>
       <path d="M 2194 1759 
Q 1497 1759 1228 1600 
Q 959 1441 959 1056 
Q 959 750 1161 570 
Q 1363 391 1709 391 
Q 2188 391 2477 730 
Q 2766 1069 2766 1631 
L 2766 1759 
L 2194 1759 
z
M 3341 1997 
L 3341 0 
L 2766 0 
L 2766 531 
Q 2569 213 2275 61 
Q 1981 -91 1556 -91 
Q 1019 -91 701 211 
Q 384 513 384 1019 
Q 384 1609 779 1909 
Q 1175 2209 1959 2209 
L 2766 2209 
L 2766 2266 
Q 2766 2663 2505 2880 
Q 2244 3097 1772 3097 
Q 1472 3097 1187 3025 
Q 903 2953 641 2809 
L 641 3341 
Q 956 3463 1253 3523 
Q 1550 3584 1831 3584 
Q 2591 3584 2966 3190 
Q 3341 2797 3341 1997 
z
" id="DejaVuSans-61" transform="scale(0.015625)"/>
       <path d="M 2906 2969 
L 2906 4863 
L 3481 4863 
L 3481 0 
L 2906 0 
L 2906 525 
Q 2725 213 2448 61 
Q 2172 -91 1784 -91 
Q 1150 -91 751 415 
Q 353 922 353 1747 
Q 353 2572 751 3078 
Q 1150 3584 1784 3584 
Q 2172 3584 2448 3432 
Q 2725 3281 2906 2969 
z
M 947 1747 
Q 947 1113 1208 752 
Q 1469 391 1925 391 
Q 2381 391 2643 752 
Q 2906 1113 2906 1747 
Q 2906 2381 2643 2742 
Q 2381 3103 1925 3103 
Q 1469 3103 1208 2742 
Q 947 2381 947 1747 
z
" id="DejaVuSans-64" transform="scale(0.015625)"/>
       <path d="M 1984 4856 
Q 1566 4138 1362 3434 
Q 1159 2731 1159 2009 
Q 1159 1288 1364 580 
Q 1569 -128 1984 -844 
L 1484 -844 
Q 1016 -109 783 600 
Q 550 1309 550 2009 
Q 550 2706 781 3412 
Q 1013 4119 1484 4856 
L 1984 4856 
z
" id="DejaVuSans-28" transform="scale(0.015625)"/>
       <path d="M 3116 1747 
Q 3116 2381 2855 2742 
Q 2594 3103 2138 3103 
Q 1681 3103 1420 2742 
Q 1159 2381 1159 1747 
Q 1159 1113 1420 752 
Q 1681 391 2138 391 
Q 2594 391 2855 752 
Q 3116 1113 3116 1747 
z
M 1159 2969 
Q 1341 3281 1617 3432 
Q 1894 3584 2278 3584 
Q 2916 3584 3314 3078 
Q 3713 2572 3713 1747 
Q 3713 922 3314 415 
Q 2916 -91 2278 -91 
Q 1894 -91 1617 61 
Q 1341 213 1159 525 
L 1159 0 
L 581 0 
L 581 4863 
L 1159 4863 
L 1159 2969 
z
" id="DejaVuSans-62" transform="scale(0.015625)"/>
       <path d="M 1159 525 
L 1159 -1331 
L 581 -1331 
L 581 3500 
L 1159 3500 
L 1159 2969 
Q 1341 3281 1617 3432 
Q 1894 3584 2278 3584 
Q 2916 3584 3314 3078 
Q 3713 2572 3713 1747 
Q 3713 922 3314 415 
Q 2916 -91 2278 -91 
Q 1894 -91 1617 61 
Q 1341 213 1159 525 
z
M 3116 1747 
Q 3116 2381 2855 2742 
Q 2594 3103 2138 3103 
Q 1681 3103 1420 2742 
Q 1159 2381 1159 1747 
Q 1159 1113 1420 752 
Q 1681 391 2138 391 
Q 2594 391 2855 752 
Q 3116 1113 3116 1747 
z
" id="DejaVuSans-70" transform="scale(0.015625)"/>
       <path d="M 513 4856 
L 1013 4856 
Q 1481 4119 1714 3412 
Q 1947 2706 1947 2009 
Q 1947 1309 1714 600 
Q 1481 -109 1013 -844 
L 513 -844 
Q 928 -128 1133 580 
Q 1338 1288 1338 2009 
Q 1338 2731 1133 3434 
Q 928 4138 513 4856 
z
" id="DejaVuSans-29" transform="scale(0.015625)"/>
      </defs>
      <use xlink:href="#DejaVuSans-50"/>
      <use x="56.677734" xlink:href="#DejaVuSans-6f"/>
      <use x="117.859375" xlink:href="#DejaVuSans-73"/>
      <use x="169.958984" xlink:href="#DejaVuSans-69"/>
      <use x="197.742188" xlink:href="#DejaVuSans-74"/>
      <use x="236.951172" xlink:href="#DejaVuSans-69"/>
      <use x="264.734375" xlink:href="#DejaVuSans-6f"/>
      <use x="325.916016" xlink:href="#DejaVuSans-6e"/>
      <use x="389.294922" xlink:href="#DejaVuSans-20"/>
      <use x="421.082031" xlink:href="#DejaVuSans-69"/>
      <use x="448.865234" xlink:href="#DejaVuSans-6e"/>
      <use x="512.244141" xlink:href="#DejaVuSans-20"/>
      <use x="544.03125" xlink:href="#DejaVuSans-52"/>
      <use x="609.013672" xlink:href="#DejaVuSans-65"/>
      <use x="670.537109" xlink:href="#DejaVuSans-61"/>
      <use x="731.816406" xlink:href="#DejaVuSans-64"/>
      <use x="795.292969" xlink:href="#DejaVuSans-20"/>
      <use x="827.080078" xlink:href="#DejaVuSans-28"/>
      <use x="866.09375" xlink:href="#DejaVuSans-62"/>
      <use x="929.570312" xlink:href="#DejaVuSans-70"/>
      <use x="993.046875" xlink:href="#DejaVuSans-29"/>
     </g>
    </g>
   </g>
   <g id="matplotlib.axis_2">
    <g id="ytick_1">
     <g id="line2d_1">
      <path clip-path="url(#p6c48430f18)" d="M 32.968125 353.2239 
L 993.158125 353.2239 
" style="fill:none;stroke:#dedede;stroke-linecap:square;"/>
     </g>
     <g id="text_8">
      <!-- 0 -->
      <g transform="translate(20.878125 356.263275)scale(0.08 -0.08)">
       <use xlink:href="#DejaVuSans-30"/>
      </g>
     </g>
    </g>
    <g id="ytick_2">
     <g id="line2d_2">
      <path clip-path="url(#p6c48430f18)" d="M 32.968125 289.6303 
L 993.158125 289.6303 
" style="fill:none;stroke:#dedede;stroke-linecap:square;"/>
     </g>
     <g id="text_9">
      <!-- 1 -->
      <g transform="translate(20.878125 292.669675)scale(0.08 -0.08)">
       <use xlink:href="#DejaVuSans-31"/>
      </g>
     </g>
    </g>
    <g id="ytick_3">
     <g id="line2d_3">
      <path clip-path="url(#p6c48430f18)" d="M 32.968125 226.0367 
L 993.158125 226.0367 
" style="fill:none;stroke:#dedede;stroke-linecap:square;"/>
     </g>
     <g id="text_10">
      <!-- 2 -->
      <g transform="translate(20.878125 229.076075)scale(0.08 -0.08)">
       <use xlink:href="#DejaVuSans-32"/>
      </g>
     </g>
    </g>
    <g id="ytick_4">
     <g id="line2d_4">
      <path clip-path="url(#p6c48430f18)" d="M 32.968125 162.4431 
L 993.158125 162.4431 
" style="fill:none;stroke:#dedede;stroke-linecap:square;"/>
     </g>
     <g id="text_11">
      <!-- 3 -->
      <g transform="translate(20.878125 165.482475)scale(0.08 -0.08)">
       <defs>
        <path d="M 2597 2516 
Q 3050 2419 3304 2112 
Q 3559 1806 3559 1356 
Q 3559 666 3084 287 
Q 2609 -91 1734 -91 
Q 1441 -91 1130 -33 
Q 819 25 488 141 
L 488 750 
Q 750 597 1062 519 
Q 1375 441 1716 441 
Q 2309 441 2620 675 
Q 2931 909 2931 1356 
Q 2931 1769 2642 2001 
Q 2353 2234 1838 2234 
L 1294 2234 
L 1294 2753 
L 1863 2753 
Q 2328 2753 2575 2939 
Q 2822 3125 2822 3475 
Q 2822 3834 2567 4026 
Q 2313 4219 1838 4219 
Q 1578 4219 1281 4162 
Q 984 4106 628 3988 
L 628 4550 
Q 988 4650 1302 4700 
Q 1616 4750 1894 4750 
Q 2613 4750 3031 4423 
Q 3450 4097 3450 3541 
Q 3450 3153 3228 2886 
Q 3006 2619 2597 2516 
z
" id="DejaVuSans-33" transform="scale(0.015625)"/>
       </defs>
       <use xlink:href="#DejaVuSans-33"/>
      </g>
     </g>
    </g>
    <g id="ytick_5">
     <g id="line2d_5">
      <path clip-path="url(#p6c48430f18)" d="M 32.968125 98.8495 
L 993.158125 98.8495 
" style="fill:none;stroke:#dedede;stroke-linecap:square;"/>
     </g>
     <g id="text_12">
      <!-- 4 -->
      <g transform="translate(20.878125 101.888875)scale(0.08 -0.08)">
       <use xlink:href="#DejaVuSans-34"/>
      </g>
     </g>
    </g>
    <g id="ytick_6">
     <g id="line2d_6">
      <path clip-path="url(#p6c48430f18)" d="M 32.968125 35.2559 
L 993.158125 35.2559 
" style="fill:none;stroke:#dedede;stroke-linecap:square;"/>
     </g>
     <g id="text_13">
      <!-- 5 -->
      <g transform="translate(20.878125 38.295275)scale(0.08 -0.08)">
       <defs>
        <path d="M 691 4666 
L 3169 4666 
L 3169 4134 
L 1269 4134 
L 1269 2991 
Q 1406 3038 1543 3061 
Q 1681 3084 1819 3084 
Q 2600 3084 3056 2656 
Q 3513 2228 3513 1497 
Q 3513 744 3044 326 
Q 2575 -91 1722 -91 
Q 1428 -91 1123 -41 
Q 819 9 494 109 
L 494 744 
Q 775 591 1075 516 
Q 1375 441 1709 441 
Q 2250 441 2565 725 
Q 2881 1009 2881 1497 
Q 2881 1984 2565 2268 
Q 2250 2553 1709 2553 
Q 1456 2553 1204 2497 
Q 953 2441 691 2322 
L 691 4666 
z
" id="DejaVuSans-35" transform="scale(0.015625)"/>
       </defs>
       <use xlink:href="#DejaVuSans-35"/>
      </g>
     </g>
    </g>
    <g id="text_14">
     <!-- Percentage N-Count -->
     <g transform="translate(14.798438 244.344588)rotate(-90)scale(0.1 -0.1)">
      <defs>
       <path d="M 2631 2963 
Q 2534 3019 2420 3045 
Q 2306 3072 2169 3072 
Q 1681 3072 1420 2755 
Q 1159 2438 1159 1844 
L 1159 0 
L 581 0 
L 581 3500 
L 1159 3500 
L 1159 2956 
Q 1341 3275 1631 3429 
Q 1922 3584 2338 3584 
Q 2397 3584 2469 3576 
Q 2541 3569 2628 3553 
L 2631 2963 
z
" id="DejaVuSans-72" transform="scale(0.015625)"/>
       <path d="M 3122 3366 
L 3122 2828 
Q 2878 2963 2633 3030 
Q 2388 3097 2138 3097 
Q 1578 3097 1268 2742 
Q 959 2388 959 1747 
Q 959 1106 1268 751 
Q 1578 397 2138 397 
Q 2388 397 2633 464 
Q 2878 531 3122 666 
L 3122 134 
Q 2881 22 2623 -34 
Q 2366 -91 2075 -91 
Q 1284 -91 818 406 
Q 353 903 353 1747 
Q 353 2603 823 3093 
Q 1294 3584 2113 3584 
Q 2378 3584 2631 3529 
Q 2884 3475 3122 3366 
z
" id="DejaVuSans-63" transform="scale(0.015625)"/>
       <path d="M 2906 1791 
Q 2906 2416 2648 2759 
Q 2391 3103 1925 3103 
Q 1463 3103 1205 2759 
Q 947 2416 947 1791 
Q 947 1169 1205 825 
Q 1463 481 1925 481 
Q 2391 481 2648 825 
Q 2906 1169 2906 1791 
z
M 3481 434 
Q 3481 -459 3084 -895 
Q 2688 -1331 1869 -1331 
Q 1566 -1331 1297 -1286 
Q 1028 -1241 775 -1147 
L 775 -588 
Q 1028 -725 1275 -790 
Q 1522 -856 1778 -856 
Q 2344 -856 2625 -561 
Q 2906 -266 2906 331 
L 2906 616 
Q 2728 306 2450 153 
Q 2172 0 1784 0 
Q 1141 0 747 490 
Q 353 981 353 1791 
Q 353 2603 747 3093 
Q 1141 3584 1784 3584 
Q 2172 3584 2450 3431 
Q 2728 3278 2906 2969 
L 2906 3500 
L 3481 3500 
L 3481 434 
z
" id="DejaVuSans-67" transform="scale(0.015625)"/>
       <path d="M 628 4666 
L 1478 4666 
L 3547 763 
L 3547 4666 
L 4159 4666 
L 4159 0 
L 3309 0 
L 1241 3903 
L 1241 0 
L 628 0 
L 628 4666 
z
" id="DejaVuSans-4e" transform="scale(0.015625)"/>
       <path d="M 313 2009 
L 1997 2009 
L 1997 1497 
L 313 1497 
L 313 2009 
z
" id="DejaVuSans-2d" transform="scale(0.015625)"/>
       <path d="M 4122 4306 
L 4122 3641 
Q 3803 3938 3442 4084 
Q 3081 4231 2675 4231 
Q 1875 4231 1450 3742 
Q 1025 3253 1025 2328 
Q 1025 1406 1450 917 
Q 1875 428 2675 428 
Q 3081 428 3442 575 
Q 3803 722 4122 1019 
L 4122 359 
Q 3791 134 3420 21 
Q 3050 -91 2638 -91 
Q 1578 -91 968 557 
Q 359 1206 359 2328 
Q 359 3453 968 4101 
Q 1578 4750 2638 4750 
Q 3056 4750 3426 4639 
Q 3797 4528 4122 4306 
z
" id="DejaVuSans-43" transform="scale(0.015625)"/>
       <path d="M 544 1381 
L 544 3500 
L 1119 3500 
L 1119 1403 
Q 1119 906 1312 657 
Q 1506 409 1894 409 
Q 2359 409 2629 706 
Q 2900 1003 2900 1516 
L 2900 3500 
L 3475 3500 
L 3475 0 
L 2900 0 
L 2900 538 
Q 2691 219 2414 64 
Q 2138 -91 1772 -91 
Q 1169 -91 856 284 
Q 544 659 544 1381 
z
M 1991 3584 
L 1991 3584 
z
" id="DejaVuSans-75" transform="scale(0.015625)"/>
      </defs>
      <use xlink:href="#DejaVuSans-50"/>
      <use x="56.677734" xlink:href="#DejaVuSans-65"/>
      <use x="118.201172" xlink:href="#DejaVuSans-72"/>
      <use x="157.064453" xlink:href="#DejaVuSans-63"/>
      <use x="212.044922" xlink:href="#DejaVuSans-65"/>
      <use x="273.568359" xlink:href="#DejaVuSans-6e"/>
      <use x="336.947266" xlink:href="#DejaVuSans-74"/>
      <use x="376.15625" xlink:href="#DejaVuSans-61"/>
      <use x="437.435547" xlink:href="#DejaVuSans-67"/>
      <use x="500.912109" xlink:href="#DejaVuSans-65"/>
      <use x="562.435547" xlink:href="#DejaVuSans-20"/>
      <use x="594.222656" xlink:href="#DejaVuSans-4e"/>
      <use x="669.027344" xlink:href="#DejaVuSans-2d"/>
      <use x="705.111328" xlink:href="#DejaVuSans-43"/>
      <use x="774.935547" xlink:href="#DejaVuSans-6f"/>
      <use x="836.117188" xlink:href="#DejaVuSans-75"/>
      <use x="899.496094" xlink:href="#DejaVuSans-6e"/>
      <use x="962.875" xlink:href="#DejaVuSans-74"/>
     </g>
    </g>
   </g>
   <g id="line2d_7">
    <path clip-path="url(#p6c48430f18)" d="M 42.117148 353.2239 
L 51.266172 353.2239 
L 60.415195 353.2239 
L 69.564218 353.2239 
L 78.713242 352.854413 
L 87.862265 353.2239 
L 97.011288 353.2239 
L 106.160312 353.2239 
L 115.309335 353.2239 
L 124.458358 353.2239 
L 142.756405 353.2239 
L 161.054452 353.2239 
L 179.352499 353.2239 
L 197.650545 353.100738 
L 215.948592 353.039157 
L 234.246639 353.100738 
L 252.544685 353.039157 
L 270.842732 353.162319 
L 289.140779 353.100738 
L 307.438825 353.2239 
L 325.736872 353.09941 
L 344.034919 353.161216 
L 362.332965 353.097573 
L 380.631012 353.096452 
L 398.929059 353.031206 
L 417.227105 353.094408 
L 435.525152 353.158503 
L 453.823199 353.157864 
L 472.121246 353.157341 
L 490.419292 353.2239 
L 508.717339 353.089029 
L 527.015386 353.156341 
L 545.313432 353.02116 
L 563.611479 353.021132 
L 581.909526 353.156307 
L 600.207572 353.156306 
L 618.505619 353.088707 
L 636.803666 353.156303 
L 655.101712 353.02111 
L 673.399759 352.81832 
L 691.697806 353.088707 
L 709.995852 353.156303 
L 728.293899 353.156303 
L 746.591946 353.2239 
L 764.889993 353.156303 
L 783.188039 353.156303 
L 801.486086 353.156303 
L 819.784133 353.156303 
L 838.082179 353.156303 
L 856.380226 353.088707 
L 874.678273 353.156303 
L 892.976319 353.156303 
L 911.274366 353.156303 
L 929.572413 353.2239 
L 947.870459 352.953513 
" style="fill:none;stroke:#5cb85c;stroke-linecap:square;"/>
   </g>
   <g id="line2d_8">
    <path clip-path="url(#p6c48430f18)" d="M 42.117148 353.2239 
L 51.266172 353.100738 
L 60.415195 353.2239 
L 69.564218 353.2239 
L 78.713242 343.740406 
L 87.862265 353.2239 
L 97.011288 353.2239 
L 106.160312 353.2239 
L 115.309335 353.100738 
L 124.458358 353.2239 
L 142.756405 353.2239 
L 161.054452 353.2239 
L 179.352499 353.2239 
L 197.650545 353.2239 
L 215.948592 353.2239 
L 234.246639 353.2239 
L 252.544685 353.2239 
L 270.842732 353.2239 
L 289.140779 353.162319 
L 307.438825 353.162126 
L 325.736872 353.2239 
L 344.034919 353.2239 
L 362.332965 353.2239 
L 380.631012 353.2239 
L 398.929059 353.024405 
L 417.227105 353.2239 
L 435.525152 353.2239 
L 453.823199 353.2239 
L 472.121246 344.672829 
L 490.419292 353.2239 
L 508.717339 346.443098 
L 527.015386 353.2239 
L 545.313432 353.2239 
L 563.611479 353.14963 
L 581.909526 353.14962 
L 600.207572 353.2239 
L 618.505619 353.2239 
L 636.803666 353.2239 
L 655.101712 353.075305 
L 673.399759 353.001004 
L 691.697806 353.149601 
L 709.995852 353.2239 
L 728.293899 353.2239 
L 746.591946 353.2239 
L 764.889993 353.001004 
L 783.188039 353.149601 
L 801.486086 353.149601 
L 819.784133 353.2239 
L 838.082179 353.2239 
L 856.380226 353.2239 
L 874.678273 353.149601 
L 892.976319 353.149601 
L 911.274366 349.286078 
L 929.572413 353.2239 
L 947.870459 353.2239 
" style="fill:none;stroke:#5cb85c;stroke-linecap:square;"/>
   </g>
   <g id="line2d_9">
    <path clip-path="url(#p6c48430f18)" d="M 42.117148 353.2239 
L 51.266172 353.2239 
L 60.415195 353.2239 
L 69.564218 353.212116 
L 78.713242 353.212116 
L 87.862265 353.117848 
L 97.011288 353.153199 
L 106.160312 353.188549 
L 115.309335 353.153199 
L 124.458358 353.153199 
L 142.756405 353.176766 
L 161.054452 353.194441 
L 179.352499 353.164982 
L 197.650545 353.176766 
L 215.948592 353.182658 
L 234.246639 353.129632 
L 252.544685 353.159091 
L 270.842732 353.164982 
L 289.140779 353.100173 
L 307.438825 353.147095 
L 325.736872 353.038854 
L 344.034919 353.091719 
L 362.332965 353.169767 
L 380.631012 353.151702 
L 398.929059 353.097545 
L 417.227105 353.145676 
L 435.525152 353.097534 
L 453.823199 352.977176 
L 472.121246 353.163721 
L 490.419292 352.616074 
L 508.717339 353.115572 
L 527.015386 353.055388 
L 545.313432 353.139644 
L 563.611479 345.658872 
L 581.909526 353.061395 
L 600.207572 353.056589 
L 618.505619 353.2239 
L 636.803666 353.2239 
L 655.101712 353.2239 
L 673.399759 353.2239 
L 691.697806 353.2239 
L 709.995852 353.2239 
L 728.293899 353.2239 
L 746.591946 353.2239 
L 764.889993 353.2239 
L 783.188039 353.2239 
L 801.486086 353.2239 
L 819.784133 353.2239 
L 838.082179 353.2239 
L 856.380226 353.2239 
L 874.678273 353.2239 
L 892.976319 353.2239 
L 911.274366 342.459919 
L 929.572413 353.2239 
L 947.870459 353.2239 
" style="fill:none;stroke:#5cb85c;stroke-linecap:square;"/>
   </g>
   <g id="line2d_10">
    <path clip-path="url(#p6c48430f18)" d="M 42.117148 353.212116 
L 51.266172 353.2239 
L 60.415195 353.212116 
L 69.564218 353.2239 
L 78.713242 353.2239 
L 87.862265 353.212116 
L 97.011288 353.212116 
L 106.160312 353.212116 
L 115.309335 353.2239 
L 124.458358 353.212116 
L 142.756405 353.218008 
L 161.054452 353.218008 
L 179.352499 353.194441 
L 197.650545 353.200333 
L 215.948592 353.206225 
L 234.246639 353.212116 
L 252.544685 353.206225 
L 270.842732 353.2239 
L 289.140779 353.212116 
L 307.438825 353.2239 
L 325.736872 353.200062 
L 344.034919 353.211872 
L 362.332965 353.193547 
L 380.631012 353.193269 
L 398.929059 353.199285 
L 417.227105 353.211583 
L 435.525152 353.014472 
L 453.823199 353.205418 
L 472.121246 353.205415 
L 490.419292 353.199251 
L 508.717339 353.18076 
L 527.015386 353.199248 
L 545.313432 353.217737 
L 563.611479 353.199247 
L 581.909526 353.051332 
L 600.207572 353.075985 
L 618.505619 353.199247 
L 636.803666 353.211574 
L 655.101712 353.193084 
L 673.399759 353.186897 
L 691.697806 352.536901 
L 709.995852 352.993913 
L 728.293899 352.972333 
L 746.591946 352.968955 
L 764.889993 352.968955 
L 783.188039 353.2239 
L 801.486086 353.2239 
L 819.784133 353.2239 
L 838.082179 352.714009 
L 856.380226 352.459064 
L 874.678273 353.2239 
L 892.976319 353.2239 
L 911.274366 353.2239 
L 929.572413 351.694227 
L 947.870459 353.2239 
" style="fill:none;stroke:#5cb85c;stroke-linecap:square;"/>
   </g>
   <g id="line2d_11">
    <path clip-path="url(#p6c48430f18)" d="M 42.117148 353.2239 
L 51.266172 353.2239 
L 60.415195 353.2239 
L 69.564218 353.2239 
L 78.713242 353.2239 
L 87.862265 353.2239 
L 97.011288 353.2239 
L 106.160312 336.55544 
L 115.309335 353.2239 
L 124.458358 353.2239 
L 142.756405 353.109732 
L 161.054452 353.2239 
L 179.352499 353.2239 
L 197.650545 353.2239 
L 215.948592 353.2239 
L 234.246639 353.2239 
L 252.544685 353.2239 
L 270.842732 353.2239 
L 289.140779 353.2239 
L 307.438825 353.2239 
L 325.736872 353.2239 
L 344.034919 353.2239 
L 362.332965 353.106897 
L 380.631012 353.2239 
L 398.929059 353.2239 
L 417.227105 353.2239 
L 435.525152 353.2239 
L 453.823199 353.2239 
L 472.121246 353.2239 
L 490.419292 353.2239 
L 508.717339 353.2239 
L 527.015386 353.2239 
L 545.313432 353.2239 
L 563.611479 353.2239 
L 581.909526 353.2239 
L 600.207572 353.2239 
L 618.505619 353.2239 
L 636.803666 353.2239 
L 655.101712 353.2239 
L 673.399759 353.2239 
L 691.697806 352.974904 
L 709.995852 344.260041 
L 728.293899 353.2239 
L 746.591946 353.2239 
L 764.889993 353.2239 
L 783.188039 353.2239 
L 801.486086 353.2239 
L 819.784133 353.2239 
L 838.082179 346.127512 
L 856.380226 353.2239 
L 874.678273 353.099402 
L 892.976319 353.2239 
L 911.274366 353.2239 
L 929.572413 353.099402 
L 947.870459 352.974904 
" style="fill:none;stroke:#5cb85c;stroke-linecap:square;"/>
   </g>
   <g id="line2d_12">
    <path clip-path="url(#p6c48430f18)" d="M 42.117148 353.2239 
L 51.266172 353.2239 
L 60.415195 353.2239 
L 69.564218 353.2239 
L 78.713242 353.2239 
L 87.862265 353.2239 
L 97.011288 353.2239 
L 106.160312 352.538895 
L 115.309335 353.2239 
L 124.458358 353.2239 
L 142.756405 353.109732 
L 161.054452 353.2239 
L 179.352499 353.2239 
L 197.650545 353.2239 
L 215.948592 353.2239 
L 234.246639 352.881397 
L 252.544685 353.109732 
L 270.842732 352.881397 
L 289.140779 353.2239 
L 307.438825 353.2239 
L 325.736872 353.108046 
L 344.034919 353.2239 
L 362.332965 353.2239 
L 380.631012 353.2239 
L 398.929059 353.101011 
L 417.227105 353.2239 
L 435.525152 353.2239 
L 453.823199 349.992321 
L 472.121246 353.2239 
L 490.419292 353.2239 
L 508.717339 353.2239 
L 527.015386 348.446326 
L 545.313432 353.087228 
L 563.611479 353.2239 
L 581.909526 353.2239 
L 600.207572 353.2239 
L 618.505619 353.2239 
L 636.803666 352.95032 
L 655.101712 353.08711 
L 673.399759 353.2239 
L 691.697806 352.81353 
L 709.995852 352.95032 
L 728.293899 353.08711 
L 746.591946 353.2239 
L 764.889993 353.2239 
L 783.188039 353.2239 
L 801.486086 353.2239 
L 819.784133 353.2239 
L 838.082179 353.2239 
L 856.380226 353.2239 
L 874.678273 353.08711 
L 892.976319 353.2239 
L 911.274366 353.2239 
L 929.572413 353.2239 
L 947.870459 353.2239 
" style="fill:none;stroke:#5cb85c;stroke-linecap:square;"/>
   </g>
   <g id="line2d_13">
    <path clip-path="url(#p6c48430f18)" d="M 42.117148 353.2239 
L 51.266172 353.2239 
L 60.415195 353.2239 
L 69.564218 353.212119 
L 78.713242 353.212119 
L 87.862265 353.117875 
L 97.011288 353.200339 
L 106.160312 353.176778 
L 115.309335 353.153216 
L 124.458358 353.159107 
L 142.756405 353.182668 
L 161.054452 353.194449 
L 179.352499 353.176778 
L 197.650545 353.153216 
L 215.948592 353.176778 
L 234.246639 353.135546 
L 252.544685 353.141436 
L 270.842732 353.164997 
L 289.140779 353.094314 
L 307.438825 353.147112 
L 325.736872 353.050833 
L 344.034919 353.097745 
L 362.332965 353.163758 
L 380.631012 353.13366 
L 398.929059 353.091541 
L 417.227105 353.145684 
L 435.525152 353.079497 
L 453.823199 352.983219 
L 472.121246 353.145676 
L 490.419292 352.682333 
L 508.717339 353.103549 
L 527.015386 353.031337 
L 545.313432 353.115583 
L 563.611479 345.659731 
L 581.909526 353.061412 
L 600.207572 353.080506 
L 618.505619 351.551704 
L 636.803666 353.2239 
L 655.101712 353.2239 
L 673.399759 353.2239 
L 691.697806 353.2239 
L 709.995852 353.2239 
L 728.293899 353.2239 
L 746.591946 353.2239 
L 764.889993 353.2239 
L 783.188039 353.2239 
L 801.486086 353.2239 
L 819.784133 353.2239 
L 838.082179 353.2239 
L 856.380226 353.2239 
L 874.678273 353.2239 
L 892.976319 353.2239 
L 911.274366 344.641768 
L 929.572413 353.2239 
L 947.870459 353.2239 
" style="fill:none;stroke:#5cb85c;stroke-linecap:square;"/>
   </g>
   <g id="line2d_14">
    <path clip-path="url(#p6c48430f18)" d="M 42.117148 353.176778 
L 51.266172 353.2239 
L 60.415195 353.212119 
L 69.564218 353.2239 
L 78.713242 353.2239 
L 87.862265 353.212119 
L 97.011288 353.212119 
L 106.160312 353.212119 
L 115.309335 353.2239 
L 124.458358 353.21801 
L 142.756405 353.21801 
L 161.054452 353.212119 
L 179.352499 353.188558 
L 197.650545 353.206229 
L 215.948592 353.212119 
L 234.246639 353.21801 
L 252.544685 353.212119 
L 270.842732 353.2239 
L 289.140779 353.2239 
L 307.438825 353.2239 
L 325.736872 353.19411 
L 344.034919 353.211876 
L 362.332965 353.187484 
L 380.631012 353.193276 
L 398.929059 353.19929 
L 417.227105 353.199271 
L 435.525152 353.069937 
L 453.823199 353.21774 
L 472.121246 353.193097 
L 490.419292 353.205416 
L 508.717339 353.19309 
L 527.015386 353.199251 
L 545.313432 353.217738 
L 563.611479 353.205414 
L 581.909526 353.082171 
L 600.207572 353.076008 
L 618.505619 353.199251 
L 636.803666 353.217738 
L 655.101712 353.193089 
L 673.399759 353.180736 
L 691.697806 352.555573 
L 709.995852 352.994345 
L 728.293899 352.97274 
L 746.591946 352.96924 
L 764.889993 352.96924 
L 783.188039 353.2239 
L 801.486086 353.2239 
L 819.784133 353.2239 
L 838.082179 352.96924 
L 856.380226 352.714581 
L 874.678273 353.2239 
L 892.976319 353.2239 
L 911.274366 353.2239 
L 929.572413 351.695942 
L 947.870459 353.2239 
" style="fill:none;stroke:#5cb85c;stroke-linecap:square;"/>
   </g>
   <g id="line2d_15">
    <path clip-path="url(#p6c48430f18)" d="M 42.117148 353.2239 
L 51.266172 353.2239 
L 60.415195 353.2239 
L 69.564218 353.2239 
L 78.713242 353.2239 
L 87.862265 353.2239 
L 97.011288 353.2239 
L 106.160312 353.2239 
L 115.309335 353.2239 
L 124.458358 353.071933 
L 142.756405 353.185908 
L 161.054452 353.109925 
L 179.352499 353.109925 
L 197.650545 353.071933 
L 215.948592 353.033941 
L 234.246639 353.033941 
L 252.544685 353.071933 
L 270.842732 352.881974 
L 289.140779 352.99595 
L 307.438825 353.071566 
L 325.736872 353.2239 
L 344.034919 353.2239 
L 362.332965 353.184934 
L 380.631012 353.2239 
L 398.929059 353.2239 
L 417.227105 353.2239 
L 435.525152 353.2239 
L 453.823199 353.2239 
L 472.121246 353.2239 
L 490.419292 353.2239 
L 508.717339 353.2239 
L 527.015386 353.2239 
L 545.313432 353.182143 
L 563.611479 353.098618 
L 581.909526 353.2239 
L 600.207572 353.098609 
L 618.505619 353.182134 
L 636.803666 353.098602 
L 655.101712 353.182134 
L 673.399759 353.2239 
L 691.697806 353.182134 
L 709.995852 353.098602 
L 728.293899 353.2239 
L 746.591946 353.2239 
L 764.889993 353.2239 
L 783.188039 353.140368 
L 801.486086 353.098602 
L 819.784133 353.182134 
L 838.082179 353.182134 
L 856.380226 353.2239 
L 874.678273 353.2239 
L 892.976319 353.2239 
L 911.274366 353.2239 
L 929.572413 353.2239 
L 947.870459 353.2239 
" style="fill:none;stroke:#5cb85c;stroke-linecap:square;"/>
   </g>
   <g id="line2d_16">
    <path clip-path="url(#p6c48430f18)" d="M 42.117148 353.2239 
L 51.266172 353.2239 
L 60.415195 353.2239 
L 69.564218 353.147917 
L 78.713242 353.147917 
L 87.862265 353.2239 
L 97.011288 353.2239 
L 106.160312 353.071933 
L 115.309335 352.99595 
L 124.458358 349.842636 
L 142.756405 353.147917 
L 161.054452 353.147917 
L 179.352499 353.109925 
L 197.650545 353.185908 
L 215.948592 353.2239 
L 234.246639 353.185908 
L 252.544685 353.147917 
L 270.842732 350.526487 
L 289.140779 353.2239 
L 307.438825 353.2239 
L 325.736872 353.2239 
L 344.034919 350.525196 
L 362.332965 353.2239 
L 380.631012 350.477365 
L 398.929059 353.182781 
L 417.227105 350.378811 
L 435.525152 353.2239 
L 453.823199 353.2239 
L 472.121246 353.2239 
L 490.419292 353.2239 
L 508.717339 353.2239 
L 527.015386 353.177904 
L 545.313432 353.2239 
L 563.611479 349.443013 
L 581.909526 353.2239 
L 600.207572 349.441038 
L 618.505619 353.2239 
L 636.803666 349.440709 
L 655.101712 353.2239 
L 673.399759 353.2239 
L 691.697806 353.177762 
L 709.995852 349.440599 
L 728.293899 353.2239 
L 746.591946 353.2239 
L 764.889993 353.2239 
L 783.188039 353.2239 
L 801.486086 353.2239 
L 819.784133 353.2239 
L 838.082179 353.2239 
L 856.380226 350.132666 
L 874.678273 353.2239 
L 892.976319 353.177762 
L 911.274366 353.2239 
L 929.572413 353.177762 
L 947.870459 353.131624 
" style="fill:none;stroke:#5cb85c;stroke-linecap:square;"/>
   </g>
   <g id="line2d_17">
    <path clip-path="url(#p6c48430f18)" d="M 42.117148 353.2239 
L 51.266172 353.2239 
L 60.415195 353.2239 
L 69.564218 353.213537 
L 78.713242 353.213537 
L 87.862265 353.109905 
L 97.011288 353.161721 
L 106.160312 353.182447 
L 115.309335 353.161721 
L 124.458358 353.151358 
L 142.756405 353.177266 
L 161.054452 353.187629 
L 179.352499 353.166903 
L 197.650545 353.161721 
L 215.948592 353.172084 
L 234.246639 353.135813 
L 252.544685 353.156539 
L 270.842732 353.177266 
L 289.140779 353.120268 
L 307.438825 353.140761 
L 325.736872 353.076884 
L 344.034919 353.123482 
L 362.332965 353.165698 
L 380.631012 353.139219 
L 398.929059 353.102164 
L 417.227105 353.149796 
L 435.525152 353.096861 
L 453.823199 352.99628 
L 472.121246 353.155083 
L 490.419292 352.636287 
L 508.717339 353.133903 
L 527.015386 353.038611 
L 545.313432 353.133902 
L 563.611479 345.674643 
L 581.909526 353.065069 
L 600.207572 353.087239 
L 618.505619 351.755565 
L 636.803666 353.2239 
L 655.101712 353.2239 
L 673.399759 353.2239 
L 691.697806 353.2239 
L 709.995852 353.2239 
L 728.293899 353.2239 
L 746.591946 353.2239 
L 764.889993 353.2239 
L 783.188039 353.2239 
L 801.486086 353.2239 
L 819.784133 353.2239 
L 838.082179 353.2239 
L 856.380226 353.2239 
L 874.678273 353.2239 
L 892.976319 353.2239 
L 911.274366 341.955099 
L 929.572413 353.2239 
L 947.870459 353.2239 
" style="fill:none;stroke:#5cb85c;stroke-linecap:square;"/>
   </g>
   <g id="line2d_18">
    <path clip-path="url(#p6c48430f18)" d="M 42.117148 353.182447 
L 51.266172 353.2239 
L 60.415195 353.203174 
L 69.564218 353.213537 
L 78.713242 353.2239 
L 87.862265 353.213537 
L 97.011288 353.213537 
L 106.160312 353.213537 
L 115.309335 353.2239 
L 124.458358 353.208355 
L 142.756405 353.218718 
L 161.054452 353.213537 
L 179.352499 353.19281 
L 197.650545 353.213537 
L 215.948592 353.203174 
L 234.246639 353.213537 
L 252.544685 353.213537 
L 270.842732 353.2239 
L 289.140779 353.213537 
L 307.438825 353.2239 
L 325.736872 353.197696 
L 344.034919 353.213323 
L 362.332965 353.191872 
L 380.631012 353.196965 
L 398.929059 353.207665 
L 417.227105 353.202237 
L 435.525152 353.028891 
L 453.823199 353.207647 
L 472.121246 353.202226 
L 490.419292 353.202223 
L 508.717339 353.185962 
L 527.015386 353.1968 
L 545.313432 353.21848 
L 563.611479 353.20222 
L 581.909526 353.072141 
L 600.207572 353.093821 
L 618.505619 353.20222 
L 636.803666 353.21306 
L 655.101712 353.1968 
L 673.399759 353.175089 
L 691.697806 352.538108 
L 709.995852 353.02116 
L 728.293899 353.001902 
L 746.591946 352.998949 
L 764.889993 352.998949 
L 783.188039 353.2239 
L 801.486086 353.2239 
L 819.784133 353.2239 
L 838.082179 352.773998 
L 856.380226 352.549048 
L 874.678273 353.2239 
L 892.976319 353.2239 
L 911.274366 353.2239 
L 929.572413 351.649244 
L 947.870459 353.2239 
" style="fill:none;stroke:#5cb85c;stroke-linecap:square;"/>
   </g>
   <g id="line2d_19">
    <path clip-path="url(#p6c48430f18)" d="M 42.117148 353.2239 
L 51.266172 353.2239 
L 60.415195 353.2239 
L 69.564218 353.2239 
L 78.713242 353.2239 
L 87.862265 353.2239 
L 97.011288 353.2239 
L 106.160312 353.155009 
L 115.309335 353.2239 
L 124.458358 353.2239 
L 142.756405 353.155009 
L 161.054452 353.2239 
L 179.352499 353.155009 
L 197.650545 353.2239 
L 215.948592 353.086119 
L 234.246639 353.017228 
L 252.544685 353.017228 
L 270.842732 352.982783 
L 289.140779 353.120564 
L 307.438825 353.120328 
L 325.736872 353.2239 
L 344.034919 353.2239 
L 362.332965 353.188615 
L 380.631012 353.2239 
L 398.929059 353.188062 
L 417.227105 353.18776 
L 435.525152 353.187449 
L 453.823199 353.187165 
L 472.121246 353.186885 
L 490.419292 353.074682 
L 508.717339 353.111259 
L 527.015386 353.2239 
L 545.313432 353.2239 
L 563.611479 353.2239 
L 581.909526 353.2239 
L 600.207572 353.186224 
L 618.505619 353.186224 
L 636.803666 353.2239 
L 655.101712 353.186224 
L 673.399759 353.186224 
L 691.697806 353.2239 
L 709.995852 353.148548 
L 728.293899 353.2239 
L 746.591946 353.148548 
L 764.889993 353.2239 
L 783.188039 353.186224 
L 801.486086 353.2239 
L 819.784133 353.186224 
L 838.082179 353.186224 
L 856.380226 353.148548 
L 874.678273 353.2239 
L 892.976319 353.2239 
L 911.274366 353.148548 
L 929.572413 353.110872 
L 947.870459 353.148548 
" style="fill:none;stroke:#5cb85c;stroke-linecap:square;"/>
   </g>
   <g id="line2d_20">
    <path clip-path="url(#p6c48430f18)" d="M 42.117148 353.2239 
L 51.266172 353.017228 
L 60.415195 353.086119 
L 69.564218 353.017228 
L 78.713242 353.155009 
L 87.862265 353.2239 
L 97.011288 353.086119 
L 106.160312 353.2239 
L 115.309335 353.086119 
L 124.458358 350.433831 
L 142.756405 353.155009 
L 161.054452 353.189455 
L 179.352499 353.155009 
L 197.650545 353.2239 
L 215.948592 353.189455 
L 234.246639 353.120564 
L 252.544685 353.189455 
L 270.842732 350.468276 
L 289.140779 353.2239 
L 307.438825 353.2239 
L 325.736872 353.2239 
L 344.034919 350.426616 
L 362.332965 353.2239 
L 380.631012 350.339721 
L 398.929059 353.2239 
L 417.227105 350.31767 
L 435.525152 353.2239 
L 453.823199 353.2239 
L 472.121246 353.2239 
L 490.419292 353.2239 
L 508.717339 353.2239 
L 527.015386 353.2239 
L 545.313432 353.2239 
L 563.611479 350.032636 
L 581.909526 353.2239 
L 600.207572 350.030888 
L 618.505619 353.2239 
L 636.803666 350.030534 
L 655.101712 353.2239 
L 673.399759 353.2239 
L 691.697806 353.140953 
L 709.995852 349.988977 
L 728.293899 353.2239 
L 746.591946 353.2239 
L 764.889993 353.2239 
L 783.188039 353.2239 
L 801.486086 353.2239 
L 819.784133 353.182426 
L 838.082179 353.2239 
L 856.380226 350.154831 
L 874.678273 353.2239 
L 892.976319 353.2239 
L 911.274366 353.2239 
L 929.572413 353.099478 
L 947.870459 353.140952 
" style="fill:none;stroke:#5cb85c;stroke-linecap:square;"/>
   </g>
   <g id="line2d_21">
    <path clip-path="url(#p6c48430f18)" d="M 42.117148 353.2239 
L 51.266172 353.2239 
L 60.415195 353.2239 
L 69.564218 353.213537 
L 78.713242 353.213537 
L 87.862265 353.109907 
L 97.011288 353.161722 
L 106.160312 353.182448 
L 115.309335 353.161722 
L 124.458358 353.151359 
L 142.756405 353.177267 
L 161.054452 353.18763 
L 179.352499 353.177267 
L 197.650545 353.161722 
L 215.948592 353.172085 
L 234.246639 353.140996 
L 252.544685 353.166904 
L 270.842732 353.172085 
L 289.140779 353.104726 
L 307.438825 353.140764 
L 325.736872 353.061139 
L 344.034919 353.112915 
L 362.332965 353.1657 
L 380.631012 353.139222 
L 398.929059 353.096874 
L 417.227105 353.149798 
L 435.525152 353.096864 
L 453.823199 352.980406 
L 472.121246 353.149791 
L 490.419292 352.646889 
L 508.717339 353.123317 
L 527.015386 353.043908 
L 545.313432 353.123316 
L 563.611479 345.621854 
L 581.909526 353.075661 
L 600.207572 353.097752 
L 618.505619 351.75012 
L 636.803666 353.2239 
L 655.101712 353.2239 
L 673.399759 353.2239 
L 691.697806 353.2239 
L 709.995852 353.2239 
L 728.293899 353.2239 
L 746.591946 353.2239 
L 764.889993 353.2239 
L 783.188039 353.2239 
L 801.486086 353.2239 
L 819.784133 353.2239 
L 838.082179 353.2239 
L 856.380226 353.2239 
L 874.678273 353.2239 
L 892.976319 353.2239 
L 911.274366 341.881403 
L 929.572413 353.2239 
L 947.870459 353.2239 
" style="fill:none;stroke:#5cb85c;stroke-linecap:square;"/>
   </g>
   <g id="line2d_22">
    <path clip-path="url(#p6c48430f18)" d="M 42.117148 353.182448 
L 51.266172 353.2239 
L 60.415195 353.203174 
L 69.564218 353.213537 
L 78.713242 353.2239 
L 87.862265 353.213537 
L 97.011288 353.213537 
L 106.160312 353.213537 
L 115.309335 353.2239 
L 124.458358 353.213537 
L 142.756405 353.2239 
L 161.054452 353.213537 
L 179.352499 353.192811 
L 197.650545 353.203174 
L 215.948592 353.203174 
L 234.246639 353.213537 
L 252.544685 353.208356 
L 270.842732 353.2239 
L 289.140779 353.213537 
L 307.438825 353.2239 
L 325.736872 353.197696 
L 344.034919 353.213323 
L 362.332965 353.186532 
L 380.631012 353.196964 
L 398.929059 353.202252 
L 417.227105 353.202236 
L 435.525152 353.039717 
L 453.823199 353.213064 
L 472.121246 353.202225 
L 490.419292 353.196803 
L 508.717339 353.1968 
L 527.015386 353.196799 
L 545.313432 353.21848 
L 563.611479 353.202219 
L 581.909526 353.072135 
L 600.207572 353.088395 
L 618.505619 353.202219 
L 636.803666 353.21306 
L 655.101712 353.202219 
L 673.399759 353.175087 
L 691.697806 352.527203 
L 709.995852 353.021205 
L 728.293899 353.002033 
L 746.591946 353.2239 
L 764.889993 352.998981 
L 783.188039 353.2239 
L 801.486086 353.2239 
L 819.784133 353.2239 
L 838.082179 352.774062 
L 856.380226 352.549143 
L 874.678273 353.2239 
L 892.976319 353.2239 
L 911.274366 353.2239 
L 929.572413 351.649467 
L 947.870459 353.2239 
" style="fill:none;stroke:#5cb85c;stroke-linecap:square;"/>
   </g>
   <g id="line2d_23">
    <path clip-path="url(#p6c48430f18)" d="M 32.968125 353.2239 
L 993.158125 353.2239 
" style="fill:none;stroke:#dedede;stroke-linecap:square;stroke-width:2;"/>
   </g>
   <g id="text_15">
    <!-- FastQC: Per Base N Content -->
    <g transform="translate(402.209375 19.3575)scale(0.16 -0.16)">
     <defs>
      <path d="M 628 4666 
L 3309 4666 
L 3309 4134 
L 1259 4134 
L 1259 2759 
L 3109 2759 
L 3109 2228 
L 1259 2228 
L 1259 0 
L 628 0 
L 628 4666 
z
" id="DejaVuSans-46" transform="scale(0.015625)"/>
      <path d="M 2522 4238 
Q 1834 4238 1429 3725 
Q 1025 3213 1025 2328 
Q 1025 1447 1429 934 
Q 1834 422 2522 422 
Q 3209 422 3611 934 
Q 4013 1447 4013 2328 
Q 4013 3213 3611 3725 
Q 3209 4238 2522 4238 
z
M 3406 84 
L 4238 -825 
L 3475 -825 
L 2784 -78 
Q 2681 -84 2626 -87 
Q 2572 -91 2522 -91 
Q 1538 -91 948 567 
Q 359 1225 359 2328 
Q 359 3434 948 4092 
Q 1538 4750 2522 4750 
Q 3503 4750 4090 4092 
Q 4678 3434 4678 2328 
Q 4678 1516 4351 937 
Q 4025 359 3406 84 
z
" id="DejaVuSans-51" transform="scale(0.015625)"/>
      <path d="M 750 794 
L 1409 794 
L 1409 0 
L 750 0 
L 750 794 
z
M 750 3309 
L 1409 3309 
L 1409 2516 
L 750 2516 
L 750 3309 
z
" id="DejaVuSans-3a" transform="scale(0.015625)"/>
      <path d="M 1259 2228 
L 1259 519 
L 2272 519 
Q 2781 519 3026 730 
Q 3272 941 3272 1375 
Q 3272 1813 3026 2020 
Q 2781 2228 2272 2228 
L 1259 2228 
z
M 1259 4147 
L 1259 2741 
L 2194 2741 
Q 2656 2741 2882 2914 
Q 3109 3088 3109 3444 
Q 3109 3797 2882 3972 
Q 2656 4147 2194 4147 
L 1259 4147 
z
M 628 4666 
L 2241 4666 
Q 2963 4666 3353 4366 
Q 3744 4066 3744 3513 
Q 3744 3084 3544 2831 
Q 3344 2578 2956 2516 
Q 3422 2416 3680 2098 
Q 3938 1781 3938 1306 
Q 3938 681 3513 340 
Q 3088 0 2303 0 
L 628 0 
L 628 4666 
z
" id="DejaVuSans-42" transform="scale(0.015625)"/>
     </defs>
     <use xlink:href="#DejaVuSans-46"/>
     <use x="48.394531" xlink:href="#DejaVuSans-61"/>
     <use x="109.673828" xlink:href="#DejaVuSans-73"/>
     <use x="161.773438" xlink:href="#DejaVuSans-74"/>
     <use x="200.982422" xlink:href="#DejaVuSans-51"/>
     <use x="279.693359" xlink:href="#DejaVuSans-43"/>
     <use x="349.517578" xlink:href="#DejaVuSans-3a"/>
     <use x="383.208984" xlink:href="#DejaVuSans-20"/>
     <use x="414.996094" xlink:href="#DejaVuSans-50"/>
     <use x="471.673828" xlink:href="#DejaVuSans-65"/>
     <use x="533.197266" xlink:href="#DejaVuSans-72"/>
     <use x="574.310547" xlink:href="#DejaVuSans-20"/>
     <use x="606.097656" xlink:href="#DejaVuSans-42"/>
     <use x="674.701172" xlink:href="#DejaVuSans-61"/>
     <use x="735.980469" xlink:href="#DejaVuSans-73"/>
     <use x="788.080078" xlink:href="#DejaVuSans-65"/>
     <use x="849.603516" xlink:href="#DejaVuSans-20"/>
     <use x="881.390625" xlink:href="#DejaVuSans-4e"/>
     <use x="956.195312" xlink:href="#DejaVuSans-20"/>
     <use x="987.982422" xlink:href="#DejaVuSans-43"/>
     <use x="1057.806641" xlink:href="#DejaVuSans-6f"/>
     <use x="1118.988281" xlink:href="#DejaVuSans-6e"/>
     <use x="1182.367188" xlink:href="#DejaVuSans-74"/>
     <use x="1221.576172" xlink:href="#DejaVuSans-65"/>
     <use x="1283.099609" xlink:href="#DejaVuSans-6e"/>
     <use x="1346.478516" xlink:href="#DejaVuSans-74"/>
    </g>
   </g>
  </g>
 </g>
 <defs>
  <clipPath id="p6c48430f18">
   <rect height="317.968" width="960.19" x="32.968125" y="35.2559"/>
  </clipPath>
 </defs>
</svg>
