<?xml version="1.0" encoding="utf-8" standalone="no"?>
<!DOCTYPE svg PUBLIC "-//W3C//DTD SVG 1.1//EN"
  "http://www.w3.org/Graphics/SVG/1.1/DTD/svg11.dtd">
<svg height="388.844525pt" version="1.1" viewBox="0 0 1000.138125 388.844525" width="1000.138125pt" xmlns="http://www.w3.org/2000/svg" xmlns:xlink="http://www.w3.org/1999/xlink">
 <metadata>
  <rdf:RDF xmlns:cc="http://creativecommons.org/ns#" xmlns:dc="http://purl.org/dc/elements/1.1/" xmlns:rdf="http://www.w3.org/1999/02/22-rdf-syntax-ns#">
   <cc:Work>
    <dc:type rdf:resource="http://purl.org/dc/dcmitype/StillImage"/>
    <dc:date>2021-08-19T14:46:57.016572</dc:date>
    <dc:format>image/svg+xml</dc:format>
    <dc:creator>
     <cc:Agent>
      <dc:title>Matplotlib v3.4.3, https://matplotlib.org/</dc:title>
     </cc:Agent>
    </dc:creator>
   </cc:Work>
  </rdf:RDF>
 </metadata>
 <defs>
  <style type="text/css">*{stroke-linecap:butt;stroke-linejoin:round;}</style>
 </defs>
 <g id="figure_1">
  <g id="axes_1">
   <g id="patch_1">
    <path d="M 53.328125 353.2239 
L 985.303125 353.2239 
L 985.303125 35.2559 
L 53.328125 35.2559 
z
" style="fill:#ffffff;"/>
   </g>
   <g id="matplotlib.axis_1">
    <g id="xtick_1">
     <g id="text_1">
      <!-- 0 -->
      <g transform="translate(50.783125 366.30265)scale(0.08 -0.08)">
       <defs>
        <path d="M 2034 4250 
Q 1547 4250 1301 3770 
Q 1056 3291 1056 2328 
Q 1056 1369 1301 889 
Q 1547 409 2034 409 
Q 2525 409 2770 889 
Q 3016 1369 3016 2328 
Q 3016 3291 2770 3770 
Q 2525 4250 2034 4250 
z
M 2034 4750 
Q 2819 4750 3233 4129 
Q 3647 3509 3647 2328 
Q 3647 1150 3233 529 
Q 2819 -91 2034 -91 
Q 1250 -91 836 529 
Q 422 1150 422 2328 
Q 422 3509 836 4129 
Q 1250 4750 2034 4750 
z
" id="DejaVuSans-30" transform="scale(0.015625)"/>
       </defs>
       <use xlink:href="#DejaVuSans-30"/>
      </g>
     </g>
    </g>
    <g id="xtick_2">
     <g id="text_2">
      <!-- 20 -->
      <g transform="translate(234.633125 366.30265)scale(0.08 -0.08)">
       <defs>
        <path d="M 1228 531 
L 3431 531 
L 3431 0 
L 469 0 
L 469 531 
Q 828 903 1448 1529 
Q 2069 2156 2228 2338 
Q 2531 2678 2651 2914 
Q 2772 3150 2772 3378 
Q 2772 3750 2511 3984 
Q 2250 4219 1831 4219 
Q 1534 4219 1204 4116 
Q 875 4013 500 3803 
L 500 4441 
Q 881 4594 1212 4672 
Q 1544 4750 1819 4750 
Q 2544 4750 2975 4387 
Q 3406 4025 3406 3419 
Q 3406 3131 3298 2873 
Q 3191 2616 2906 2266 
Q 2828 2175 2409 1742 
Q 1991 1309 1228 531 
z
" id="DejaVuSans-32" transform="scale(0.015625)"/>
       </defs>
       <use xlink:href="#DejaVuSans-32"/>
       <use x="63.623047" xlink:href="#DejaVuSans-30"/>
      </g>
     </g>
    </g>
    <g id="xtick_3">
     <g id="text_3">
      <!-- 40 -->
      <g transform="translate(421.028125 366.30265)scale(0.08 -0.08)">
       <defs>
        <path d="M 2419 4116 
L 825 1625 
L 2419 1625 
L 2419 4116 
z
M 2253 4666 
L 3047 4666 
L 3047 1625 
L 3713 1625 
L 3713 1100 
L 3047 1100 
L 3047 0 
L 2419 0 
L 2419 1100 
L 313 1100 
L 313 1709 
L 2253 4666 
z
" id="DejaVuSans-34" transform="scale(0.015625)"/>
       </defs>
       <use xlink:href="#DejaVuSans-34"/>
       <use x="63.623047" xlink:href="#DejaVuSans-30"/>
      </g>
     </g>
    </g>
    <g id="xtick_4">
     <g id="text_4">
      <!-- 60 -->
      <g transform="translate(607.423125 366.30265)scale(0.08 -0.08)">
       <defs>
        <path d="M 2113 2584 
Q 1688 2584 1439 2293 
Q 1191 2003 1191 1497 
Q 1191 994 1439 701 
Q 1688 409 2113 409 
Q 2538 409 2786 701 
Q 3034 994 3034 1497 
Q 3034 2003 2786 2293 
Q 2538 2584 2113 2584 
z
M 3366 4563 
L 3366 3988 
Q 3128 4100 2886 4159 
Q 2644 4219 2406 4219 
Q 1781 4219 1451 3797 
Q 1122 3375 1075 2522 
Q 1259 2794 1537 2939 
Q 1816 3084 2150 3084 
Q 2853 3084 3261 2657 
Q 3669 2231 3669 1497 
Q 3669 778 3244 343 
Q 2819 -91 2113 -91 
Q 1303 -91 875 529 
Q 447 1150 447 2328 
Q 447 3434 972 4092 
Q 1497 4750 2381 4750 
Q 2619 4750 2861 4703 
Q 3103 4656 3366 4563 
z
" id="DejaVuSans-36" transform="scale(0.015625)"/>
       </defs>
       <use xlink:href="#DejaVuSans-36"/>
       <use x="63.623047" xlink:href="#DejaVuSans-30"/>
      </g>
     </g>
    </g>
    <g id="xtick_5">
     <g id="text_5">
      <!-- 80 -->
      <g transform="translate(793.818125 366.30265)scale(0.08 -0.08)">
       <defs>
        <path d="M 2034 2216 
Q 1584 2216 1326 1975 
Q 1069 1734 1069 1313 
Q 1069 891 1326 650 
Q 1584 409 2034 409 
Q 2484 409 2743 651 
Q 3003 894 3003 1313 
Q 3003 1734 2745 1975 
Q 2488 2216 2034 2216 
z
M 1403 2484 
Q 997 2584 770 2862 
Q 544 3141 544 3541 
Q 544 4100 942 4425 
Q 1341 4750 2034 4750 
Q 2731 4750 3128 4425 
Q 3525 4100 3525 3541 
Q 3525 3141 3298 2862 
Q 3072 2584 2669 2484 
Q 3125 2378 3379 2068 
Q 3634 1759 3634 1313 
Q 3634 634 3220 271 
Q 2806 -91 2034 -91 
Q 1263 -91 848 271 
Q 434 634 434 1313 
Q 434 1759 690 2068 
Q 947 2378 1403 2484 
z
M 1172 3481 
Q 1172 3119 1398 2916 
Q 1625 2713 2034 2713 
Q 2441 2713 2670 2916 
Q 2900 3119 2900 3481 
Q 2900 3844 2670 4047 
Q 2441 4250 2034 4250 
Q 1625 4250 1398 4047 
Q 1172 3844 1172 3481 
z
" id="DejaVuSans-38" transform="scale(0.015625)"/>
       </defs>
       <use xlink:href="#DejaVuSans-38"/>
       <use x="63.623047" xlink:href="#DejaVuSans-30"/>
      </g>
     </g>
    </g>
    <g id="xtick_6">
     <g id="text_6">
      <!-- 100 -->
      <g transform="translate(977.668125 366.30265)scale(0.08 -0.08)">
       <defs>
        <path d="M 794 531 
L 1825 531 
L 1825 4091 
L 703 3866 
L 703 4441 
L 1819 4666 
L 2450 4666 
L 2450 531 
L 3481 531 
L 3481 0 
L 794 0 
L 794 531 
z
" id="DejaVuSans-31" transform="scale(0.015625)"/>
       </defs>
       <use xlink:href="#DejaVuSans-31"/>
       <use x="63.623047" xlink:href="#DejaVuSans-30"/>
       <use x="127.246094" xlink:href="#DejaVuSans-30"/>
      </g>
     </g>
    </g>
    <g id="text_7">
     <!-- % GC -->
     <g transform="translate(505.610156 379.564837)scale(0.1 -0.1)">
      <defs>
       <path d="M 4653 2053 
Q 4381 2053 4226 1822 
Q 4072 1591 4072 1178 
Q 4072 772 4226 539 
Q 4381 306 4653 306 
Q 4919 306 5073 539 
Q 5228 772 5228 1178 
Q 5228 1588 5073 1820 
Q 4919 2053 4653 2053 
z
M 4653 2450 
Q 5147 2450 5437 2106 
Q 5728 1763 5728 1178 
Q 5728 594 5436 251 
Q 5144 -91 4653 -91 
Q 4153 -91 3862 251 
Q 3572 594 3572 1178 
Q 3572 1766 3864 2108 
Q 4156 2450 4653 2450 
z
M 1428 4353 
Q 1159 4353 1004 4120 
Q 850 3888 850 3481 
Q 850 3069 1003 2837 
Q 1156 2606 1428 2606 
Q 1700 2606 1854 2837 
Q 2009 3069 2009 3481 
Q 2009 3884 1853 4118 
Q 1697 4353 1428 4353 
z
M 4250 4750 
L 4750 4750 
L 1831 -91 
L 1331 -91 
L 4250 4750 
z
M 1428 4750 
Q 1922 4750 2215 4408 
Q 2509 4066 2509 3481 
Q 2509 2891 2217 2550 
Q 1925 2209 1428 2209 
Q 931 2209 642 2551 
Q 353 2894 353 3481 
Q 353 4063 643 4406 
Q 934 4750 1428 4750 
z
" id="DejaVuSans-25" transform="scale(0.015625)"/>
       <path id="DejaVuSans-20" transform="scale(0.015625)"/>
       <path d="M 3809 666 
L 3809 1919 
L 2778 1919 
L 2778 2438 
L 4434 2438 
L 4434 434 
Q 4069 175 3628 42 
Q 3188 -91 2688 -91 
Q 1594 -91 976 548 
Q 359 1188 359 2328 
Q 359 3472 976 4111 
Q 1594 4750 2688 4750 
Q 3144 4750 3555 4637 
Q 3966 4525 4313 4306 
L 4313 3634 
Q 3963 3931 3569 4081 
Q 3175 4231 2741 4231 
Q 1884 4231 1454 3753 
Q 1025 3275 1025 2328 
Q 1025 1384 1454 906 
Q 1884 428 2741 428 
Q 3075 428 3337 486 
Q 3600 544 3809 666 
z
" id="DejaVuSans-47" transform="scale(0.015625)"/>
       <path d="M 4122 4306 
L 4122 3641 
Q 3803 3938 3442 4084 
Q 3081 4231 2675 4231 
Q 1875 4231 1450 3742 
Q 1025 3253 1025 2328 
Q 1025 1406 1450 917 
Q 1875 428 2675 428 
Q 3081 428 3442 575 
Q 3803 722 4122 1019 
L 4122 359 
Q 3791 134 3420 21 
Q 3050 -91 2638 -91 
Q 1578 -91 968 557 
Q 359 1206 359 2328 
Q 359 3453 968 4101 
Q 1578 4750 2638 4750 
Q 3056 4750 3426 4639 
Q 3797 4528 4122 4306 
z
" id="DejaVuSans-43" transform="scale(0.015625)"/>
      </defs>
      <use xlink:href="#DejaVuSans-25"/>
      <use x="95.019531" xlink:href="#DejaVuSans-20"/>
      <use x="126.806641" xlink:href="#DejaVuSans-47"/>
      <use x="204.296875" xlink:href="#DejaVuSans-43"/>
     </g>
    </g>
   </g>
   <g id="matplotlib.axis_2">
    <g id="ytick_1">
     <g id="line2d_1">
      <path clip-path="url(#pa6cf19a79a)" d="M 53.328125 353.2239 
L 985.303125 353.2239 
" style="fill:none;stroke:#dedede;stroke-linecap:square;"/>
     </g>
     <g id="text_8">
      <!-- 0 -->
      <g transform="translate(41.238125 356.263275)scale(0.08 -0.08)">
       <use xlink:href="#DejaVuSans-30"/>
      </g>
     </g>
    </g>
    <g id="ytick_2">
     <g id="line2d_2">
      <path clip-path="url(#pa6cf19a79a)" d="M 53.328125 305.933095 
L 985.303125 305.933095 
" style="fill:none;stroke:#dedede;stroke-linecap:square;"/>
     </g>
     <g id="text_9">
      <!-- 5000 -->
      <g transform="translate(25.968125 308.97247)scale(0.08 -0.08)">
       <defs>
        <path d="M 691 4666 
L 3169 4666 
L 3169 4134 
L 1269 4134 
L 1269 2991 
Q 1406 3038 1543 3061 
Q 1681 3084 1819 3084 
Q 2600 3084 3056 2656 
Q 3513 2228 3513 1497 
Q 3513 744 3044 326 
Q 2575 -91 1722 -91 
Q 1428 -91 1123 -41 
Q 819 9 494 109 
L 494 744 
Q 775 591 1075 516 
Q 1375 441 1709 441 
Q 2250 441 2565 725 
Q 2881 1009 2881 1497 
Q 2881 1984 2565 2268 
Q 2250 2553 1709 2553 
Q 1456 2553 1204 2497 
Q 953 2441 691 2322 
L 691 4666 
z
" id="DejaVuSans-35" transform="scale(0.015625)"/>
       </defs>
       <use xlink:href="#DejaVuSans-35"/>
       <use x="63.623047" xlink:href="#DejaVuSans-30"/>
       <use x="127.246094" xlink:href="#DejaVuSans-30"/>
       <use x="190.869141" xlink:href="#DejaVuSans-30"/>
      </g>
     </g>
    </g>
    <g id="ytick_3">
     <g id="line2d_3">
      <path clip-path="url(#pa6cf19a79a)" d="M 53.328125 258.642291 
L 985.303125 258.642291 
" style="fill:none;stroke:#dedede;stroke-linecap:square;"/>
     </g>
     <g id="text_10">
      <!-- 10000 -->
      <g transform="translate(20.878125 261.681666)scale(0.08 -0.08)">
       <use xlink:href="#DejaVuSans-31"/>
       <use x="63.623047" xlink:href="#DejaVuSans-30"/>
       <use x="127.246094" xlink:href="#DejaVuSans-30"/>
       <use x="190.869141" xlink:href="#DejaVuSans-30"/>
       <use x="254.492188" xlink:href="#DejaVuSans-30"/>
      </g>
     </g>
    </g>
    <g id="ytick_4">
     <g id="line2d_4">
      <path clip-path="url(#pa6cf19a79a)" d="M 53.328125 211.351486 
L 985.303125 211.351486 
" style="fill:none;stroke:#dedede;stroke-linecap:square;"/>
     </g>
     <g id="text_11">
      <!-- 15000 -->
      <g transform="translate(20.878125 214.390861)scale(0.08 -0.08)">
       <use xlink:href="#DejaVuSans-31"/>
       <use x="63.623047" xlink:href="#DejaVuSans-35"/>
       <use x="127.246094" xlink:href="#DejaVuSans-30"/>
       <use x="190.869141" xlink:href="#DejaVuSans-30"/>
       <use x="254.492188" xlink:href="#DejaVuSans-30"/>
      </g>
     </g>
    </g>
    <g id="ytick_5">
     <g id="line2d_5">
      <path clip-path="url(#pa6cf19a79a)" d="M 53.328125 164.060682 
L 985.303125 164.060682 
" style="fill:none;stroke:#dedede;stroke-linecap:square;"/>
     </g>
     <g id="text_12">
      <!-- 20000 -->
      <g transform="translate(20.878125 167.100057)scale(0.08 -0.08)">
       <use xlink:href="#DejaVuSans-32"/>
       <use x="63.623047" xlink:href="#DejaVuSans-30"/>
       <use x="127.246094" xlink:href="#DejaVuSans-30"/>
       <use x="190.869141" xlink:href="#DejaVuSans-30"/>
       <use x="254.492188" xlink:href="#DejaVuSans-30"/>
      </g>
     </g>
    </g>
    <g id="ytick_6">
     <g id="line2d_6">
      <path clip-path="url(#pa6cf19a79a)" d="M 53.328125 116.769877 
L 985.303125 116.769877 
" style="fill:none;stroke:#dedede;stroke-linecap:square;"/>
     </g>
     <g id="text_13">
      <!-- 25000 -->
      <g transform="translate(20.878125 119.809252)scale(0.08 -0.08)">
       <use xlink:href="#DejaVuSans-32"/>
       <use x="63.623047" xlink:href="#DejaVuSans-35"/>
       <use x="127.246094" xlink:href="#DejaVuSans-30"/>
       <use x="190.869141" xlink:href="#DejaVuSans-30"/>
       <use x="254.492188" xlink:href="#DejaVuSans-30"/>
      </g>
     </g>
    </g>
    <g id="ytick_7">
     <g id="line2d_7">
      <path clip-path="url(#pa6cf19a79a)" d="M 53.328125 69.479073 
L 985.303125 69.479073 
" style="fill:none;stroke:#dedede;stroke-linecap:square;"/>
     </g>
     <g id="text_14">
      <!-- 30000 -->
      <g transform="translate(20.878125 72.518448)scale(0.08 -0.08)">
       <defs>
        <path d="M 2597 2516 
Q 3050 2419 3304 2112 
Q 3559 1806 3559 1356 
Q 3559 666 3084 287 
Q 2609 -91 1734 -91 
Q 1441 -91 1130 -33 
Q 819 25 488 141 
L 488 750 
Q 750 597 1062 519 
Q 1375 441 1716 441 
Q 2309 441 2620 675 
Q 2931 909 2931 1356 
Q 2931 1769 2642 2001 
Q 2353 2234 1838 2234 
L 1294 2234 
L 1294 2753 
L 1863 2753 
Q 2328 2753 2575 2939 
Q 2822 3125 2822 3475 
Q 2822 3834 2567 4026 
Q 2313 4219 1838 4219 
Q 1578 4219 1281 4162 
Q 984 4106 628 3988 
L 628 4550 
Q 988 4650 1302 4700 
Q 1616 4750 1894 4750 
Q 2613 4750 3031 4423 
Q 3450 4097 3450 3541 
Q 3450 3153 3228 2886 
Q 3006 2619 2597 2516 
z
" id="DejaVuSans-33" transform="scale(0.015625)"/>
       </defs>
       <use xlink:href="#DejaVuSans-33"/>
       <use x="63.623047" xlink:href="#DejaVuSans-30"/>
       <use x="127.246094" xlink:href="#DejaVuSans-30"/>
       <use x="190.869141" xlink:href="#DejaVuSans-30"/>
       <use x="254.492188" xlink:href="#DejaVuSans-30"/>
      </g>
     </g>
    </g>
    <g id="text_15">
     <!-- Count -->
     <g transform="translate(14.798437 209.088338)rotate(-90)scale(0.1 -0.1)">
      <defs>
       <path d="M 1959 3097 
Q 1497 3097 1228 2736 
Q 959 2375 959 1747 
Q 959 1119 1226 758 
Q 1494 397 1959 397 
Q 2419 397 2687 759 
Q 2956 1122 2956 1747 
Q 2956 2369 2687 2733 
Q 2419 3097 1959 3097 
z
M 1959 3584 
Q 2709 3584 3137 3096 
Q 3566 2609 3566 1747 
Q 3566 888 3137 398 
Q 2709 -91 1959 -91 
Q 1206 -91 779 398 
Q 353 888 353 1747 
Q 353 2609 779 3096 
Q 1206 3584 1959 3584 
z
" id="DejaVuSans-6f" transform="scale(0.015625)"/>
       <path d="M 544 1381 
L 544 3500 
L 1119 3500 
L 1119 1403 
Q 1119 906 1312 657 
Q 1506 409 1894 409 
Q 2359 409 2629 706 
Q 2900 1003 2900 1516 
L 2900 3500 
L 3475 3500 
L 3475 0 
L 2900 0 
L 2900 538 
Q 2691 219 2414 64 
Q 2138 -91 1772 -91 
Q 1169 -91 856 284 
Q 544 659 544 1381 
z
M 1991 3584 
L 1991 3584 
z
" id="DejaVuSans-75" transform="scale(0.015625)"/>
       <path d="M 3513 2113 
L 3513 0 
L 2938 0 
L 2938 2094 
Q 2938 2591 2744 2837 
Q 2550 3084 2163 3084 
Q 1697 3084 1428 2787 
Q 1159 2491 1159 1978 
L 1159 0 
L 581 0 
L 581 3500 
L 1159 3500 
L 1159 2956 
Q 1366 3272 1645 3428 
Q 1925 3584 2291 3584 
Q 2894 3584 3203 3211 
Q 3513 2838 3513 2113 
z
" id="DejaVuSans-6e" transform="scale(0.015625)"/>
       <path d="M 1172 4494 
L 1172 3500 
L 2356 3500 
L 2356 3053 
L 1172 3053 
L 1172 1153 
Q 1172 725 1289 603 
Q 1406 481 1766 481 
L 2356 481 
L 2356 0 
L 1766 0 
Q 1100 0 847 248 
Q 594 497 594 1153 
L 594 3053 
L 172 3053 
L 172 3500 
L 594 3500 
L 594 4494 
L 1172 4494 
z
" id="DejaVuSans-74" transform="scale(0.015625)"/>
      </defs>
      <use xlink:href="#DejaVuSans-43"/>
      <use x="69.824219" xlink:href="#DejaVuSans-6f"/>
      <use x="131.005859" xlink:href="#DejaVuSans-75"/>
      <use x="194.384766" xlink:href="#DejaVuSans-6e"/>
      <use x="257.763672" xlink:href="#DejaVuSans-74"/>
     </g>
    </g>
   </g>
   <g id="line2d_8">
    <path clip-path="url(#pa6cf19a79a)" d="M 53.328125 353.2239 
L 62.647875 353.2239 
L 71.967625 353.2239 
L 81.287375 353.2239 
L 90.607125 353.2239 
L 99.926875 353.2239 
L 109.246625 353.200255 
L 118.566375 353.181338 
L 127.886125 353.200255 
L 137.205875 353.214442 
L 146.525625 353.209713 
L 155.845375 353.200255 
L 165.165125 353.167151 
L 174.484875 353.157693 
L 183.804625 353.105673 
L 193.124375 353.072569 
L 202.444125 353.06784 
L 211.763875 352.821928 
L 221.083625 352.717888 
L 230.403375 352.784096 
L 239.723125 352.273355 
L 249.042875 351.620742 
L 258.362625 351.266061 
L 267.682375 351.067439 
L 277.002125 350.334432 
L 286.321875 349.294034 
L 295.641625 348.877875 
L 304.961375 348.546839 
L 314.281125 347.624669 
L 323.600875 346.555897 
L 332.920625 345.35471 
L 342.240375 343.959631 
L 351.560125 343.136771 
L 360.879875 342.261892 
L 370.199625 341.027602 
L 379.519375 339.533212 
L 388.839125 338.327297 
L 398.158875 337.494978 
L 407.478625 336.525517 
L 416.798375 335.792509 
L 426.118125 334.9129 
L 435.437875 334.983837 
L 444.757625 335.239207 
L 454.077375 334.633885 
L 463.397125 334.40216 
L 472.716875 334.359598 
L 482.036625 334.364327 
L 491.356375 333.948168 
L 500.676125 334.085311 
L 509.995875 335.48039 
L 519.315625 335.801968 
L 528.635375 336.284334 
L 537.955125 337.12611 
L 547.274875 336.979509 
L 556.594625 337.097736 
L 565.914375 338.024635 
L 575.234125 338.951535 
L 584.553875 339.145427 
L 593.873625 340.398634 
L 603.193375 342.290266 
L 612.513125 343.467807 
L 621.832875 344.83924 
L 631.152625 346.139737 
L 640.472375 346.943681 
L 649.792125 348.007724 
L 659.111875 349.114329 
L 668.431625 349.93246 
L 677.751375 350.897192 
L 687.071125 351.616013 
L 696.390875 351.876112 
L 705.710625 352.230793 
L 715.030375 352.585474 
L 724.350125 352.646952 
L 733.669875 352.741534 
L 742.989625 353.006362 
L 752.309375 353.082028 
L 761.629125 353.086757 
L 770.948875 353.138777 
L 780.268625 353.17188 
L 789.588375 353.181338 
L 798.908125 353.209713 
L 808.227875 353.2239 
L 817.547625 353.2239 
L 826.867375 353.2239 
L 836.187125 353.2239 
L 845.506875 353.2239 
L 854.826625 353.2239 
L 864.146375 353.2239 
L 873.466125 353.2239 
L 882.785875 353.2239 
L 892.105625 353.2239 
L 901.425375 353.2239 
L 910.745125 353.2239 
L 920.064875 353.2239 
L 929.384625 353.2239 
L 938.704375 353.2239 
L 948.024125 353.2239 
L 957.343875 353.2239 
L 966.663625 353.2239 
L 975.983375 353.2239 
L 985.303125 353.2239 
" style="fill:none;stroke:#5cb85c;stroke-linecap:square;"/>
   </g>
   <g id="line2d_9">
    <path clip-path="url(#pa6cf19a79a)" d="M 53.328125 353.2239 
L 62.647875 353.2239 
L 71.967625 353.219171 
L 81.287375 353.219171 
L 90.607125 353.2239 
L 99.926875 353.2239 
L 109.246625 353.209713 
L 118.566375 353.200255 
L 127.886125 353.195526 
L 137.205875 353.176609 
L 146.525625 353.152964 
L 155.845375 353.115131 
L 165.165125 352.992175 
L 174.484875 352.878677 
L 183.804625 352.883406 
L 193.124375 352.803012 
L 202.444125 352.646952 
L 211.763875 352.542912 
L 221.083625 352.523996 
L 230.403375 352.533454 
L 239.723125 352.429414 
L 249.042875 352.131482 
L 258.362625 351.677491 
L 267.682375 351.308622 
L 277.002125 350.830985 
L 286.321875 350.320245 
L 295.641625 349.918273 
L 304.961375 349.322409 
L 314.281125 348.589401 
L 323.600875 347.752354 
L 332.920625 346.834912 
L 342.240375 346.007323 
L 351.560125 344.948009 
L 360.879875 343.869779 
L 370.199625 343.150959 
L 379.519375 342.313911 
L 388.839125 341.18839 
L 398.158875 340.034495 
L 407.478625 338.994097 
L 416.798375 337.986803 
L 426.118125 337.050445 
L 435.437875 336.492413 
L 444.757625 336.516059 
L 454.077375 336.322166 
L 463.397125 335.830342 
L 472.716875 335.272311 
L 482.036625 334.364327 
L 491.356375 333.943439 
L 500.676125 333.948168 
L 509.995875 333.640778 
L 519.315625 333.238806 
L 528.635375 333.191515 
L 537.955125 333.144224 
L 547.274875 332.780085 
L 556.594625 332.86048 
L 565.914375 333.555654 
L 575.234125 334.113686 
L 584.553875 334.662259 
L 593.873625 335.835071 
L 603.193375 336.97005 
L 612.513125 338.185424 
L 621.832875 339.533212 
L 631.152625 340.947207 
L 640.472375 342.484158 
L 649.792125 343.784655 
L 659.111875 345.170276 
L 668.431625 346.626833 
L 677.751375 347.71925 
L 687.071125 348.783293 
L 696.390875 349.705464 
L 705.710625 350.339161 
L 715.030375 351.039065 
L 724.350125 351.445766 
L 733.669875 351.790989 
L 742.989625 352.202419 
L 752.309375 352.476705 
L 761.629125 352.665869 
L 770.948875 352.873948 
L 780.268625 352.996904 
L 789.588375 353.025279 
L 798.908125 353.077299 
L 808.227875 353.138777 
L 817.547625 353.143506 
L 826.867375 353.11986 
L 836.187125 353.143506 
L 845.506875 353.186067 
L 854.826625 353.190796 
L 864.146375 353.204984 
L 873.466125 353.219171 
L 882.785875 353.219171 
L 892.105625 353.219171 
L 901.425375 353.219171 
L 910.745125 353.219171 
L 920.064875 353.219171 
L 929.384625 353.219171 
L 938.704375 353.2239 
L 948.024125 353.2239 
L 957.343875 353.2239 
L 966.663625 353.2239 
L 975.983375 353.2239 
L 985.303125 353.2239 
" style="fill:none;stroke:#f0ad4e;stroke-linecap:square;"/>
   </g>
   <g id="line2d_10">
    <path clip-path="url(#pa6cf19a79a)" d="M 53.328125 353.2239 
L 62.647875 353.200255 
L 71.967625 353.190796 
L 81.287375 353.204984 
L 90.607125 352.949613 
L 99.926875 352.694243 
L 109.246625 352.793554 
L 118.566375 352.921239 
L 127.886125 352.940155 
L 137.205875 352.769908 
L 146.525625 352.188231 
L 155.845375 351.748427 
L 165.165125 351.73424 
L 174.484875 351.729511 
L 183.804625 349.331867 
L 193.124375 345.591164 
L 202.444125 344.248105 
L 211.763875 341.675486 
L 221.083625 339.13124 
L 230.403375 336.255959 
L 239.723125 330.462836 
L 249.042875 327.40785 
L 258.362625 317.051164 
L 267.682375 301.208744 
L 277.002125 295.406162 
L 286.321875 285.843962 
L 295.641625 276.021662 
L 304.961375 265.258275 
L 314.281125 243.802437 
L 323.600875 232.414811 
L 332.920625 219.267967 
L 342.240375 201.434605 
L 351.560125 196.138035 
L 360.879875 179.822707 
L 370.199625 163.426985 
L 379.519375 154.980848 
L 388.839125 138.703353 
L 398.158875 130.493669 
L 407.478625 125.693652 
L 416.798375 120.803783 
L 426.118125 112.754888 
L 435.437875 98.094739 
L 444.757625 91.076783 
L 454.077375 89.364856 
L 463.397125 92.353635 
L 472.716875 96.382812 
L 482.036625 95.347143 
L 491.356375 94.382411 
L 500.676125 96.136899 
L 509.995875 98.421045 
L 519.315625 98.624396 
L 528.635375 103.764906 
L 537.955125 109.742464 
L 547.274875 111.033503 
L 556.594625 117.233327 
L 565.914375 123.177781 
L 575.234125 137.190047 
L 584.553875 159.090418 
L 593.873625 168.052026 
L 603.193375 179.44911 
L 612.513125 206.34339 
L 621.832875 223.089064 
L 631.152625 235.852852 
L 640.472375 248.626099 
L 649.792125 261.664173 
L 659.111875 282.547793 
L 668.431625 291.216197 
L 677.751375 301.757317 
L 687.071125 312.364645 
L 696.390875 319.89807 
L 705.710625 330.54323 
L 715.030375 334.231913 
L 724.350125 337.362564 
L 733.669875 342.692238 
L 742.989625 345.141902 
L 752.309375 347.132844 
L 761.629125 349.067038 
L 770.948875 349.563592 
L 780.268625 350.168914 
L 789.588375 350.381723 
L 798.908125 351.053252 
L 808.227875 352.107837 
L 817.547625 352.509809 
L 826.867375 352.552371 
L 836.187125 352.623307 
L 845.506875 352.755721 
L 854.826625 352.977988 
L 864.146375 353.072569 
L 873.466125 353.110402 
L 882.785875 353.157693 
L 892.105625 353.181338 
L 901.425375 353.209713 
L 910.745125 353.2239 
L 920.064875 353.2239 
L 929.384625 353.2239 
L 938.704375 353.2239 
L 948.024125 353.2239 
L 957.343875 353.2239 
L 966.663625 353.2239 
L 975.983375 353.2239 
L 985.303125 353.2239 
" style="fill:none;stroke:#5cb85c;stroke-linecap:square;"/>
   </g>
   <g id="line2d_11">
    <path clip-path="url(#pa6cf19a79a)" d="M 53.328125 353.176609 
L 62.647875 353.157693 
L 71.967625 353.157693 
L 81.287375 353.115131 
L 90.607125 353.039466 
L 99.926875 353.06784 
L 109.246625 352.987446 
L 118.566375 352.86449 
L 127.886125 352.694243 
L 137.205875 352.330104 
L 146.525625 352.055817 
L 155.845375 351.970694 
L 165.165125 351.398475 
L 174.484875 350.769507 
L 183.804625 350.296599 
L 193.124375 349.88044 
L 202.444125 349.743297 
L 211.763875 349.019747 
L 221.083625 347.407131 
L 230.403375 346.116092 
L 239.723125 344.191356 
L 249.042875 341.382283 
L 258.362625 339.968287 
L 267.682375 336.837636 
L 277.002125 330.822246 
L 286.321875 323.80902 
L 295.641625 319.467724 
L 304.961375 314.218444 
L 314.281125 305.271024 
L 323.600875 295.566951 
L 332.920625 289.277274 
L 342.240375 283.044346 
L 351.560125 271.122334 
L 360.879875 264.265168 
L 370.199625 256.996571 
L 379.519375 243.67948 
L 388.839125 230.892047 
L 398.158875 224.025422 
L 407.478625 217.09259 
L 416.798375 204.276782 
L 426.118125 192.454081 
L 435.437875 187.034555 
L 444.757625 181.217786 
L 454.077375 169.83016 
L 463.397125 164.472112 
L 472.716875 157.000165 
L 482.036625 147.054909 
L 491.356375 139.89981 
L 500.676125 134.418806 
L 509.995875 134.333682 
L 519.315625 131.605003 
L 528.635375 125.111975 
L 537.955125 122.265069 
L 547.274875 119.299936 
L 556.594625 114.064843 
L 565.914375 109.184432 
L 575.234125 106.536147 
L 584.553875 109.855962 
L 593.873625 119.077669 
L 603.193375 125.641632 
L 612.513125 135.591618 
L 621.832875 157.411595 
L 631.152625 179.865269 
L 640.472375 191.011711 
L 649.792125 202.664166 
L 659.111875 225.855576 
L 668.431625 248.881469 
L 677.751375 260.288011 
L 687.071125 270.649426 
L 696.390875 288.714514 
L 705.710625 297.515332 
L 715.030375 303.497619 
L 724.350125 315.145344 
L 733.669875 325.615528 
L 742.989625 330.231111 
L 752.309375 333.030726 
L 761.629125 337.561186 
L 770.948875 341.282972 
L 780.268625 343.207708 
L 789.588375 344.12042 
L 798.908125 346.082989 
L 808.227875 347.2558 
L 817.547625 348.386051 
L 826.867375 349.998667 
L 836.187125 351.024878 
L 845.506875 351.549806 
L 854.826625 351.890299 
L 864.146375 352.45306 
L 873.466125 352.788825 
L 882.785875 352.892864 
L 892.105625 352.996904 
L 901.425375 353.143506 
L 910.745125 353.200255 
L 920.064875 353.214442 
L 929.384625 353.214442 
L 938.704375 353.214442 
L 948.024125 353.214442 
L 957.343875 353.219171 
L 966.663625 353.2239 
L 975.983375 353.2239 
L 985.303125 353.2239 
" style="fill:none;stroke:#f0ad4e;stroke-linecap:square;"/>
   </g>
   <g id="line2d_12">
    <path clip-path="url(#pa6cf19a79a)" d="M 53.328125 353.2239 
L 62.647875 353.2239 
L 71.967625 353.2239 
L 81.287375 353.2239 
L 90.607125 353.2239 
L 99.926875 353.2239 
L 109.246625 353.219171 
L 118.566375 353.209713 
L 127.886125 353.214442 
L 137.205875 353.219171 
L 146.525625 353.209713 
L 155.845375 353.200255 
L 165.165125 353.204984 
L 174.484875 353.219171 
L 183.804625 353.157693 
L 193.124375 353.143506 
L 202.444125 353.167151 
L 211.763875 353.058382 
L 221.083625 352.959071 
L 230.403375 352.940155 
L 239.723125 352.803012 
L 249.042875 352.561829 
L 258.362625 352.306458 
L 267.682375 352.09365 
L 277.002125 351.772072 
L 286.321875 351.32281 
L 295.641625 350.968129 
L 304.961375 350.901921 
L 314.281125 350.821527 
L 323.600875 350.102707 
L 332.920625 349.166349 
L 342.240375 348.579943 
L 351.560125 348.159055 
L 360.879875 347.322008 
L 370.199625 346.518064 
L 379.519375 345.926929 
L 388.839125 345.638455 
L 398.158875 345.274316 
L 407.478625 344.730472 
L 416.798375 344.049484 
L 426.118125 343.595492 
L 435.437875 343.704261 
L 444.757625 343.742094 
L 454.077375 343.524556 
L 463.397125 343.392142 
L 472.716875 343.434703 
L 482.036625 343.411058 
L 491.356375 343.207708 
L 500.676125 342.909776 
L 509.995875 342.985441 
L 519.315625 343.538743 
L 528.635375 343.850863 
L 537.955125 343.997464 
L 547.274875 344.333229 
L 556.594625 344.616974 
L 565.914375 344.990571 
L 575.234125 345.425646 
L 584.553875 345.61008 
L 593.873625 346.012052 
L 603.193375 346.89639 
L 612.513125 347.426047 
L 621.832875 348.357676 
L 631.152625 349.270389 
L 640.472375 349.52103 
L 649.792125 350.074332 
L 659.111875 350.91138 
L 668.431625 351.360642 
L 677.751375 351.672762 
L 687.071125 352.169315 
L 696.390875 352.528725 
L 705.710625 352.765179 
L 715.030375 352.954342 
L 724.350125 352.996904 
L 733.669875 353.011091 
L 742.989625 353.072569 
L 752.309375 353.157693 
L 761.629125 353.176609 
L 770.948875 353.186067 
L 780.268625 353.200255 
L 789.588375 353.200255 
L 798.908125 353.219171 
L 808.227875 353.219171 
L 817.547625 353.219171 
L 826.867375 353.2239 
L 836.187125 353.2239 
L 845.506875 353.2239 
L 854.826625 353.2239 
L 864.146375 353.2239 
L 873.466125 353.2239 
L 882.785875 353.2239 
L 892.105625 353.2239 
L 901.425375 353.2239 
L 910.745125 353.2239 
L 920.064875 353.2239 
L 929.384625 353.2239 
L 938.704375 353.2239 
L 948.024125 353.2239 
L 957.343875 353.2239 
L 966.663625 353.2239 
L 975.983375 353.2239 
L 985.303125 353.2239 
" style="fill:none;stroke:#5cb85c;stroke-linecap:square;"/>
   </g>
   <g id="line2d_13">
    <path clip-path="url(#pa6cf19a79a)" d="M 53.328125 353.2239 
L 62.647875 353.2239 
L 71.967625 353.2239 
L 81.287375 353.2239 
L 90.607125 353.2239 
L 99.926875 353.2239 
L 109.246625 353.2239 
L 118.566375 353.2239 
L 127.886125 353.214442 
L 137.205875 353.204984 
L 146.525625 353.195526 
L 155.845375 353.176609 
L 165.165125 353.115131 
L 174.484875 353.096215 
L 183.804625 353.143506 
L 193.124375 353.124589 
L 202.444125 353.048924 
L 211.763875 352.987446 
L 221.083625 352.949613 
L 230.403375 352.944884 
L 239.723125 352.963801 
L 249.042875 352.788825 
L 258.362625 352.585474 
L 267.682375 352.443602 
L 277.002125 352.131482 
L 286.321875 351.819363 
L 295.641625 351.649116 
L 304.961375 351.365371 
L 314.281125 351.01069 
L 323.600875 350.429013 
L 332.920625 349.861524 
L 342.240375 349.46901 
L 351.560125 349.137974 
L 360.879875 348.683983 
L 370.199625 347.984079 
L 379.519375 347.35984 
L 388.839125 346.834912 
L 398.158875 346.309984 
L 407.478625 345.832347 
L 416.798375 345.581706 
L 426.118125 345.04732 
L 435.437875 344.423081 
L 444.757625 344.366332 
L 454.077375 344.110962 
L 463.397125 343.524556 
L 472.716875 343.264457 
L 482.036625 343.065835 
L 491.356375 342.607114 
L 500.676125 342.394306 
L 509.995875 342.413222 
L 519.315625 342.57874 
L 528.635375 342.649676 
L 537.955125 342.351744 
L 547.274875 342.276079 
L 556.594625 342.394306 
L 565.914375 342.942879 
L 575.234125 343.264457 
L 584.553875 343.24554 
L 593.873625 343.70899 
L 603.193375 343.988006 
L 612.513125 344.550766 
L 621.832875 345.515499 
L 631.152625 346.357275 
L 640.472375 347.303091 
L 649.792125 347.974621 
L 659.111875 348.627234 
L 668.431625 349.355512 
L 677.751375 350.093249 
L 687.071125 350.821527 
L 696.390875 351.242415 
L 705.710625 351.497786 
L 715.030375 351.852467 
L 724.350125 352.19296 
L 733.669875 352.443602 
L 742.989625 352.670598 
L 752.309375 352.793554 
L 761.629125 352.873948 
L 770.948875 352.925968 
L 780.268625 352.996904 
L 789.588375 353.082028 
L 798.908125 353.11986 
L 808.227875 353.152964 
L 817.547625 353.157693 
L 826.867375 353.176609 
L 836.187125 353.200255 
L 845.506875 353.200255 
L 854.826625 353.204984 
L 864.146375 353.204984 
L 873.466125 353.214442 
L 882.785875 353.2239 
L 892.105625 353.214442 
L 901.425375 353.204984 
L 910.745125 353.204984 
L 920.064875 353.214442 
L 929.384625 353.2239 
L 938.704375 353.2239 
L 948.024125 353.2239 
L 957.343875 353.2239 
L 966.663625 353.2239 
L 975.983375 353.2239 
L 985.303125 353.2239 
" style="fill:none;stroke:#5cb85c;stroke-linecap:square;"/>
   </g>
   <g id="line2d_14">
    <path clip-path="url(#pa6cf19a79a)" d="M 53.328125 353.2239 
L 62.647875 353.200255 
L 71.967625 353.190796 
L 81.287375 353.204984 
L 90.607125 352.944884 
L 99.926875 352.684785 
L 109.246625 352.807741 
L 118.566375 352.930697 
L 127.886125 352.921239 
L 137.205875 352.774637 
L 146.525625 352.221335 
L 155.845375 351.795718 
L 165.165125 351.776801 
L 174.484875 351.762614 
L 183.804625 349.459552 
L 193.124375 345.733037 
L 202.444125 344.314312 
L 211.763875 341.675486 
L 221.083625 339.074491 
L 230.403375 336.260688 
L 239.723125 330.477023 
L 249.042875 327.346372 
L 258.362625 316.989686 
L 267.682375 301.360075 
L 277.002125 295.708824 
L 286.321875 286.137165 
L 295.641625 276.262845 
L 304.961375 264.851574 
L 314.281125 243.305883 
L 323.600875 232.41954 
L 332.920625 219.301071 
L 342.240375 201.898055 
L 351.560125 197.03656 
L 360.879875 180.106452 
L 370.199625 163.280384 
L 379.519375 154.791684 
L 388.839125 138.140592 
L 398.158875 129.755932 
L 407.478625 125.660549 
L 416.798375 121.432751 
L 426.118125 113.237254 
L 435.437875 98.298089 
L 444.757625 91.105158 
L 454.077375 89.525645 
L 463.397125 92.864376 
L 472.716875 97.375919 
L 482.036625 95.716011 
L 491.356375 93.852754 
L 500.676125 96.122712 
L 509.995875 98.496711 
L 519.315625 98.123113 
L 528.635375 103.731803 
L 537.955125 109.605321 
L 547.274875 110.272121 
L 556.594625 116.4483 
L 565.914375 122.458961 
L 575.234125 136.598912 
L 584.553875 159.260665 
L 593.873625 168.941093 
L 603.193375 179.34507 
L 612.513125 205.799546 
L 621.832875 223.022857 
L 631.152625 235.909601 
L 640.472375 248.853094 
L 649.792125 261.68309 
L 659.111875 282.037052 
L 668.431625 290.43117 
L 677.751375 300.967561 
L 687.071125 311.626908 
L 696.390875 319.548118 
L 705.710625 330.49121 
L 715.030375 334.156248 
L 724.350125 337.376751 
L 733.669875 342.654405 
L 742.989625 344.952738 
L 752.309375 347.10447 
L 761.629125 349.180536 
L 770.948875 349.587237 
L 780.268625 350.102707 
L 789.588375 350.310786 
L 798.908125 350.991774 
L 808.227875 352.032172 
L 817.547625 352.419956 
L 826.867375 352.481434 
L 836.187125 352.566558 
L 845.506875 352.755721 
L 854.826625 353.011091 
L 864.146375 353.082028 
L 873.466125 353.115131 
L 882.785875 353.157693 
L 892.105625 353.186067 
L 901.425375 353.214442 
L 910.745125 353.2239 
L 920.064875 353.219171 
L 929.384625 353.219171 
L 938.704375 353.2239 
L 948.024125 353.2239 
L 957.343875 353.2239 
L 966.663625 353.2239 
L 975.983375 353.2239 
L 985.303125 353.2239 
" style="fill:none;stroke:#5cb85c;stroke-linecap:square;"/>
   </g>
   <g id="line2d_15">
    <path clip-path="url(#pa6cf19a79a)" d="M 53.328125 353.167151 
L 62.647875 353.152964 
L 71.967625 353.152964 
L 81.287375 353.115131 
L 90.607125 353.048924 
L 99.926875 353.077299 
L 109.246625 352.996904 
L 118.566375 352.873948 
L 127.886125 352.689514 
L 137.205875 352.330104 
L 146.525625 352.060546 
L 155.845375 351.951777 
L 165.165125 351.384288 
L 174.484875 350.774236 
L 183.804625 350.258767 
L 193.124375 349.785859 
L 202.444125 349.615612 
L 211.763875 348.896791 
L 221.083625 347.345653 
L 230.403375 346.139737 
L 239.723125 344.257563 
L 249.042875 341.325534 
L 258.362625 339.774395 
L 267.682375 336.709951 
L 277.002125 330.732393 
L 286.321875 323.818478 
L 295.641625 319.604867 
L 304.961375 314.119134 
L 314.281125 304.963634 
L 323.600875 295.642616 
L 332.920625 289.717079 
L 342.240375 283.630752 
L 351.560125 271.510119 
L 360.879875 264.15167 
L 370.199625 256.807408 
L 379.519375 244.426675 
L 388.839125 232.031755 
L 398.158875 224.512517 
L 407.478625 216.633869 
L 416.798375 203.633627 
L 426.118125 193.357335 
L 435.437875 188.869438 
L 444.757625 182.163602 
L 454.077375 169.976762 
L 463.397125 164.703837 
L 472.716875 156.896125 
L 482.036625 146.704957 
L 491.356375 140.25922 
L 500.676125 135.392996 
L 509.995875 134.120874 
L 519.315625 130.815246 
L 528.635375 125.220744 
L 537.955125 122.648124 
L 547.274875 118.874318 
L 556.594625 112.740701 
L 565.914375 108.2197 
L 575.234125 106.067968 
L 584.553875 109.463448 
L 593.873625 118.600032 
L 603.193375 125.234931 
L 612.513125 135.53014 
L 621.832875 157.07583 
L 631.152625 179.628815 
L 640.472375 191.238707 
L 649.792125 203.231655 
L 659.111875 226.333213 
L 668.431625 248.744326 
L 677.751375 260.08939 
L 687.071125 270.464992 
L 696.390875 288.761804 
L 705.710625 297.742328 
L 715.030375 303.715157 
L 724.350125 315.632439 
L 733.669875 325.951293 
L 742.989625 330.179091 
L 752.309375 332.784814 
L 761.629125 337.523353 
L 770.948875 341.306617 
L 780.268625 342.928692 
L 789.588375 343.935986 
L 798.908125 345.993136 
L 808.227875 347.170677 
L 817.547625 348.296198 
L 826.867375 349.946647 
L 836.187125 351.020149 
L 845.506875 351.530889 
L 854.826625 351.88557 
L 864.146375 352.481434 
L 873.466125 352.817199 
L 882.785875 352.911781 
L 892.105625 353.006362 
L 901.425375 353.143506 
L 910.745125 353.200255 
L 920.064875 353.214442 
L 929.384625 353.219171 
L 938.704375 353.219171 
L 948.024125 353.214442 
L 957.343875 353.219171 
L 966.663625 353.2239 
L 975.983375 353.2239 
L 985.303125 353.2239 
" style="fill:none;stroke:#f0ad4e;stroke-linecap:square;"/>
   </g>
   <g id="line2d_16">
    <path clip-path="url(#pa6cf19a79a)" d="M 53.328125 353.2239 
L 62.647875 353.2239 
L 71.967625 353.2239 
L 81.287375 353.2239 
L 90.607125 353.2239 
L 99.926875 353.2239 
L 109.246625 353.219171 
L 118.566375 353.219171 
L 127.886125 353.2239 
L 137.205875 353.2239 
L 146.525625 353.2239 
L 155.845375 353.219171 
L 165.165125 353.195526 
L 174.484875 353.148235 
L 183.804625 353.152964 
L 193.124375 353.143506 
L 202.444125 353.034737 
L 211.763875 352.907052 
L 221.083625 352.722617 
L 230.403375 352.542912 
L 239.723125 352.419956 
L 249.042875 351.984881 
L 258.362625 351.308622 
L 267.682375 350.717487 
L 277.002125 350.277683 
L 286.321875 349.681819 
L 295.641625 348.277282 
L 304.961375 346.934223 
L 314.281125 345.889096 
L 323.600875 344.290667 
L 332.920625 342.356473 
L 342.240375 340.77696 
L 351.560125 339.263655 
L 360.879875 337.315273 
L 370.199625 335.68847 
L 379.519375 333.669152 
L 388.839125 331.309341 
L 398.158875 329.228546 
L 407.478625 327.965881 
L 416.798375 326.183018 
L 426.118125 325.005477 
L 435.437875 325.738484 
L 444.757625 325.303409 
L 454.077375 323.931976 
L 463.397125 323.936705 
L 472.716875 323.723896 
L 482.036625 322.697686 
L 491.356375 322.092363 
L 500.676125 322.092363 
L 509.995875 322.77808 
L 519.315625 323.425964 
L 528.635375 324.106952 
L 537.955125 324.925083 
L 547.274875 324.896708 
L 556.594625 324.759565 
L 565.914375 325.856711 
L 575.234125 327.232874 
L 584.553875 328.131399 
L 593.873625 329.77239 
L 603.193375 332.212596 
L 612.513125 334.406889 
L 621.832875 336.482955 
L 631.152625 338.488085 
L 640.472375 340.554693 
L 649.792125 342.621302 
L 659.111875 344.877073 
L 668.431625 346.768705 
L 677.751375 348.400238 
L 687.071125 349.72438 
L 696.390875 350.570886 
L 705.710625 351.280248 
L 715.030375 351.965965 
L 724.350125 352.249709 
L 733.669875 352.377395 
L 742.989625 352.70843 
L 752.309375 352.888135 
L 761.629125 353.011091 
L 770.948875 353.124589 
L 780.268625 353.129318 
L 789.588375 353.157693 
L 798.908125 353.190796 
L 808.227875 353.204984 
L 817.547625 353.209713 
L 826.867375 353.204984 
L 836.187125 353.219171 
L 845.506875 353.2239 
L 854.826625 353.2239 
L 864.146375 353.2239 
L 873.466125 353.2239 
L 882.785875 353.2239 
L 892.105625 353.2239 
L 901.425375 353.2239 
L 910.745125 353.2239 
L 920.064875 353.2239 
L 929.384625 353.2239 
L 938.704375 353.2239 
L 948.024125 353.2239 
L 957.343875 353.2239 
L 966.663625 353.2239 
L 975.983375 353.2239 
L 985.303125 353.2239 
" style="fill:none;stroke:#5cb85c;stroke-linecap:square;"/>
   </g>
   <g id="line2d_17">
    <path clip-path="url(#pa6cf19a79a)" d="M 53.328125 353.2239 
L 62.647875 353.2239 
L 71.967625 353.2239 
L 81.287375 353.2239 
L 90.607125 353.2239 
L 99.926875 353.2239 
L 109.246625 353.2239 
L 118.566375 353.209713 
L 127.886125 353.181338 
L 137.205875 353.167151 
L 146.525625 353.162422 
L 155.845375 353.181338 
L 165.165125 353.200255 
L 174.484875 353.190796 
L 183.804625 353.105673 
L 193.124375 352.996904 
L 202.444125 352.921239 
L 211.763875 352.873948 
L 221.083625 352.840844 
L 230.403375 352.769908 
L 239.723125 352.594932 
L 249.042875 352.254439 
L 258.362625 351.776801 
L 267.682375 351.436308 
L 277.002125 351.057981 
L 286.321875 350.637093 
L 295.641625 350.154727 
L 304.961375 349.081226 
L 314.281125 347.87531 
L 323.600875 346.792351 
L 332.920625 345.789786 
L 342.240375 344.650077 
L 351.560125 343.061106 
L 360.879875 341.831545 
L 370.199625 340.157451 
L 379.519375 338.346213 
L 388.839125 337.069361 
L 398.158875 335.801968 
L 407.478625 334.421076 
L 416.798375 332.80846 
L 426.118125 330.718206 
L 435.437875 328.854948 
L 444.757625 328.240168 
L 454.077375 327.138292 
L 463.397125 326.159373 
L 472.716875 324.929812 
L 482.036625 323.378673 
L 491.356375 322.650395 
L 500.676125 321.680933 
L 509.995875 320.607432 
L 519.315625 319.415704 
L 528.635375 319.004274 
L 537.955125 318.800923 
L 547.274875 318.09629 
L 556.594625 318.488804 
L 565.914375 318.555011 
L 575.234125 318.720529 
L 584.553875 319.685261 
L 593.873625 320.943197 
L 603.193375 322.238965 
L 612.513125 324.225179 
L 621.832875 326.471492 
L 631.152625 328.585391 
L 640.472375 331.403923 
L 649.792125 333.905606 
L 659.111875 336.222856 
L 668.431625 338.691436 
L 677.751375 341.297159 
L 687.071125 343.415787 
L 696.390875 345.089882 
L 705.710625 346.773434 
L 715.030375 348.144868 
L 724.350125 349.166349 
L 733.669875 350.102707 
L 742.989625 350.7033 
L 752.309375 351.32281 
L 761.629125 351.913945 
L 770.948875 352.211877 
L 780.268625 352.419956 
L 789.588375 352.613849 
L 798.908125 352.750992 
L 808.227875 352.826657 
L 817.547625 352.944884 
L 826.867375 353.100944 
L 836.187125 353.143506 
L 845.506875 353.157693 
L 854.826625 353.17188 
L 864.146375 353.186067 
L 873.466125 353.214442 
L 882.785875 353.214442 
L 892.105625 353.214442 
L 901.425375 353.219171 
L 910.745125 353.219171 
L 920.064875 353.2239 
L 929.384625 353.2239 
L 938.704375 353.2239 
L 948.024125 353.2239 
L 957.343875 353.2239 
L 966.663625 353.2239 
L 975.983375 353.2239 
L 985.303125 353.2239 
" style="fill:none;stroke:#f0ad4e;stroke-linecap:square;"/>
   </g>
   <g id="line2d_18">
    <path clip-path="url(#pa6cf19a79a)" d="M 53.328125 353.2239 
L 62.647875 353.195526 
L 71.967625 353.190796 
L 81.287375 353.214442 
L 90.607125 352.96853 
L 99.926875 352.722617 
L 109.246625 352.798283 
L 118.566375 352.911781 
L 127.886125 352.940155 
L 137.205875 352.769908 
L 146.525625 352.140941 
L 155.845375 351.649116 
L 165.165125 351.625471 
L 174.484875 351.616013 
L 183.804625 349.119058 
L 193.124375 345.052049 
L 202.444125 343.486723 
L 211.763875 340.46957 
L 221.083625 337.523353 
L 230.403375 334.321765 
L 239.723125 327.568639 
L 249.042875 323.842123 
L 258.362625 312.572724 
L 267.682375 294.729904 
L 277.002125 287.678845 
L 286.321875 277.052601 
L 295.641625 266.128425 
L 304.961375 253.738235 
L 314.281125 228.50859 
L 323.600875 214.945588 
L 332.920625 201.794015 
L 342.240375 181.548821 
L 351.560125 173.760026 
L 360.879875 154.782226 
L 370.199625 135.861175 
L 379.519375 125.726756 
L 388.839125 107.061075 
L 398.158875 97.990699 
L 407.478625 93.167037 
L 416.798375 88.291355 
L 426.118125 78.39339 
L 435.437875 60.990374 
L 444.757625 53.059706 
L 454.077375 50.397233 
L 463.397125 54.809465 
L 472.716875 61.297764 
L 482.036625 58.966327 
L 491.356375 56.748388 
L 500.676125 58.54071 
L 509.995875 62.24358 
L 519.315625 63.719053 
L 528.635375 69.096017 
L 537.955125 75.749834 
L 547.274875 77.423928 
L 556.594625 84.76819 
L 565.914375 91.828707 
L 575.234125 107.671127 
L 584.553875 133.402053 
L 593.873625 144.378249 
L 603.193375 157.454157 
L 612.513125 188.60461 
L 621.832875 207.918174 
L 631.152625 221.750734 
L 640.472375 235.687334 
L 649.792125 250.385317 
L 659.111875 274.158404 
L 668.431625 284.212429 
L 677.751375 295.723011 
L 687.071125 307.361278 
L 696.390875 315.665543 
L 705.710625 327.658491 
L 715.030375 332.03762 
L 724.350125 335.749948 
L 733.669875 341.888294 
L 742.989625 344.602786 
L 752.309375 346.763976 
L 761.629125 348.858959 
L 770.948875 349.242014 
L 780.268625 349.951376 
L 789.588375 350.376994 
L 798.908125 350.9634 
L 808.227875 351.970694 
L 817.547625 352.424685 
L 826.867375 352.457789 
L 836.187125 352.519267 
L 845.506875 352.665869 
L 854.826625 352.921239 
L 864.146375 353.034737 
L 873.466125 353.086757 
L 882.785875 353.152964 
L 892.105625 353.176609 
L 901.425375 353.204984 
L 910.745125 353.2239 
L 920.064875 353.219171 
L 929.384625 353.219171 
L 938.704375 353.2239 
L 948.024125 353.2239 
L 957.343875 353.2239 
L 966.663625 353.2239 
L 975.983375 353.2239 
L 985.303125 353.2239 
" style="fill:none;stroke:#5cb85c;stroke-linecap:square;"/>
   </g>
   <g id="line2d_19">
    <path clip-path="url(#pa6cf19a79a)" d="M 53.328125 353.167151 
L 62.647875 353.157693 
L 71.967625 353.157693 
L 81.287375 353.100944 
L 90.607125 353.02055 
L 99.926875 353.053653 
L 109.246625 352.992175 
L 118.566375 352.883406 
L 127.886125 352.746263 
L 137.205875 352.40104 
L 146.525625 352.126753 
L 155.845375 352.046359 
L 165.165125 351.502515 
L 174.484875 350.897192 
L 183.804625 350.324974 
L 193.124375 349.804775 
L 202.444125 349.639257 
L 211.763875 348.778564 
L 221.083625 346.962597 
L 230.403375 345.61481 
L 239.723125 343.4016 
L 249.042875 339.939913 
L 258.362625 338.114488 
L 267.682375 334.733195 
L 277.002125 327.8713 
L 286.321875 319.604867 
L 295.641625 314.49746 
L 304.961375 308.874584 
L 314.281125 298.631395 
L 323.600875 287.546431 
L 332.920625 280.902073 
L 342.240375 273.482145 
L 351.560125 259.030076 
L 360.879875 250.721081 
L 370.199625 242.776226 
L 379.519375 228.366718 
L 388.839125 213.512676 
L 398.158875 204.825355 
L 407.478625 196.757544 
L 416.798375 182.508825 
L 426.118125 169.664642 
L 435.437875 163.724917 
L 444.757625 156.215138 
L 454.077375 142.510262 
L 463.397125 136.513788 
L 472.716875 128.37977 
L 482.036625 116.798252 
L 491.356375 108.371031 
L 500.676125 102.762341 
L 509.995875 102.388744 
L 519.315625 98.922328 
L 528.635375 91.894914 
L 537.955125 88.67914 
L 547.274875 85.699819 
L 556.594625 80.696452 
L 565.914375 75.480276 
L 575.234125 72.297605 
L 584.553875 76.705108 
L 593.873625 88.466331 
L 603.193375 96.302417 
L 612.513125 107.751521 
L 621.832875 132.111014 
L 631.152625 157.780463 
L 640.472375 171.281988 
L 649.792125 185.166568 
L 659.111875 211.474443 
L 668.431625 236.855417 
L 677.751375 249.761078 
L 687.071125 261.172349 
L 696.390875 281.294586 
L 705.710625 291.173635 
L 715.030375 297.661934 
L 724.350125 310.761487 
L 733.669875 322.465961 
L 742.989625 327.426766 
L 752.309375 330.330422 
L 761.629125 335.556055 
L 770.948875 339.911539 
L 780.268625 341.864649 
L 789.588375 343.009086 
L 798.908125 345.283774 
L 808.227875 346.532251 
L 817.547625 347.804374 
L 826.867375 349.620341 
L 836.187125 350.750591 
L 845.506875 351.32281 
L 854.826625 351.696407 
L 864.146375 352.334833 
L 873.466125 352.736805 
L 882.785875 352.873948 
L 892.105625 352.982717 
L 901.425375 353.134047 
L 910.745125 353.195526 
L 920.064875 353.214442 
L 929.384625 353.214442 
L 938.704375 353.214442 
L 948.024125 353.214442 
L 957.343875 353.219171 
L 966.663625 353.2239 
L 975.983375 353.2239 
L 985.303125 353.2239 
" style="fill:none;stroke:#f0ad4e;stroke-linecap:square;"/>
   </g>
   <g id="line2d_20">
    <path clip-path="url(#pa6cf19a79a)" d="M 53.328125 353.2239 
L 62.647875 353.2239 
L 71.967625 353.2239 
L 81.287375 353.2239 
L 90.607125 353.2239 
L 99.926875 353.2239 
L 109.246625 353.2239 
L 118.566375 353.219171 
L 127.886125 353.219171 
L 137.205875 353.2239 
L 146.525625 353.219171 
L 155.845375 353.186067 
L 165.165125 353.167151 
L 174.484875 353.176609 
L 183.804625 353.195526 
L 193.124375 353.181338 
L 202.444125 353.091486 
L 211.763875 352.878677 
L 221.083625 352.628036 
L 230.403375 352.5571 
L 239.723125 352.443602 
L 249.042875 351.88557 
L 258.362625 351.095814 
L 267.682375 350.689113 
L 277.002125 350.178372 
L 286.321875 349.284576 
L 295.641625 347.936788 
L 304.961375 346.470773 
L 314.281125 344.829782 
L 323.600875 342.871943 
L 332.920625 341.107996 
L 342.240375 338.918432 
L 351.560125 336.998425 
L 360.879875 335.53241 
L 370.199625 333.565113 
L 379.519375 331.030325 
L 388.839125 329.044112 
L 398.158875 327.814551 
L 407.478625 326.646468 
L 416.798375 324.551485 
L 426.118125 322.536897 
L 435.437875 322.437586 
L 444.757625 322.229507 
L 454.077375 321.037778 
L 463.397125 320.706743 
L 472.716875 320.437185 
L 482.036625 319.812947 
L 491.356375 319.254915 
L 500.676125 319.12723 
L 509.995875 319.165063 
L 519.315625 319.614325 
L 528.635375 320.408811 
L 537.955125 320.56487 
L 547.274875 321.392459 
L 556.594625 322.432857 
L 565.914375 324.149513 
L 575.234125 325.799962 
L 584.553875 326.268141 
L 593.873625 328.330021 
L 603.193375 330.883724 
L 612.513125 333.078017 
L 621.832875 335.645908 
L 631.152625 337.731432 
L 640.472375 339.632523 
L 649.792125 341.845732 
L 659.111875 343.898153 
L 668.431625 345.950574 
L 677.751375 348.07866 
L 687.071125 349.440636 
L 696.390875 350.244579 
L 705.710625 351.001232 
L 715.030375 351.762614 
L 724.350125 352.051088 
L 733.669875 352.344291 
L 742.989625 352.694243 
L 752.309375 352.907052 
L 761.629125 353.006362 
L 770.948875 353.048924 
L 780.268625 353.086757 
L 789.588375 353.124589 
L 798.908125 353.176609 
L 808.227875 353.204984 
L 817.547625 353.204984 
L 826.867375 353.214442 
L 836.187125 353.219171 
L 845.506875 353.219171 
L 854.826625 353.2239 
L 864.146375 353.219171 
L 873.466125 353.219171 
L 882.785875 353.2239 
L 892.105625 353.2239 
L 901.425375 353.2239 
L 910.745125 353.2239 
L 920.064875 353.2239 
L 929.384625 353.2239 
L 938.704375 353.2239 
L 948.024125 353.2239 
L 957.343875 353.2239 
L 966.663625 353.2239 
L 975.983375 353.2239 
L 985.303125 353.2239 
" style="fill:none;stroke:#5cb85c;stroke-linecap:square;"/>
   </g>
   <g id="line2d_21">
    <path clip-path="url(#pa6cf19a79a)" d="M 53.328125 353.2239 
L 62.647875 353.2239 
L 71.967625 353.2239 
L 81.287375 353.2239 
L 90.607125 353.2239 
L 99.926875 353.2239 
L 109.246625 353.214442 
L 118.566375 353.204984 
L 127.886125 353.200255 
L 137.205875 353.190796 
L 146.525625 353.181338 
L 155.845375 353.157693 
L 165.165125 353.157693 
L 174.484875 353.167151 
L 183.804625 353.096215 
L 193.124375 353.048924 
L 202.444125 353.025279 
L 211.763875 352.935426 
L 221.083625 352.826657 
L 230.403375 352.646952 
L 239.723125 352.45306 
L 249.042875 352.282813 
L 258.362625 351.961236 
L 267.682375 351.606554 
L 277.002125 351.048523 
L 286.321875 350.405368 
L 295.641625 349.771671 
L 304.961375 348.977186 
L 314.281125 347.884768 
L 323.600875 346.466044 
L 332.920625 345.066236 
L 342.240375 343.363767 
L 351.560125 341.822087 
L 360.879875 340.682379 
L 370.199625 339.353507 
L 379.519375 337.882763 
L 388.839125 336.095171 
L 398.158875 334.458909 
L 407.478625 332.330823 
L 416.798375 330.070322 
L 426.118125 328.514455 
L 435.437875 326.84036 
L 444.757625 325.837795 
L 454.077375 325.3507 
L 463.397125 324.248824 
L 472.716875 322.380837 
L 482.036625 320.304771 
L 491.356375 318.318557 
L 500.676125 317.500426 
L 509.995875 317.17412 
L 519.315625 316.365447 
L 528.635375 315.62771 
L 537.955125 315.353424 
L 547.274875 315.343966 
L 556.594625 314.610958 
L 565.914375 315.121699 
L 575.234125 315.920913 
L 584.553875 316.876188 
L 593.873625 318.380035 
L 603.193375 319.325851 
L 612.513125 321.179651 
L 621.832875 323.700251 
L 631.152625 326.528241 
L 640.472375 329.332586 
L 649.792125 332.155847 
L 659.111875 335.035857 
L 668.431625 337.669954 
L 677.751375 340.247303 
L 687.071125 342.224059 
L 696.390875 343.973819 
L 705.710625 345.955303 
L 715.030375 347.549003 
L 724.350125 348.811668 
L 733.669875 349.937189 
L 742.989625 350.750591 
L 752.309375 351.162021 
L 761.629125 351.563993 
L 770.948875 351.999068 
L 780.268625 352.410498 
L 789.588375 352.670598 
L 798.908125 352.717888 
L 808.227875 352.788825 
L 817.547625 352.949613 
L 826.867375 353.044195 
L 836.187125 353.06784 
L 845.506875 353.11986 
L 854.826625 353.162422 
L 864.146375 353.186067 
L 873.466125 353.204984 
L 882.785875 353.204984 
L 892.105625 353.204984 
L 901.425375 353.219171 
L 910.745125 353.214442 
L 920.064875 353.219171 
L 929.384625 353.2239 
L 938.704375 353.2239 
L 948.024125 353.2239 
L 957.343875 353.2239 
L 966.663625 353.2239 
L 975.983375 353.2239 
L 985.303125 353.2239 
" style="fill:none;stroke:#5cb85c;stroke-linecap:square;"/>
   </g>
   <g id="line2d_22">
    <path clip-path="url(#pa6cf19a79a)" d="M 53.328125 353.2239 
L 62.647875 353.195526 
L 71.967625 353.186067 
L 81.287375 353.204984 
L 90.607125 352.987446 
L 99.926875 352.769908 
L 109.246625 352.826657 
L 118.566375 352.921239 
L 127.886125 352.949613 
L 137.205875 352.76045 
L 146.525625 352.122024 
L 155.845375 351.639658 
L 165.165125 351.6302 
L 174.484875 351.634929 
L 183.804625 349.171078 
L 193.124375 345.042591 
L 202.444125 343.373225 
L 211.763875 340.346614 
L 221.083625 337.390939 
L 230.403375 334.274475 
L 239.723125 327.45987 
L 249.042875 323.60094 
L 258.362625 312.487601 
L 267.682375 294.630593 
L 277.002125 287.428204 
L 286.321875 276.868167 
L 295.641625 266.029115 
L 304.961375 253.714589 
L 314.281125 228.593714 
L 323.600875 215.049627 
L 332.920625 201.756182 
L 342.240375 181.24616 
L 351.560125 173.291847 
L 360.879875 154.701832 
L 370.199625 136.220585 
L 379.519375 126.128728 
L 388.839125 107.160386 
L 398.158875 97.853556 
L 407.478625 93.308909 
L 416.798375 88.683869 
L 426.118125 78.511617 
L 435.437875 60.843772 
L 444.757625 52.842168 
L 454.077375 50.666791 
L 463.397125 55.140501 
L 472.716875 61.132246 
L 482.036625 59.287905 
L 491.356375 57.386814 
L 500.676125 58.871746 
L 509.995875 61.997668 
L 519.315625 63.080627 
L 528.635375 69.313555 
L 537.955125 76.2322 
L 547.274875 77.381366 
L 556.594625 84.725628 
L 565.914375 91.667918 
L 575.234125 107.515067 
L 584.553875 133.198703 
L 593.873625 144.037755 
L 603.193375 157.307555 
L 612.513125 188.443821 
L 621.832875 207.459453 
L 631.152625 221.457531 
L 640.472375 235.536004 
L 649.792125 250.243444 
L 659.111875 274.068551 
L 668.431625 284.132035 
L 677.751375 295.751385 
L 687.071125 307.493692 
L 696.390875 315.769583 
L 705.710625 327.649033 
L 715.030375 331.961954 
L 724.350125 335.702657 
L 733.669875 341.817358 
L 742.989625 344.475101 
L 752.309375 346.749789 
L 761.629125 348.958269 
L 770.948875 349.322409 
L 780.268625 349.93246 
L 789.588375 350.287141 
L 798.908125 350.920838 
L 808.227875 351.970694 
L 817.547625 352.415227 
L 826.867375 352.438873 
L 836.187125 352.490893 
L 845.506875 352.651681 
L 854.826625 352.925968 
L 864.146375 353.044195 
L 873.466125 353.096215 
L 882.785875 353.162422 
L 892.105625 353.181338 
L 901.425375 353.204984 
L 910.745125 353.2239 
L 920.064875 353.219171 
L 929.384625 353.219171 
L 938.704375 353.2239 
L 948.024125 353.2239 
L 957.343875 353.2239 
L 966.663625 353.2239 
L 975.983375 353.2239 
L 985.303125 353.2239 
" style="fill:none;stroke:#5cb85c;stroke-linecap:square;"/>
   </g>
   <g id="line2d_23">
    <path clip-path="url(#pa6cf19a79a)" d="M 53.328125 353.167151 
L 62.647875 353.157693 
L 71.967625 353.167151 
L 81.287375 353.124589 
L 90.607125 353.048924 
L 99.926875 353.063111 
L 109.246625 352.977988 
L 118.566375 352.86449 
L 127.886125 352.732076 
L 137.205875 352.410498 
L 146.525625 352.155128 
L 155.845375 352.070004 
L 165.165125 351.540347 
L 174.484875 350.953941 
L 183.804625 350.429013 
L 193.124375 349.965564 
L 202.444125 349.762213 
L 211.763875 348.849501 
L 221.083625 347.047721 
L 230.403375 345.728307 
L 239.723125 343.486723 
L 249.042875 340.043953 
L 258.362625 338.280006 
L 267.682375 334.766299 
L 277.002125 327.876029 
L 286.321875 319.723094 
L 295.641625 314.592042 
L 304.961375 308.912416 
L 314.281125 298.574646 
L 323.600875 287.565347 
L 332.920625 281.110152 
L 342.240375 273.524707 
L 351.560125 259.053721 
L 360.879875 250.858225 
L 370.199625 242.629625 
L 379.519375 228.134993 
L 388.839125 213.422824 
L 398.158875 204.787523 
L 407.478625 196.771731 
L 416.798375 182.513554 
L 426.118125 169.6741 
L 435.437875 163.937726 
L 444.757625 156.46105 
L 454.077375 142.940609 
L 463.397125 137.138027 
L 472.716875 128.464893 
L 482.036625 116.765148 
L 491.356375 108.645317 
L 500.676125 102.960963 
L 509.995875 102.601552 
L 519.315625 99.035826 
L 528.635375 91.852353 
L 537.955125 88.754805 
L 547.274875 85.628883 
L 556.594625 80.143149 
L 565.914375 75.451902 
L 575.234125 72.997509 
L 584.553875 77.031414 
L 593.873625 88.017068 
L 603.193375 95.366059 
L 612.513125 107.127282 
L 621.832875 132.096827 
L 631.152625 157.586571 
L 640.472375 170.634104 
L 649.792125 184.646369 
L 659.111875 211.261634 
L 668.431625 236.888521 
L 677.751375 249.832014 
L 687.071125 261.120329 
L 696.390875 281.157443 
L 705.710625 291.121616 
L 715.030375 297.62883 
L 724.350125 310.780403 
L 733.669875 322.631479 
L 742.989625 327.615929 
L 752.309375 330.434461 
L 761.629125 335.546597 
L 770.948875 339.887893 
L 780.268625 341.878836 
L 789.588375 343.09421 
L 798.908125 345.368897 
L 808.227875 346.565355 
L 817.547625 347.747625 
L 826.867375 349.530488 
L 836.187125 350.726946 
L 845.506875 351.308622 
L 854.826625 351.701136 
L 864.146375 352.344291 
L 873.466125 352.727347 
L 882.785875 352.855032 
L 892.105625 352.973259 
L 901.425375 353.134047 
L 910.745125 353.195526 
L 920.064875 353.214442 
L 929.384625 353.214442 
L 938.704375 353.214442 
L 948.024125 353.214442 
L 957.343875 353.219171 
L 966.663625 353.2239 
L 975.983375 353.2239 
L 985.303125 353.2239 
" style="fill:none;stroke:#f0ad4e;stroke-linecap:square;"/>
   </g>
   <g id="line2d_24">
    <path clip-path="url(#pa6cf19a79a)" d="M 53.328125 353.2239 
L 985.303125 353.2239 
" style="fill:none;stroke:#dedede;stroke-linecap:square;stroke-width:2;"/>
   </g>
   <g id="text_16">
    <!-- FastQC: Per Sequence GC Content -->
    <g transform="translate(382.679375 19.3575)scale(0.16 -0.16)">
     <defs>
      <path d="M 628 4666 
L 3309 4666 
L 3309 4134 
L 1259 4134 
L 1259 2759 
L 3109 2759 
L 3109 2228 
L 1259 2228 
L 1259 0 
L 628 0 
L 628 4666 
z
" id="DejaVuSans-46" transform="scale(0.015625)"/>
      <path d="M 2194 1759 
Q 1497 1759 1228 1600 
Q 959 1441 959 1056 
Q 959 750 1161 570 
Q 1363 391 1709 391 
Q 2188 391 2477 730 
Q 2766 1069 2766 1631 
L 2766 1759 
L 2194 1759 
z
M 3341 1997 
L 3341 0 
L 2766 0 
L 2766 531 
Q 2569 213 2275 61 
Q 1981 -91 1556 -91 
Q 1019 -91 701 211 
Q 384 513 384 1019 
Q 384 1609 779 1909 
Q 1175 2209 1959 2209 
L 2766 2209 
L 2766 2266 
Q 2766 2663 2505 2880 
Q 2244 3097 1772 3097 
Q 1472 3097 1187 3025 
Q 903 2953 641 2809 
L 641 3341 
Q 956 3463 1253 3523 
Q 1550 3584 1831 3584 
Q 2591 3584 2966 3190 
Q 3341 2797 3341 1997 
z
" id="DejaVuSans-61" transform="scale(0.015625)"/>
      <path d="M 2834 3397 
L 2834 2853 
Q 2591 2978 2328 3040 
Q 2066 3103 1784 3103 
Q 1356 3103 1142 2972 
Q 928 2841 928 2578 
Q 928 2378 1081 2264 
Q 1234 2150 1697 2047 
L 1894 2003 
Q 2506 1872 2764 1633 
Q 3022 1394 3022 966 
Q 3022 478 2636 193 
Q 2250 -91 1575 -91 
Q 1294 -91 989 -36 
Q 684 19 347 128 
L 347 722 
Q 666 556 975 473 
Q 1284 391 1588 391 
Q 1994 391 2212 530 
Q 2431 669 2431 922 
Q 2431 1156 2273 1281 
Q 2116 1406 1581 1522 
L 1381 1569 
Q 847 1681 609 1914 
Q 372 2147 372 2553 
Q 372 3047 722 3315 
Q 1072 3584 1716 3584 
Q 2034 3584 2315 3537 
Q 2597 3491 2834 3397 
z
" id="DejaVuSans-73" transform="scale(0.015625)"/>
      <path d="M 2522 4238 
Q 1834 4238 1429 3725 
Q 1025 3213 1025 2328 
Q 1025 1447 1429 934 
Q 1834 422 2522 422 
Q 3209 422 3611 934 
Q 4013 1447 4013 2328 
Q 4013 3213 3611 3725 
Q 3209 4238 2522 4238 
z
M 3406 84 
L 4238 -825 
L 3475 -825 
L 2784 -78 
Q 2681 -84 2626 -87 
Q 2572 -91 2522 -91 
Q 1538 -91 948 567 
Q 359 1225 359 2328 
Q 359 3434 948 4092 
Q 1538 4750 2522 4750 
Q 3503 4750 4090 4092 
Q 4678 3434 4678 2328 
Q 4678 1516 4351 937 
Q 4025 359 3406 84 
z
" id="DejaVuSans-51" transform="scale(0.015625)"/>
      <path d="M 750 794 
L 1409 794 
L 1409 0 
L 750 0 
L 750 794 
z
M 750 3309 
L 1409 3309 
L 1409 2516 
L 750 2516 
L 750 3309 
z
" id="DejaVuSans-3a" transform="scale(0.015625)"/>
      <path d="M 1259 4147 
L 1259 2394 
L 2053 2394 
Q 2494 2394 2734 2622 
Q 2975 2850 2975 3272 
Q 2975 3691 2734 3919 
Q 2494 4147 2053 4147 
L 1259 4147 
z
M 628 4666 
L 2053 4666 
Q 2838 4666 3239 4311 
Q 3641 3956 3641 3272 
Q 3641 2581 3239 2228 
Q 2838 1875 2053 1875 
L 1259 1875 
L 1259 0 
L 628 0 
L 628 4666 
z
" id="DejaVuSans-50" transform="scale(0.015625)"/>
      <path d="M 3597 1894 
L 3597 1613 
L 953 1613 
Q 991 1019 1311 708 
Q 1631 397 2203 397 
Q 2534 397 2845 478 
Q 3156 559 3463 722 
L 3463 178 
Q 3153 47 2828 -22 
Q 2503 -91 2169 -91 
Q 1331 -91 842 396 
Q 353 884 353 1716 
Q 353 2575 817 3079 
Q 1281 3584 2069 3584 
Q 2775 3584 3186 3129 
Q 3597 2675 3597 1894 
z
M 3022 2063 
Q 3016 2534 2758 2815 
Q 2500 3097 2075 3097 
Q 1594 3097 1305 2825 
Q 1016 2553 972 2059 
L 3022 2063 
z
" id="DejaVuSans-65" transform="scale(0.015625)"/>
      <path d="M 2631 2963 
Q 2534 3019 2420 3045 
Q 2306 3072 2169 3072 
Q 1681 3072 1420 2755 
Q 1159 2438 1159 1844 
L 1159 0 
L 581 0 
L 581 3500 
L 1159 3500 
L 1159 2956 
Q 1341 3275 1631 3429 
Q 1922 3584 2338 3584 
Q 2397 3584 2469 3576 
Q 2541 3569 2628 3553 
L 2631 2963 
z
" id="DejaVuSans-72" transform="scale(0.015625)"/>
      <path d="M 3425 4513 
L 3425 3897 
Q 3066 4069 2747 4153 
Q 2428 4238 2131 4238 
Q 1616 4238 1336 4038 
Q 1056 3838 1056 3469 
Q 1056 3159 1242 3001 
Q 1428 2844 1947 2747 
L 2328 2669 
Q 3034 2534 3370 2195 
Q 3706 1856 3706 1288 
Q 3706 609 3251 259 
Q 2797 -91 1919 -91 
Q 1588 -91 1214 -16 
Q 841 59 441 206 
L 441 856 
Q 825 641 1194 531 
Q 1563 422 1919 422 
Q 2459 422 2753 634 
Q 3047 847 3047 1241 
Q 3047 1584 2836 1778 
Q 2625 1972 2144 2069 
L 1759 2144 
Q 1053 2284 737 2584 
Q 422 2884 422 3419 
Q 422 4038 858 4394 
Q 1294 4750 2059 4750 
Q 2388 4750 2728 4690 
Q 3069 4631 3425 4513 
z
" id="DejaVuSans-53" transform="scale(0.015625)"/>
      <path d="M 947 1747 
Q 947 1113 1208 752 
Q 1469 391 1925 391 
Q 2381 391 2643 752 
Q 2906 1113 2906 1747 
Q 2906 2381 2643 2742 
Q 2381 3103 1925 3103 
Q 1469 3103 1208 2742 
Q 947 2381 947 1747 
z
M 2906 525 
Q 2725 213 2448 61 
Q 2172 -91 1784 -91 
Q 1150 -91 751 415 
Q 353 922 353 1747 
Q 353 2572 751 3078 
Q 1150 3584 1784 3584 
Q 2172 3584 2448 3432 
Q 2725 3281 2906 2969 
L 2906 3500 
L 3481 3500 
L 3481 -1331 
L 2906 -1331 
L 2906 525 
z
" id="DejaVuSans-71" transform="scale(0.015625)"/>
      <path d="M 3122 3366 
L 3122 2828 
Q 2878 2963 2633 3030 
Q 2388 3097 2138 3097 
Q 1578 3097 1268 2742 
Q 959 2388 959 1747 
Q 959 1106 1268 751 
Q 1578 397 2138 397 
Q 2388 397 2633 464 
Q 2878 531 3122 666 
L 3122 134 
Q 2881 22 2623 -34 
Q 2366 -91 2075 -91 
Q 1284 -91 818 406 
Q 353 903 353 1747 
Q 353 2603 823 3093 
Q 1294 3584 2113 3584 
Q 2378 3584 2631 3529 
Q 2884 3475 3122 3366 
z
" id="DejaVuSans-63" transform="scale(0.015625)"/>
     </defs>
     <use xlink:href="#DejaVuSans-46"/>
     <use x="48.394531" xlink:href="#DejaVuSans-61"/>
     <use x="109.673828" xlink:href="#DejaVuSans-73"/>
     <use x="161.773438" xlink:href="#DejaVuSans-74"/>
     <use x="200.982422" xlink:href="#DejaVuSans-51"/>
     <use x="279.693359" xlink:href="#DejaVuSans-43"/>
     <use x="349.517578" xlink:href="#DejaVuSans-3a"/>
     <use x="383.208984" xlink:href="#DejaVuSans-20"/>
     <use x="414.996094" xlink:href="#DejaVuSans-50"/>
     <use x="471.673828" xlink:href="#DejaVuSans-65"/>
     <use x="533.197266" xlink:href="#DejaVuSans-72"/>
     <use x="574.310547" xlink:href="#DejaVuSans-20"/>
     <use x="606.097656" xlink:href="#DejaVuSans-53"/>
     <use x="669.574219" xlink:href="#DejaVuSans-65"/>
     <use x="731.097656" xlink:href="#DejaVuSans-71"/>
     <use x="794.574219" xlink:href="#DejaVuSans-75"/>
     <use x="857.953125" xlink:href="#DejaVuSans-65"/>
     <use x="919.476562" xlink:href="#DejaVuSans-6e"/>
     <use x="982.855469" xlink:href="#DejaVuSans-63"/>
     <use x="1037.835938" xlink:href="#DejaVuSans-65"/>
     <use x="1099.359375" xlink:href="#DejaVuSans-20"/>
     <use x="1131.146484" xlink:href="#DejaVuSans-47"/>
     <use x="1208.636719" xlink:href="#DejaVuSans-43"/>
     <use x="1278.460938" xlink:href="#DejaVuSans-20"/>
     <use x="1310.248047" xlink:href="#DejaVuSans-43"/>
     <use x="1380.072266" xlink:href="#DejaVuSans-6f"/>
     <use x="1441.253906" xlink:href="#DejaVuSans-6e"/>
     <use x="1504.632812" xlink:href="#DejaVuSans-74"/>
     <use x="1543.841797" xlink:href="#DejaVuSans-65"/>
     <use x="1605.365234" xlink:href="#DejaVuSans-6e"/>
     <use x="1668.744141" xlink:href="#DejaVuSans-74"/>
    </g>
   </g>
  </g>
 </g>
 <defs>
  <clipPath id="pa6cf19a79a">
   <rect height="317.968" width="931.975" x="53.328125" y="35.2559"/>
  </clipPath>
 </defs>
</svg>
