<?xml version="1.0" encoding="utf-8" standalone="no"?>
<!DOCTYPE svg PUBLIC "-//W3C//DTD SVG 1.1//EN"
  "http://www.w3.org/Graphics/SVG/1.1/DTD/svg11.dtd">
<svg height="388.844525pt" version="1.1" viewBox="0 0 1000.280625 388.844525" width="1000.280625pt" xmlns="http://www.w3.org/2000/svg" xmlns:xlink="http://www.w3.org/1999/xlink">
 <metadata>
  <rdf:RDF xmlns:cc="http://creativecommons.org/ns#" xmlns:dc="http://purl.org/dc/elements/1.1/" xmlns:rdf="http://www.w3.org/1999/02/22-rdf-syntax-ns#">
   <cc:Work>
    <dc:type rdf:resource="http://purl.org/dc/dcmitype/StillImage"/>
    <dc:date>2021-09-10T19:47:16.578423</dc:date>
    <dc:format>image/svg+xml</dc:format>
    <dc:creator>
     <cc:Agent>
      <dc:title>Matplotlib v3.4.3, https://matplotlib.org/</dc:title>
     </cc:Agent>
    </dc:creator>
   </cc:Work>
  </rdf:RDF>
 </metadata>
 <defs>
  <style type="text/css">*{stroke-linecap:butt;stroke-linejoin:round;}</style>
 </defs>
 <g id="figure_1">
  <g id="axes_1">
   <g id="patch_1">
    <path d="M 40.600625 353.2239 
L 985.445625 353.2239 
L 985.445625 35.2559 
L 40.600625 35.2559 
z
" style="fill:#ffffff;"/>
   </g>
   <g id="matplotlib.axis_1">
    <g id="xtick_1">
     <g id="text_1">
      <!-- 0 -->
      <g transform="translate(38.055625 366.30265)scale(0.08 -0.08)">
       <defs>
        <path d="M 2034 4250 
Q 1547 4250 1301 3770 
Q 1056 3291 1056 2328 
Q 1056 1369 1301 889 
Q 1547 409 2034 409 
Q 2525 409 2770 889 
Q 3016 1369 3016 2328 
Q 3016 3291 2770 3770 
Q 2525 4250 2034 4250 
z
M 2034 4750 
Q 2819 4750 3233 4129 
Q 3647 3509 3647 2328 
Q 3647 1150 3233 529 
Q 2819 -91 2034 -91 
Q 1250 -91 836 529 
Q 422 1150 422 2328 
Q 422 3509 836 4129 
Q 1250 4750 2034 4750 
z
" id="DejaVuSans-30" transform="scale(0.015625)"/>
       </defs>
       <use xlink:href="#DejaVuSans-30"/>
      </g>
     </g>
    </g>
    <g id="xtick_2">
     <g id="text_2">
      <!-- 20 -->
      <g transform="translate(224.479625 366.30265)scale(0.08 -0.08)">
       <defs>
        <path d="M 1228 531 
L 3431 531 
L 3431 0 
L 469 0 
L 469 531 
Q 828 903 1448 1529 
Q 2069 2156 2228 2338 
Q 2531 2678 2651 2914 
Q 2772 3150 2772 3378 
Q 2772 3750 2511 3984 
Q 2250 4219 1831 4219 
Q 1534 4219 1204 4116 
Q 875 4013 500 3803 
L 500 4441 
Q 881 4594 1212 4672 
Q 1544 4750 1819 4750 
Q 2544 4750 2975 4387 
Q 3406 4025 3406 3419 
Q 3406 3131 3298 2873 
Q 3191 2616 2906 2266 
Q 2828 2175 2409 1742 
Q 1991 1309 1228 531 
z
" id="DejaVuSans-32" transform="scale(0.015625)"/>
       </defs>
       <use xlink:href="#DejaVuSans-32"/>
       <use x="63.623047" xlink:href="#DejaVuSans-30"/>
      </g>
     </g>
    </g>
    <g id="xtick_3">
     <g id="text_3">
      <!-- 40 -->
      <g transform="translate(413.448625 366.30265)scale(0.08 -0.08)">
       <defs>
        <path d="M 2419 4116 
L 825 1625 
L 2419 1625 
L 2419 4116 
z
M 2253 4666 
L 3047 4666 
L 3047 1625 
L 3713 1625 
L 3713 1100 
L 3047 1100 
L 3047 0 
L 2419 0 
L 2419 1100 
L 313 1100 
L 313 1709 
L 2253 4666 
z
" id="DejaVuSans-34" transform="scale(0.015625)"/>
       </defs>
       <use xlink:href="#DejaVuSans-34"/>
       <use x="63.623047" xlink:href="#DejaVuSans-30"/>
      </g>
     </g>
    </g>
    <g id="xtick_4">
     <g id="text_4">
      <!-- 60 -->
      <g transform="translate(602.417625 366.30265)scale(0.08 -0.08)">
       <defs>
        <path d="M 2113 2584 
Q 1688 2584 1439 2293 
Q 1191 2003 1191 1497 
Q 1191 994 1439 701 
Q 1688 409 2113 409 
Q 2538 409 2786 701 
Q 3034 994 3034 1497 
Q 3034 2003 2786 2293 
Q 2538 2584 2113 2584 
z
M 3366 4563 
L 3366 3988 
Q 3128 4100 2886 4159 
Q 2644 4219 2406 4219 
Q 1781 4219 1451 3797 
Q 1122 3375 1075 2522 
Q 1259 2794 1537 2939 
Q 1816 3084 2150 3084 
Q 2853 3084 3261 2657 
Q 3669 2231 3669 1497 
Q 3669 778 3244 343 
Q 2819 -91 2113 -91 
Q 1303 -91 875 529 
Q 447 1150 447 2328 
Q 447 3434 972 4092 
Q 1497 4750 2381 4750 
Q 2619 4750 2861 4703 
Q 3103 4656 3366 4563 
z
" id="DejaVuSans-36" transform="scale(0.015625)"/>
       </defs>
       <use xlink:href="#DejaVuSans-36"/>
       <use x="63.623047" xlink:href="#DejaVuSans-30"/>
      </g>
     </g>
    </g>
    <g id="xtick_5">
     <g id="text_5">
      <!-- 80 -->
      <g transform="translate(791.386625 366.30265)scale(0.08 -0.08)">
       <defs>
        <path d="M 2034 2216 
Q 1584 2216 1326 1975 
Q 1069 1734 1069 1313 
Q 1069 891 1326 650 
Q 1584 409 2034 409 
Q 2484 409 2743 651 
Q 3003 894 3003 1313 
Q 3003 1734 2745 1975 
Q 2488 2216 2034 2216 
z
M 1403 2484 
Q 997 2584 770 2862 
Q 544 3141 544 3541 
Q 544 4100 942 4425 
Q 1341 4750 2034 4750 
Q 2731 4750 3128 4425 
Q 3525 4100 3525 3541 
Q 3525 3141 3298 2862 
Q 3072 2584 2669 2484 
Q 3125 2378 3379 2068 
Q 3634 1759 3634 1313 
Q 3634 634 3220 271 
Q 2806 -91 2034 -91 
Q 1263 -91 848 271 
Q 434 634 434 1313 
Q 434 1759 690 2068 
Q 947 2378 1403 2484 
z
M 1172 3481 
Q 1172 3119 1398 2916 
Q 1625 2713 2034 2713 
Q 2441 2713 2670 2916 
Q 2900 3119 2900 3481 
Q 2900 3844 2670 4047 
Q 2441 4250 2034 4250 
Q 1625 4250 1398 4047 
Q 1172 3844 1172 3481 
z
" id="DejaVuSans-38" transform="scale(0.015625)"/>
       </defs>
       <use xlink:href="#DejaVuSans-38"/>
       <use x="63.623047" xlink:href="#DejaVuSans-30"/>
      </g>
     </g>
    </g>
    <g id="xtick_6">
     <g id="text_6">
      <!-- 100 -->
      <g transform="translate(977.810625 366.30265)scale(0.08 -0.08)">
       <defs>
        <path d="M 794 531 
L 1825 531 
L 1825 4091 
L 703 3866 
L 703 4441 
L 1819 4666 
L 2450 4666 
L 2450 531 
L 3481 531 
L 3481 0 
L 794 0 
L 794 531 
z
" id="DejaVuSans-31" transform="scale(0.015625)"/>
       </defs>
       <use xlink:href="#DejaVuSans-31"/>
       <use x="63.623047" xlink:href="#DejaVuSans-30"/>
       <use x="127.246094" xlink:href="#DejaVuSans-30"/>
      </g>
     </g>
    </g>
    <g id="text_7">
     <!-- % GC -->
     <g transform="translate(499.317656 379.564837)scale(0.1 -0.1)">
      <defs>
       <path d="M 4653 2053 
Q 4381 2053 4226 1822 
Q 4072 1591 4072 1178 
Q 4072 772 4226 539 
Q 4381 306 4653 306 
Q 4919 306 5073 539 
Q 5228 772 5228 1178 
Q 5228 1588 5073 1820 
Q 4919 2053 4653 2053 
z
M 4653 2450 
Q 5147 2450 5437 2106 
Q 5728 1763 5728 1178 
Q 5728 594 5436 251 
Q 5144 -91 4653 -91 
Q 4153 -91 3862 251 
Q 3572 594 3572 1178 
Q 3572 1766 3864 2108 
Q 4156 2450 4653 2450 
z
M 1428 4353 
Q 1159 4353 1004 4120 
Q 850 3888 850 3481 
Q 850 3069 1003 2837 
Q 1156 2606 1428 2606 
Q 1700 2606 1854 2837 
Q 2009 3069 2009 3481 
Q 2009 3884 1853 4118 
Q 1697 4353 1428 4353 
z
M 4250 4750 
L 4750 4750 
L 1831 -91 
L 1331 -91 
L 4250 4750 
z
M 1428 4750 
Q 1922 4750 2215 4408 
Q 2509 4066 2509 3481 
Q 2509 2891 2217 2550 
Q 1925 2209 1428 2209 
Q 931 2209 642 2551 
Q 353 2894 353 3481 
Q 353 4063 643 4406 
Q 934 4750 1428 4750 
z
" id="DejaVuSans-25" transform="scale(0.015625)"/>
       <path id="DejaVuSans-20" transform="scale(0.015625)"/>
       <path d="M 3809 666 
L 3809 1919 
L 2778 1919 
L 2778 2438 
L 4434 2438 
L 4434 434 
Q 4069 175 3628 42 
Q 3188 -91 2688 -91 
Q 1594 -91 976 548 
Q 359 1188 359 2328 
Q 359 3472 976 4111 
Q 1594 4750 2688 4750 
Q 3144 4750 3555 4637 
Q 3966 4525 4313 4306 
L 4313 3634 
Q 3963 3931 3569 4081 
Q 3175 4231 2741 4231 
Q 1884 4231 1454 3753 
Q 1025 3275 1025 2328 
Q 1025 1384 1454 906 
Q 1884 428 2741 428 
Q 3075 428 3337 486 
Q 3600 544 3809 666 
z
" id="DejaVuSans-47" transform="scale(0.015625)"/>
       <path d="M 4122 4306 
L 4122 3641 
Q 3803 3938 3442 4084 
Q 3081 4231 2675 4231 
Q 1875 4231 1450 3742 
Q 1025 3253 1025 2328 
Q 1025 1406 1450 917 
Q 1875 428 2675 428 
Q 3081 428 3442 575 
Q 3803 722 4122 1019 
L 4122 359 
Q 3791 134 3420 21 
Q 3050 -91 2638 -91 
Q 1578 -91 968 557 
Q 359 1206 359 2328 
Q 359 3453 968 4101 
Q 1578 4750 2638 4750 
Q 3056 4750 3426 4639 
Q 3797 4528 4122 4306 
z
" id="DejaVuSans-43" transform="scale(0.015625)"/>
      </defs>
      <use xlink:href="#DejaVuSans-25"/>
      <use x="95.019531" xlink:href="#DejaVuSans-20"/>
      <use x="126.806641" xlink:href="#DejaVuSans-47"/>
      <use x="204.296875" xlink:href="#DejaVuSans-43"/>
     </g>
    </g>
   </g>
   <g id="matplotlib.axis_2">
    <g id="ytick_1">
     <g id="line2d_1">
      <path clip-path="url(#p7f0efc34e7)" d="M 40.600625 353.2239 
L 985.445625 353.2239 
" style="fill:none;stroke:#dedede;stroke-linecap:square;"/>
     </g>
     <g id="text_8">
      <!-- 0.0 -->
      <g transform="translate(20.878125 356.263275)scale(0.08 -0.08)">
       <defs>
        <path d="M 684 794 
L 1344 794 
L 1344 0 
L 684 0 
L 684 794 
z
" id="DejaVuSans-2e" transform="scale(0.015625)"/>
       </defs>
       <use xlink:href="#DejaVuSans-30"/>
       <use x="63.623047" xlink:href="#DejaVuSans-2e"/>
       <use x="95.410156" xlink:href="#DejaVuSans-30"/>
      </g>
     </g>
    </g>
    <g id="ytick_2">
     <g id="line2d_2">
      <path clip-path="url(#p7f0efc34e7)" d="M 40.600625 310.516624 
L 985.445625 310.516624 
" style="fill:none;stroke:#dedede;stroke-linecap:square;"/>
     </g>
     <g id="text_9">
      <!-- 0.5 -->
      <g transform="translate(20.878125 313.555999)scale(0.08 -0.08)">
       <defs>
        <path d="M 691 4666 
L 3169 4666 
L 3169 4134 
L 1269 4134 
L 1269 2991 
Q 1406 3038 1543 3061 
Q 1681 3084 1819 3084 
Q 2600 3084 3056 2656 
Q 3513 2228 3513 1497 
Q 3513 744 3044 326 
Q 2575 -91 1722 -91 
Q 1428 -91 1123 -41 
Q 819 9 494 109 
L 494 744 
Q 775 591 1075 516 
Q 1375 441 1709 441 
Q 2250 441 2565 725 
Q 2881 1009 2881 1497 
Q 2881 1984 2565 2268 
Q 2250 2553 1709 2553 
Q 1456 2553 1204 2497 
Q 953 2441 691 2322 
L 691 4666 
z
" id="DejaVuSans-35" transform="scale(0.015625)"/>
       </defs>
       <use xlink:href="#DejaVuSans-30"/>
       <use x="63.623047" xlink:href="#DejaVuSans-2e"/>
       <use x="95.410156" xlink:href="#DejaVuSans-35"/>
      </g>
     </g>
    </g>
    <g id="ytick_3">
     <g id="line2d_3">
      <path clip-path="url(#p7f0efc34e7)" d="M 40.600625 267.809348 
L 985.445625 267.809348 
" style="fill:none;stroke:#dedede;stroke-linecap:square;"/>
     </g>
     <g id="text_10">
      <!-- 1.0 -->
      <g transform="translate(20.878125 270.848723)scale(0.08 -0.08)">
       <use xlink:href="#DejaVuSans-31"/>
       <use x="63.623047" xlink:href="#DejaVuSans-2e"/>
       <use x="95.410156" xlink:href="#DejaVuSans-30"/>
      </g>
     </g>
    </g>
    <g id="ytick_4">
     <g id="line2d_4">
      <path clip-path="url(#p7f0efc34e7)" d="M 40.600625 225.102073 
L 985.445625 225.102073 
" style="fill:none;stroke:#dedede;stroke-linecap:square;"/>
     </g>
     <g id="text_11">
      <!-- 1.5 -->
      <g transform="translate(20.878125 228.141448)scale(0.08 -0.08)">
       <use xlink:href="#DejaVuSans-31"/>
       <use x="63.623047" xlink:href="#DejaVuSans-2e"/>
       <use x="95.410156" xlink:href="#DejaVuSans-35"/>
      </g>
     </g>
    </g>
    <g id="ytick_5">
     <g id="line2d_5">
      <path clip-path="url(#p7f0efc34e7)" d="M 40.600625 182.394797 
L 985.445625 182.394797 
" style="fill:none;stroke:#dedede;stroke-linecap:square;"/>
     </g>
     <g id="text_12">
      <!-- 2.0 -->
      <g transform="translate(20.878125 185.434172)scale(0.08 -0.08)">
       <use xlink:href="#DejaVuSans-32"/>
       <use x="63.623047" xlink:href="#DejaVuSans-2e"/>
       <use x="95.410156" xlink:href="#DejaVuSans-30"/>
      </g>
     </g>
    </g>
    <g id="ytick_6">
     <g id="line2d_6">
      <path clip-path="url(#p7f0efc34e7)" d="M 40.600625 139.687521 
L 985.445625 139.687521 
" style="fill:none;stroke:#dedede;stroke-linecap:square;"/>
     </g>
     <g id="text_13">
      <!-- 2.5 -->
      <g transform="translate(20.878125 142.726896)scale(0.08 -0.08)">
       <use xlink:href="#DejaVuSans-32"/>
       <use x="63.623047" xlink:href="#DejaVuSans-2e"/>
       <use x="95.410156" xlink:href="#DejaVuSans-35"/>
      </g>
     </g>
    </g>
    <g id="ytick_7">
     <g id="line2d_7">
      <path clip-path="url(#p7f0efc34e7)" d="M 40.600625 96.980245 
L 985.445625 96.980245 
" style="fill:none;stroke:#dedede;stroke-linecap:square;"/>
     </g>
     <g id="text_14">
      <!-- 3.0 -->
      <g transform="translate(20.878125 100.01962)scale(0.08 -0.08)">
       <defs>
        <path d="M 2597 2516 
Q 3050 2419 3304 2112 
Q 3559 1806 3559 1356 
Q 3559 666 3084 287 
Q 2609 -91 1734 -91 
Q 1441 -91 1130 -33 
Q 819 25 488 141 
L 488 750 
Q 750 597 1062 519 
Q 1375 441 1716 441 
Q 2309 441 2620 675 
Q 2931 909 2931 1356 
Q 2931 1769 2642 2001 
Q 2353 2234 1838 2234 
L 1294 2234 
L 1294 2753 
L 1863 2753 
Q 2328 2753 2575 2939 
Q 2822 3125 2822 3475 
Q 2822 3834 2567 4026 
Q 2313 4219 1838 4219 
Q 1578 4219 1281 4162 
Q 984 4106 628 3988 
L 628 4550 
Q 988 4650 1302 4700 
Q 1616 4750 1894 4750 
Q 2613 4750 3031 4423 
Q 3450 4097 3450 3541 
Q 3450 3153 3228 2886 
Q 3006 2619 2597 2516 
z
" id="DejaVuSans-33" transform="scale(0.015625)"/>
       </defs>
       <use xlink:href="#DejaVuSans-33"/>
       <use x="63.623047" xlink:href="#DejaVuSans-2e"/>
       <use x="95.410156" xlink:href="#DejaVuSans-30"/>
      </g>
     </g>
    </g>
    <g id="ytick_8">
     <g id="line2d_8">
      <path clip-path="url(#p7f0efc34e7)" d="M 40.600625 54.27297 
L 985.445625 54.27297 
" style="fill:none;stroke:#dedede;stroke-linecap:square;"/>
     </g>
     <g id="text_15">
      <!-- 3.5 -->
      <g transform="translate(20.878125 57.312345)scale(0.08 -0.08)">
       <use xlink:href="#DejaVuSans-33"/>
       <use x="63.623047" xlink:href="#DejaVuSans-2e"/>
       <use x="95.410156" xlink:href="#DejaVuSans-35"/>
      </g>
     </g>
    </g>
    <g id="text_16">
     <!-- Percentage -->
     <g transform="translate(14.798438 222.362556)rotate(-90)scale(0.1 -0.1)">
      <defs>
       <path d="M 1259 4147 
L 1259 2394 
L 2053 2394 
Q 2494 2394 2734 2622 
Q 2975 2850 2975 3272 
Q 2975 3691 2734 3919 
Q 2494 4147 2053 4147 
L 1259 4147 
z
M 628 4666 
L 2053 4666 
Q 2838 4666 3239 4311 
Q 3641 3956 3641 3272 
Q 3641 2581 3239 2228 
Q 2838 1875 2053 1875 
L 1259 1875 
L 1259 0 
L 628 0 
L 628 4666 
z
" id="DejaVuSans-50" transform="scale(0.015625)"/>
       <path d="M 3597 1894 
L 3597 1613 
L 953 1613 
Q 991 1019 1311 708 
Q 1631 397 2203 397 
Q 2534 397 2845 478 
Q 3156 559 3463 722 
L 3463 178 
Q 3153 47 2828 -22 
Q 2503 -91 2169 -91 
Q 1331 -91 842 396 
Q 353 884 353 1716 
Q 353 2575 817 3079 
Q 1281 3584 2069 3584 
Q 2775 3584 3186 3129 
Q 3597 2675 3597 1894 
z
M 3022 2063 
Q 3016 2534 2758 2815 
Q 2500 3097 2075 3097 
Q 1594 3097 1305 2825 
Q 1016 2553 972 2059 
L 3022 2063 
z
" id="DejaVuSans-65" transform="scale(0.015625)"/>
       <path d="M 2631 2963 
Q 2534 3019 2420 3045 
Q 2306 3072 2169 3072 
Q 1681 3072 1420 2755 
Q 1159 2438 1159 1844 
L 1159 0 
L 581 0 
L 581 3500 
L 1159 3500 
L 1159 2956 
Q 1341 3275 1631 3429 
Q 1922 3584 2338 3584 
Q 2397 3584 2469 3576 
Q 2541 3569 2628 3553 
L 2631 2963 
z
" id="DejaVuSans-72" transform="scale(0.015625)"/>
       <path d="M 3122 3366 
L 3122 2828 
Q 2878 2963 2633 3030 
Q 2388 3097 2138 3097 
Q 1578 3097 1268 2742 
Q 959 2388 959 1747 
Q 959 1106 1268 751 
Q 1578 397 2138 397 
Q 2388 397 2633 464 
Q 2878 531 3122 666 
L 3122 134 
Q 2881 22 2623 -34 
Q 2366 -91 2075 -91 
Q 1284 -91 818 406 
Q 353 903 353 1747 
Q 353 2603 823 3093 
Q 1294 3584 2113 3584 
Q 2378 3584 2631 3529 
Q 2884 3475 3122 3366 
z
" id="DejaVuSans-63" transform="scale(0.015625)"/>
       <path d="M 3513 2113 
L 3513 0 
L 2938 0 
L 2938 2094 
Q 2938 2591 2744 2837 
Q 2550 3084 2163 3084 
Q 1697 3084 1428 2787 
Q 1159 2491 1159 1978 
L 1159 0 
L 581 0 
L 581 3500 
L 1159 3500 
L 1159 2956 
Q 1366 3272 1645 3428 
Q 1925 3584 2291 3584 
Q 2894 3584 3203 3211 
Q 3513 2838 3513 2113 
z
" id="DejaVuSans-6e" transform="scale(0.015625)"/>
       <path d="M 1172 4494 
L 1172 3500 
L 2356 3500 
L 2356 3053 
L 1172 3053 
L 1172 1153 
Q 1172 725 1289 603 
Q 1406 481 1766 481 
L 2356 481 
L 2356 0 
L 1766 0 
Q 1100 0 847 248 
Q 594 497 594 1153 
L 594 3053 
L 172 3053 
L 172 3500 
L 594 3500 
L 594 4494 
L 1172 4494 
z
" id="DejaVuSans-74" transform="scale(0.015625)"/>
       <path d="M 2194 1759 
Q 1497 1759 1228 1600 
Q 959 1441 959 1056 
Q 959 750 1161 570 
Q 1363 391 1709 391 
Q 2188 391 2477 730 
Q 2766 1069 2766 1631 
L 2766 1759 
L 2194 1759 
z
M 3341 1997 
L 3341 0 
L 2766 0 
L 2766 531 
Q 2569 213 2275 61 
Q 1981 -91 1556 -91 
Q 1019 -91 701 211 
Q 384 513 384 1019 
Q 384 1609 779 1909 
Q 1175 2209 1959 2209 
L 2766 2209 
L 2766 2266 
Q 2766 2663 2505 2880 
Q 2244 3097 1772 3097 
Q 1472 3097 1187 3025 
Q 903 2953 641 2809 
L 641 3341 
Q 956 3463 1253 3523 
Q 1550 3584 1831 3584 
Q 2591 3584 2966 3190 
Q 3341 2797 3341 1997 
z
" id="DejaVuSans-61" transform="scale(0.015625)"/>
       <path d="M 2906 1791 
Q 2906 2416 2648 2759 
Q 2391 3103 1925 3103 
Q 1463 3103 1205 2759 
Q 947 2416 947 1791 
Q 947 1169 1205 825 
Q 1463 481 1925 481 
Q 2391 481 2648 825 
Q 2906 1169 2906 1791 
z
M 3481 434 
Q 3481 -459 3084 -895 
Q 2688 -1331 1869 -1331 
Q 1566 -1331 1297 -1286 
Q 1028 -1241 775 -1147 
L 775 -588 
Q 1028 -725 1275 -790 
Q 1522 -856 1778 -856 
Q 2344 -856 2625 -561 
Q 2906 -266 2906 331 
L 2906 616 
Q 2728 306 2450 153 
Q 2172 0 1784 0 
Q 1141 0 747 490 
Q 353 981 353 1791 
Q 353 2603 747 3093 
Q 1141 3584 1784 3584 
Q 2172 3584 2450 3431 
Q 2728 3278 2906 2969 
L 2906 3500 
L 3481 3500 
L 3481 434 
z
" id="DejaVuSans-67" transform="scale(0.015625)"/>
      </defs>
      <use xlink:href="#DejaVuSans-50"/>
      <use x="56.677734" xlink:href="#DejaVuSans-65"/>
      <use x="118.201172" xlink:href="#DejaVuSans-72"/>
      <use x="157.064453" xlink:href="#DejaVuSans-63"/>
      <use x="212.044922" xlink:href="#DejaVuSans-65"/>
      <use x="273.568359" xlink:href="#DejaVuSans-6e"/>
      <use x="336.947266" xlink:href="#DejaVuSans-74"/>
      <use x="376.15625" xlink:href="#DejaVuSans-61"/>
      <use x="437.435547" xlink:href="#DejaVuSans-67"/>
      <use x="500.912109" xlink:href="#DejaVuSans-65"/>
     </g>
    </g>
   </g>
   <g id="line2d_9">
    <path clip-path="url(#p7f0efc34e7)" d="M 40.600625 353.2239 
L 50.049075 353.199781 
L 59.497525 353.190134 
L 68.945975 353.204605 
L 78.394425 352.944122 
L 87.842875 352.683639 
L 97.291325 352.784938 
L 106.739775 352.915179 
L 116.188225 352.934474 
L 125.636675 352.760819 
L 135.085125 352.167496 
L 144.533575 351.718886 
L 153.982025 351.704415 
L 163.430475 351.699591 
L 172.878925 349.253944 
L 182.327375 345.438348 
L 191.775825 344.068399 
L 201.224275 341.444273 
L 210.672725 338.849088 
L 220.121175 335.916241 
L 229.569625 330.007132 
L 239.018075 326.890982 
L 248.466525 316.326942 
L 257.914975 300.167339 
L 267.363425 294.248582 
L 276.811875 284.494935 
L 286.260325 274.475981 
L 295.708775 263.497098 
L 305.157225 241.611688 
L 314.605675 229.996069 
L 324.054125 216.58601 
L 333.502575 198.395602 
L 342.951025 192.992989 
L 352.399475 176.351009 
L 361.847925 159.627025 
L 371.296375 151.011785 
L 380.744825 134.408396 
L 390.193275 126.034344 
L 399.641725 121.138226 
L 409.090175 116.150456 
L 418.538625 107.940412 
L 427.987075 92.986749 
L 437.435525 85.828286 
L 446.883975 84.082084 
L 456.332425 87.130702 
L 465.780875 91.240547 
L 475.229325 90.184143 
L 484.677775 89.200096 
L 494.126225 90.989711 
L 503.574675 93.319589 
L 513.023125 93.52701 
L 522.471575 98.77044 
L 531.920025 104.867676 
L 541.368475 106.184563 
L 550.816925 112.508515 
L 560.265375 118.571984 
L 569.713825 132.864792 
L 579.162275 155.203635 
L 588.610725 164.344664 
L 598.059175 175.969931 
L 607.507625 203.402668 
L 616.956075 220.48361 
L 626.404525 233.502944 
L 635.852975 246.531926 
L 645.301425 259.831039 
L 654.749875 281.132773 
L 664.198325 289.974729 
L 673.646775 300.726895 
L 683.095225 311.546594 
L 692.543675 319.230847 
L 701.992125 330.089136 
L 711.440575 333.851671 
L 720.889025 337.045001 
L 730.337475 342.481381 
L 739.785925 344.98009 
L 749.234375 347.010894 
L 758.682825 348.983813 
L 768.131275 349.490308 
L 777.579725 350.10775 
L 787.028175 350.324819 
L 796.476625 351.009793 
L 805.925075 352.085492 
L 815.373525 352.495512 
L 824.821975 352.538926 
L 834.270425 352.611282 
L 843.718875 352.746348 
L 853.167325 352.973064 
L 862.615775 353.06954 
L 872.064225 353.10813 
L 881.512675 353.156367 
L 890.961125 353.180486 
L 900.409575 353.209429 
L 909.858025 353.2239 
L 919.306475 353.2239 
L 928.754925 353.2239 
L 938.203375 353.2239 
L 947.651825 353.2239 
L 957.100275 353.2239 
L 966.548725 353.2239 
L 975.997175 353.2239 
L 985.445625 353.2239 
" style="fill:none;stroke:#5cb85c;stroke-linecap:square;"/>
   </g>
   <g id="line2d_10">
    <path clip-path="url(#p7f0efc34e7)" d="M 40.600625 353.168561 
L 50.049075 353.146426 
L 59.497525 353.146426 
L 68.945975 353.096621 
L 78.394425 353.008078 
L 87.842875 353.041282 
L 97.291325 352.947205 
L 106.739775 352.803324 
L 116.188225 352.604104 
L 125.636675 352.177995 
L 135.085125 351.857029 
L 144.533575 351.757419 
L 153.982025 351.087818 
L 163.430475 350.351811 
L 172.878925 349.798422 
L 182.327375 349.311439 
L 191.775825 349.150956 
L 201.224275 348.304271 
L 210.672725 346.417214 
L 220.121175 344.906462 
L 229.569625 342.654169 
L 239.018075 339.367038 
L 248.466525 337.712404 
L 257.914975 334.048969 
L 267.363425 327.00986 
L 276.811875 318.8031 
L 286.260325 313.722988 
L 295.708775 307.580369 
L 305.157225 297.110248 
L 314.605675 285.754705 
L 324.054125 278.39463 
L 333.502575 271.100962 
L 342.951025 257.150024 
L 352.399475 249.125882 
L 361.847925 240.620292 
L 371.296375 225.036856 
L 380.744825 210.073215 
L 390.193275 202.038006 
L 399.641725 193.925322 
L 409.090175 178.928478 
L 418.538625 165.093752 
L 427.987075 158.751913 
L 437.435525 151.945227 
L 446.883975 138.619619 
L 456.332425 132.34972 
L 465.780875 123.606173 
L 475.229325 111.968401 
L 484.677775 103.595624 
L 494.126225 97.181845 
L 503.574675 97.082235 
L 513.023125 93.88918 
L 522.471575 86.291148 
L 531.920025 82.959746 
L 541.368475 79.489996 
L 550.816925 73.363979 
L 560.265375 67.653004 
L 569.713825 64.554025 
L 579.162275 68.438817 
L 588.610725 79.229904 
L 598.059175 86.910944 
L 607.507625 98.55425 
L 616.956075 124.087622 
L 626.404525 150.362535 
L 635.852975 163.405915 
L 645.301425 177.041422 
L 654.749875 204.179622 
L 664.198325 231.124136 
L 673.646775 244.47188 
L 683.095225 256.596634 
L 692.543675 277.736097 
L 701.992125 288.034668 
L 711.440575 295.035039 
L 720.889025 308.665012 
L 730.337475 320.917046 
L 739.785925 326.318123 
L 749.234375 329.594187 
L 758.682825 334.895654 
L 768.131275 339.250826 
L 777.579725 341.503119 
L 787.028175 342.57116 
L 796.476625 344.867725 
L 805.925075 346.24013 
L 815.373525 347.56273 
L 824.821975 349.449787 
L 834.270425 350.650641 
L 843.718875 351.264903 
L 853.167325 351.663343 
L 862.615775 352.321876 
L 872.064225 352.714782 
L 881.512675 352.836528 
L 890.961125 352.958273 
L 900.409575 353.129824 
L 909.858025 353.196231 
L 919.306475 353.212832 
L 928.754925 353.212832 
L 938.203375 353.212832 
L 947.651825 353.212832 
L 957.100275 353.218366 
L 966.548725 353.2239 
L 975.997175 353.2239 
L 985.445625 353.2239 
" style="fill:none;stroke:#f0ad4e;stroke-linecap:square;"/>
   </g>
   <g id="line2d_11">
    <path clip-path="url(#p7f0efc34e7)" d="M 40.600625 353.2239 
L 50.049075 353.2239 
L 59.497525 353.2239 
L 68.945975 353.2239 
L 78.394425 353.2239 
L 87.842875 353.2239 
L 97.291325 352.859597 
L 106.739775 352.568154 
L 116.188225 352.859597 
L 125.636675 353.078179 
L 135.085125 353.005318 
L 144.533575 352.859597 
L 153.982025 352.349572 
L 163.430475 352.203851 
L 172.878925 351.402384 
L 182.327375 350.892359 
L 191.775825 350.819498 
L 201.224275 347.030744 
L 210.672725 345.427809 
L 220.121175 346.447859 
L 229.569625 338.578907 
L 239.018075 328.524136 
L 248.466525 323.059587 
L 257.914975 319.999439 
L 267.363425 308.706037 
L 276.811875 292.676692 
L 286.260325 286.264954 
L 295.708775 281.164707 
L 305.157225 266.956879 
L 314.605675 250.49037 
L 324.054125 231.983762 
L 333.502575 210.489867 
L 342.951025 197.812113 
L 352.399475 184.33289 
L 361.847925 165.316258 
L 371.296375 142.29229 
L 380.744825 123.712821 
L 390.193275 110.889345 
L 399.641725 95.95291 
L 409.090175 84.659508 
L 418.538625 71.107425 
L 427.987075 72.200335 
L 437.435525 76.134811 
L 446.883975 66.808646 
L 456.332425 63.238474 
L 465.780875 62.582728 
L 475.229325 62.655589 
L 484.677775 56.24385 
L 494.126225 58.35681 
L 503.574675 79.850704 
L 513.023125 84.805229 
L 522.471575 92.237016 
L 531.920025 105.206214 
L 541.368475 102.947533 
L 550.816925 104.76905 
L 560.265375 119.049739 
L 569.713825 133.330429 
L 579.162275 136.317716 
L 588.610725 155.62579 
L 598.059175 184.770054 
L 607.507625 202.912359 
L 616.956075 224.04195 
L 626.404525 244.078632 
L 635.852975 256.464944 
L 645.301425 272.858592 
L 654.749875 289.907987 
L 664.198325 302.512881 
L 673.646775 317.376455 
L 683.095225 328.451276 
L 692.543675 332.458612 
L 701.992125 337.923161 
L 711.440575 343.387711 
L 720.889025 344.334899 
L 730.337475 345.792113 
L 739.785925 349.87231 
L 749.234375 351.03808 
L 758.682825 351.110941 
L 768.131275 351.912408 
L 777.579725 352.422433 
L 787.028175 352.568154 
L 796.476625 353.005318 
L 805.925075 353.2239 
L 815.373525 353.2239 
L 824.821975 353.2239 
L 834.270425 353.2239 
L 843.718875 353.2239 
L 853.167325 353.2239 
L 862.615775 353.2239 
L 872.064225 353.2239 
L 881.512675 353.2239 
L 890.961125 353.2239 
L 900.409575 353.2239 
L 909.858025 353.2239 
L 919.306475 353.2239 
L 928.754925 353.2239 
L 938.203375 353.2239 
L 947.651825 353.2239 
L 957.100275 353.2239 
L 966.548725 353.2239 
L 975.997175 353.2239 
L 985.445625 353.2239 
" style="fill:none;stroke:#5cb85c;stroke-linecap:square;"/>
   </g>
   <g id="line2d_12">
    <path clip-path="url(#p7f0efc34e7)" d="M 40.600625 353.2239 
L 50.049075 353.2239 
L 59.497525 353.157812 
L 68.945975 353.157812 
L 78.394425 353.2239 
L 87.842875 353.2239 
L 97.291325 353.025637 
L 106.739775 352.893461 
L 116.188225 352.827373 
L 125.636675 352.563022 
L 135.085125 352.232583 
L 144.533575 351.70388 
L 153.982025 349.985596 
L 163.430475 348.399489 
L 172.878925 348.465576 
L 182.327375 347.342083 
L 191.775825 345.161185 
L 201.224275 343.707253 
L 210.672725 343.442902 
L 220.121175 343.575077 
L 229.569625 342.121145 
L 239.018075 337.957612 
L 248.466525 331.61318 
L 257.914975 326.45833 
L 267.363425 319.783459 
L 276.811875 312.645974 
L 286.260325 307.028509 
L 295.708775 298.701442 
L 305.157225 288.457829 
L 314.605675 276.760284 
L 324.054125 263.939245 
L 333.502575 252.373876 
L 342.951025 237.570202 
L 352.399475 222.502178 
L 361.847925 212.456828 
L 371.296375 200.759282 
L 380.744825 185.030379 
L 390.193275 168.90495 
L 399.641725 154.365628 
L 409.090175 140.28892 
L 418.538625 127.203531 
L 427.987075 119.405167 
L 437.435525 119.735606 
L 446.883975 117.026005 
L 456.332425 110.152871 
L 465.780875 102.354507 
L 475.229325 89.665645 
L 484.677775 83.783828 
L 494.126225 83.849916 
L 503.574675 79.554207 
L 513.023125 73.936742 
L 522.471575 73.275863 
L 531.920025 72.614985 
L 541.368475 67.526222 
L 550.816925 68.649716 
L 560.265375 78.364626 
L 569.713825 86.16299 
L 579.162275 93.829178 
L 588.610725 110.218959 
L 598.059175 126.080038 
L 607.507625 143.064609 
L 616.956075 161.89964 
L 626.404525 181.6599 
L 635.852975 203.138444 
L 645.301425 221.312597 
L 654.749875 240.67633 
L 664.198325 261.031381 
L 673.646775 276.297669 
L 683.095225 291.16743 
L 692.543675 304.054556 
L 701.992125 312.910325 
L 711.440575 322.691324 
L 720.889025 328.374877 
L 730.337475 333.199288 
L 739.785925 338.948929 
L 749.234375 342.782023 
L 758.682825 345.425536 
L 768.131275 348.333401 
L 777.579725 350.051684 
L 787.028175 350.448211 
L 796.476625 351.175177 
L 805.925075 352.034319 
L 815.373525 352.100407 
L 824.821975 351.769968 
L 834.270425 352.100407 
L 843.718875 352.695197 
L 853.167325 352.761285 
L 862.615775 352.959549 
L 872.064225 353.157812 
L 881.512675 353.157812 
L 890.961125 353.157812 
L 900.409575 353.157812 
L 909.858025 353.157812 
L 919.306475 353.157812 
L 928.754925 353.157812 
L 938.203375 353.2239 
L 947.651825 353.2239 
L 957.100275 353.2239 
L 966.548725 353.2239 
L 975.997175 353.2239 
L 985.445625 353.2239 
" style="fill:none;stroke:#f0ad4e;stroke-linecap:square;"/>
   </g>
   <g id="line2d_13">
    <path clip-path="url(#p7f0efc34e7)" d="M 40.600625 353.2239 
L 50.049075 353.199791 
L 59.497525 353.190147 
L 68.945975 353.204613 
L 78.394425 352.939413 
L 87.842875 352.674214 
L 97.291325 352.799581 
L 106.739775 352.924948 
L 116.188225 352.915304 
L 125.636675 352.765828 
L 135.085125 352.201677 
L 144.533575 351.767714 
L 153.982025 351.748427 
L 163.430475 351.733962 
L 172.878925 349.385742 
L 182.327375 345.586158 
L 191.775825 344.139615 
L 201.224275 341.449047 
L 210.672725 338.797053 
L 220.121175 335.928078 
L 229.569625 330.031008 
L 239.018075 326.838972 
L 248.466525 316.279214 
L 257.914975 300.343142 
L 267.363425 294.581082 
L 276.811875 284.821745 
L 286.260325 274.753811 
L 295.708775 263.118791 
L 305.157225 241.150638 
L 314.605675 230.050838 
L 324.054125 216.675145 
L 333.502575 198.930895 
L 342.951025 193.974077 
L 352.399475 176.712008 
L 361.847925 159.556018 
L 371.296375 150.900875 
L 380.744825 133.923292 
L 390.193275 125.374228 
L 399.641725 121.198543 
L 409.090175 116.887847 
L 418.538625 108.531656 
L 427.987075 93.299567 
L 437.435525 85.965599 
L 446.883975 84.355115 
L 456.332425 87.759311 
L 465.780875 92.359315 
L 475.229325 90.66686 
L 484.677775 88.767068 
L 494.126225 91.081536 
L 503.574675 93.502083 
L 513.023125 93.12116 
L 522.471575 98.839823 
L 531.920025 104.828508 
L 541.368475 105.508383 
L 550.816925 111.805663 
L 560.265375 117.93418 
L 569.713825 132.351383 
L 579.162275 155.457482 
L 588.610725 165.327721 
L 598.059175 175.935697 
L 607.507625 202.908886 
L 616.956075 220.469907 
L 626.404525 233.609332 
L 635.852975 246.806618 
L 645.301425 259.88818 
L 654.749875 280.641238 
L 664.198325 289.199945 
L 673.646775 299.942932 
L 683.095225 310.811285 
L 692.543675 318.887812 
L 701.992125 330.045473 
L 711.440575 333.782374 
L 720.889025 337.066024 
L 730.337475 342.447161 
L 739.785925 344.790559 
L 749.234375 346.984482 
L 758.682825 349.101255 
L 768.131275 349.51593 
L 777.579725 350.041507 
L 787.028175 350.253667 
L 796.476625 350.948007 
L 805.925075 352.008805 
L 815.373525 352.404193 
L 824.821975 352.466876 
L 834.270425 352.553669 
L 843.718875 352.746541 
L 853.167325 353.006919 
L 862.615775 353.079246 
L 872.064225 353.112998 
L 881.512675 353.156395 
L 890.961125 353.185326 
L 900.409575 353.214256 
L 909.858025 353.2239 
L 919.306475 353.219078 
L 928.754925 353.219078 
L 938.203375 353.2239 
L 947.651825 353.2239 
L 957.100275 353.2239 
L 966.548725 353.2239 
L 975.997175 353.2239 
L 985.445625 353.2239 
" style="fill:none;stroke:#5cb85c;stroke-linecap:square;"/>
   </g>
   <g id="line2d_14">
    <path clip-path="url(#p7f0efc34e7)" d="M 40.600625 353.157477 
L 50.049075 353.140872 
L 59.497525 353.140872 
L 68.945975 353.09659 
L 78.394425 353.019097 
L 87.842875 353.052308 
L 97.291325 352.95821 
L 106.739775 352.814294 
L 116.188225 352.598421 
L 125.636675 352.177745 
L 135.085125 351.862237 
L 144.533575 351.734927 
L 153.982025 351.070702 
L 163.430475 350.356659 
L 172.878925 349.753321 
L 182.327375 349.199799 
L 191.775825 349.000532 
L 201.224275 348.159179 
L 210.672725 346.343629 
L 220.121175 344.932149 
L 229.569625 342.729134 
L 239.018075 339.297302 
L 248.466525 337.481751 
L 257.914975 333.894933 
L 267.363425 326.898422 
L 276.811875 318.805939 
L 286.260325 313.874064 
L 295.708775 307.453215 
L 305.157225 296.737041 
L 314.605675 285.827134 
L 324.054125 278.891511 
L 333.502575 271.767691 
L 342.951025 257.580937 
L 352.399475 248.968144 
L 361.847925 240.371957 
L 371.296375 225.880767 
L 380.744825 211.372971 
L 390.193275 202.57198 
L 399.641725 193.350314 
L 409.090175 178.134011 
L 418.538625 166.105991 
L 427.987075 160.853072 
L 437.435525 153.004139 
L 446.883975 138.739893 
L 456.332425 132.568129 
L 465.780875 123.429491 
L 475.229325 111.501104 
L 484.677775 103.956608 
L 494.126225 98.260872 
L 503.574675 96.7719 
L 513.023125 92.902785 
L 522.471575 86.354627 
L 531.920025 83.343471 
L 541.368475 78.92637 
L 550.816925 71.747197 
L 560.265375 66.455533 
L 569.713825 63.93701 
L 579.162275 67.911294 
L 588.610725 78.605328 
L 598.059175 86.371233 
L 607.507625 98.421394 
L 616.956075 123.639829 
L 626.404525 150.037264 
L 635.852975 163.626215 
L 645.301425 177.663517 
L 654.749875 204.703038 
L 664.198325 230.934417 
L 673.646775 244.213395 
L 683.095225 256.357655 
L 692.543675 277.773398 
L 701.992125 288.284769 
L 711.440575 295.275745 
L 720.889025 309.224484 
L 730.337475 321.302321 
L 739.785925 326.250802 
L 749.234375 329.300705 
L 758.682825 334.84699 
L 768.131275 339.275161 
L 777.579725 341.173739 
L 787.028175 342.35274 
L 796.476625 344.760558 
L 805.925075 346.138826 
L 815.373525 347.456207 
L 824.821975 349.387997 
L 834.270425 350.64449 
L 843.718875 351.242293 
L 853.167325 351.657434 
L 862.615775 352.354871 
L 872.064225 352.747872 
L 881.512675 352.858576 
L 890.961125 352.96928 
L 900.409575 353.129801 
L 909.858025 353.196224 
L 919.306475 353.21283 
L 928.754925 353.218365 
L 938.203375 353.218365 
L 947.651825 353.21283 
L 957.100275 353.218365 
L 966.548725 353.2239 
L 975.997175 353.2239 
L 985.445625 353.2239 
" style="fill:none;stroke:#f0ad4e;stroke-linecap:square;"/>
   </g>
   <g id="line2d_15">
    <path clip-path="url(#p7f0efc34e7)" d="M 40.600625 353.2239 
L 50.049075 353.2239 
L 59.497525 353.2239 
L 68.945975 353.2239 
L 78.394425 353.2239 
L 87.842875 353.2239 
L 97.291325 353.087551 
L 106.739775 352.814853 
L 116.188225 352.951202 
L 125.636675 353.087551 
L 135.085125 352.814853 
L 144.533575 352.542154 
L 153.982025 352.678503 
L 163.430475 353.087551 
L 172.878925 351.315012 
L 182.327375 350.905965 
L 191.775825 351.58771 
L 201.224275 348.45168 
L 210.672725 345.588348 
L 220.121175 345.042952 
L 229.569625 341.088827 
L 239.018075 334.135021 
L 248.466525 326.772168 
L 257.914975 320.636457 
L 267.363425 311.364716 
L 276.811875 298.411548 
L 286.260325 288.185363 
L 295.708775 286.276475 
L 305.157225 283.95854 
L 314.605675 263.233472 
L 324.054125 236.236343 
L 333.502575 219.32905 
L 342.951025 207.193977 
L 352.399475 183.060181 
L 361.847925 159.880828 
L 371.296375 142.837186 
L 380.744825 134.519889 
L 390.193275 124.021006 
L 399.641725 108.340855 
L 409.090175 88.70658 
L 418.538625 75.617063 
L 427.987075 78.753093 
L 437.435525 79.843886 
L 446.883975 73.571826 
L 456.332425 69.75405 
L 465.780875 70.981192 
L 475.229325 70.299447 
L 484.677775 64.436434 
L 494.126225 55.846439 
L 503.574675 58.028025 
L 513.023125 73.980873 
L 522.471575 82.979916 
L 531.920025 87.206739 
L 541.368475 96.887528 
L 550.816925 105.068476 
L 560.265375 115.840058 
L 569.713825 128.384178 
L 579.162275 133.701794 
L 588.610725 145.291471 
L 598.059175 170.788759 
L 607.507625 186.059862 
L 616.956075 212.920641 
L 626.404525 239.236024 
L 635.852975 246.462528 
L 645.301425 262.415377 
L 654.749875 286.549173 
L 664.198325 299.502341 
L 673.646775 308.501384 
L 683.095225 322.818043 
L 692.543675 333.180577 
L 701.992125 339.998034 
L 711.440575 345.451999 
L 720.889025 346.679142 
L 730.337475 347.088189 
L 739.785925 348.860728 
L 749.234375 351.315012 
L 758.682825 351.860409 
L 768.131275 352.133107 
L 777.579725 352.542154 
L 787.028175 352.542154 
L 796.476625 353.087551 
L 805.925075 353.087551 
L 815.373525 353.087551 
L 824.821975 353.2239 
L 834.270425 353.2239 
L 843.718875 353.2239 
L 853.167325 353.2239 
L 862.615775 353.2239 
L 872.064225 353.2239 
L 881.512675 353.2239 
L 890.961125 353.2239 
L 900.409575 353.2239 
L 909.858025 353.2239 
L 919.306475 353.2239 
L 928.754925 353.2239 
L 938.203375 353.2239 
L 947.651825 353.2239 
L 957.100275 353.2239 
L 966.548725 353.2239 
L 975.997175 353.2239 
L 985.445625 353.2239 
" style="fill:none;stroke:#5cb85c;stroke-linecap:square;"/>
   </g>
   <g id="line2d_16">
    <path clip-path="url(#p7f0efc34e7)" d="M 40.600625 353.2239 
L 50.049075 353.2239 
L 59.497525 353.2239 
L 68.945975 353.2239 
L 78.394425 353.2239 
L 87.842875 353.2239 
L 97.291325 353.2239 
L 106.739775 353.2239 
L 116.188225 352.977094 
L 125.636675 352.730288 
L 135.085125 352.483483 
L 144.533575 351.989871 
L 153.982025 350.385633 
L 163.430475 349.892022 
L 172.878925 351.126051 
L 182.327375 350.632439 
L 191.775825 348.657993 
L 201.224275 347.053755 
L 210.672725 346.066532 
L 220.121175 345.943129 
L 229.569625 346.43674 
L 239.018075 341.870833 
L 248.466525 336.564508 
L 257.914975 332.862421 
L 267.363425 324.71783 
L 276.811875 316.573239 
L 286.260325 312.130734 
L 295.708775 304.72656 
L 305.157225 295.471343 
L 314.605675 280.292786 
L 324.054125 265.484438 
L 333.502575 255.241997 
L 342.951025 246.603794 
L 352.399475 234.757116 
L 361.847925 216.493486 
L 371.296375 200.204304 
L 380.744825 186.506582 
L 390.193275 172.80886 
L 399.641725 160.345167 
L 409.090175 153.804813 
L 418.538625 139.860285 
L 427.987075 123.571102 
L 437.435525 122.090268 
L 446.883975 115.426511 
L 456.332425 100.124551 
L 465.780875 93.337392 
L 475.229325 88.15447 
L 484.677775 76.184389 
L 494.126225 70.631258 
L 503.574675 71.12487 
L 513.023125 75.443971 
L 522.471575 77.295015 
L 531.920025 69.520632 
L 541.368475 67.546186 
L 550.816925 70.631258 
L 560.265375 84.945995 
L 569.713825 93.337392 
L 579.162275 92.84378 
L 588.610725 104.937264 
L 598.059175 112.218036 
L 607.507625 126.902981 
L 616.956075 152.077172 
L 626.404525 174.042889 
L 635.852975 198.723469 
L 645.301425 216.246681 
L 654.749875 233.276281 
L 664.198325 252.280327 
L 673.646775 271.53118 
L 683.095225 290.535227 
L 692.543675 301.518085 
L 701.992125 308.181841 
L 711.440575 317.437059 
L 720.889025 326.322068 
L 730.337475 332.862421 
L 739.785925 338.785761 
L 749.234375 341.994236 
L 758.682825 344.092085 
L 768.131275 345.449517 
L 777.579725 347.300561 
L 787.028175 349.521813 
L 796.476625 350.509036 
L 805.925075 351.372856 
L 815.373525 351.496259 
L 824.821975 351.989871 
L 834.270425 352.606885 
L 843.718875 352.606885 
L 853.167325 352.730288 
L 862.615775 352.730288 
L 872.064225 352.977094 
L 881.512675 353.2239 
L 890.961125 352.977094 
L 900.409575 352.730288 
L 909.858025 352.730288 
L 919.306475 352.977094 
L 928.754925 353.2239 
L 938.203375 353.2239 
L 947.651825 353.2239 
L 957.100275 353.2239 
L 966.548725 353.2239 
L 975.997175 353.2239 
L 985.445625 353.2239 
" style="fill:none;stroke:#5cb85c;stroke-linecap:square;"/>
   </g>
   <g id="line2d_17">
    <path clip-path="url(#p7f0efc34e7)" d="M 40.600625 353.2239 
L 50.049075 353.198447 
L 59.497525 353.194205 
L 68.945975 353.215416 
L 78.394425 352.994822 
L 87.842875 352.774229 
L 97.291325 352.842104 
L 106.739775 352.943916 
L 116.188225 352.969369 
L 125.636675 352.816651 
L 135.085125 352.25244 
L 144.533575 351.811253 
L 153.982025 351.790043 
L 163.430475 351.781558 
L 172.878925 349.541686 
L 182.327375 345.89341 
L 191.775825 344.489247 
L 201.224275 341.782735 
L 210.672725 339.139856 
L 220.121175 336.267899 
L 229.569625 330.210063 
L 239.018075 326.867224 
L 248.466525 316.758104 
L 257.914975 300.752352 
L 267.363425 294.427258 
L 276.811875 284.895076 
L 286.260325 275.095635 
L 295.708775 263.981119 
L 305.157225 241.349078 
L 314.605675 229.1825 
L 324.054125 217.384992 
L 333.502575 199.224211 
L 342.951025 192.237338 
L 352.399475 175.213462 
L 361.847925 158.240492 
L 371.296375 149.149496 
L 380.744825 132.405604 
L 390.193275 124.269099 
L 399.641725 119.942073 
L 409.090175 115.568384 
L 418.538625 106.689497 
L 427.987075 91.078267 
L 437.435525 83.964128 
L 446.883975 81.57578 
L 456.332425 85.533736 
L 465.780875 91.354009 
L 475.229325 89.262613 
L 484.677775 87.27303 
L 494.126225 88.880817 
L 503.574675 92.202446 
L 513.023125 93.526006 
L 522.471575 98.349367 
L 531.920025 104.318117 
L 541.368475 105.81985 
L 550.816925 112.407958 
L 560.265375 118.741536 
L 569.713825 132.952845 
L 579.162275 156.034557 
L 588.610725 165.880661 
L 598.059175 177.610294 
L 607.507625 205.553547 
L 616.956075 222.878618 
L 626.404525 235.287 
L 635.852975 247.78871 
L 645.301425 260.973412 
L 654.749875 282.29886 
L 664.198325 291.317739 
L 673.646775 301.64321 
L 683.095225 312.08322 
L 692.543675 319.532491 
L 701.992125 330.290664 
L 711.440575 334.218925 
L 720.889025 337.549038 
L 730.337475 343.05539 
L 739.785925 345.490402 
L 749.234375 347.429079 
L 758.682825 349.308366 
L 768.131275 349.651983 
L 777.579725 350.28831 
L 787.028175 350.670106 
L 796.476625 351.196137 
L 805.925075 352.099722 
L 815.373525 352.506971 
L 824.821975 352.536667 
L 834.270425 352.591815 
L 843.718875 352.723323 
L 853.167325 352.9524 
L 862.615775 353.054213 
L 872.064225 353.100877 
L 881.512675 353.160267 
L 890.961125 353.181478 
L 900.409575 353.206931 
L 909.858025 353.2239 
L 919.306475 353.219658 
L 928.754925 353.219658 
L 938.203375 353.2239 
L 947.651825 353.2239 
L 957.100275 353.2239 
L 966.548725 353.2239 
L 975.997175 353.2239 
L 985.445625 353.2239 
" style="fill:none;stroke:#5cb85c;stroke-linecap:square;"/>
   </g>
   <g id="line2d_18">
    <path clip-path="url(#p7f0efc34e7)" d="M 40.600625 353.165492 
L 50.049075 353.155757 
L 59.497525 353.155757 
L 68.945975 353.097349 
L 78.394425 353.014605 
L 87.842875 353.048676 
L 97.291325 352.985401 
L 106.739775 352.873452 
L 116.188225 352.732299 
L 125.636675 352.376983 
L 135.085125 352.094678 
L 144.533575 352.011933 
L 153.982025 351.45219 
L 163.430475 350.82917 
L 172.878925 350.240223 
L 182.327375 349.704816 
L 191.775825 349.534459 
L 201.224275 348.648604 
L 210.672725 346.779547 
L 220.121175 345.392356 
L 229.569625 343.114442 
L 239.018075 339.551552 
L 248.466525 337.67276 
L 257.914975 334.192614 
L 267.363425 327.130109 
L 276.811875 318.622005 
L 286.260325 313.365282 
L 295.708775 307.578019 
L 305.157225 297.035368 
L 314.605675 285.626331 
L 324.054125 278.787723 
L 333.502575 271.150872 
L 342.951025 256.276292 
L 352.399475 247.724382 
L 361.847925 239.547257 
L 371.296375 224.716482 
L 380.744825 209.428178 
L 390.193275 200.486881 
L 399.641725 192.183205 
L 409.090175 177.51792 
L 418.538625 164.298235 
L 427.987075 158.18486 
L 437.435525 150.45553 
L 446.883975 136.349989 
L 456.332425 130.178206 
L 465.780875 121.806387 
L 475.229325 109.88628 
L 484.677775 101.212686 
L 494.126225 95.440025 
L 503.574675 95.055506 
L 513.023125 91.487748 
L 522.471575 84.254886 
L 531.920025 80.945097 
L 541.368475 77.878675 
L 550.816925 72.729033 
L 560.265375 67.360361 
L 569.713825 64.084644 
L 579.162275 68.621001 
L 588.610725 80.726067 
L 598.059175 88.791244 
L 607.507625 100.575065 
L 616.956075 125.646716 
L 626.404525 152.066618 
L 635.852975 165.962864 
L 645.301425 180.253364 
L 654.749875 207.330356 
L 664.198325 233.453351 
L 673.646775 246.736313 
L 683.095225 258.481195 
L 692.543675 279.191712 
L 701.992125 289.359578 
L 711.440575 296.037564 
L 720.889025 309.520086 
L 730.337475 321.566744 
L 739.785925 326.67258 
L 749.234375 329.661124 
L 758.682825 335.039531 
L 768.131275 339.522348 
L 777.579725 341.532558 
L 787.028175 342.710453 
L 796.476625 345.051642 
L 805.925075 346.336619 
L 815.373525 347.645932 
L 824.821975 349.51499 
L 834.270425 350.678283 
L 843.718875 351.267231 
L 853.167325 351.65175 
L 862.615775 352.308841 
L 872.064225 352.722564 
L 881.512675 352.863717 
L 890.961125 352.975666 
L 900.409575 353.131421 
L 909.858025 353.194696 
L 919.306475 353.214165 
L 928.754925 353.214165 
L 938.203375 353.214165 
L 947.651825 353.214165 
L 957.100275 353.219033 
L 966.548725 353.2239 
L 975.997175 353.2239 
L 985.445625 353.2239 
" style="fill:none;stroke:#f0ad4e;stroke-linecap:square;"/>
   </g>
   <g id="line2d_19">
    <path clip-path="url(#p7f0efc34e7)" d="M 40.600625 353.2239 
L 50.049075 353.2239 
L 59.497525 353.2239 
L 68.945975 353.2239 
L 78.394425 353.2239 
L 87.842875 353.2239 
L 97.291325 353.178945 
L 106.739775 353.178945 
L 116.188225 353.2239 
L 125.636675 353.2239 
L 135.085125 353.2239 
L 144.533575 353.178945 
L 153.982025 352.954173 
L 163.430475 352.504627 
L 172.878925 352.549582 
L 182.327375 352.459673 
L 191.775825 351.425718 
L 201.224275 350.211945 
L 210.672725 348.458717 
L 220.121175 346.750444 
L 229.569625 345.581626 
L 239.018075 341.445807 
L 248.466525 335.017306 
L 257.914975 329.397986 
L 267.363425 325.217213 
L 276.811875 319.552939 
L 286.260325 306.201437 
L 295.708775 293.434343 
L 305.157225 283.499387 
L 314.605675 268.304748 
L 324.054125 249.918335 
L 333.502575 234.903514 
L 342.951025 220.518057 
L 352.399475 201.996781 
L 361.847925 186.532414 
L 371.296375 167.33682 
L 380.744825 144.904497 
L 390.193275 125.124493 
L 399.641725 113.121628 
L 409.090175 96.173761 
L 418.538625 84.980077 
L 427.987075 91.948033 
L 437.435525 87.812214 
L 446.883975 74.775393 
L 456.332425 74.820348 
L 465.780875 72.797393 
L 475.229325 63.042254 
L 484.677775 57.288072 
L 494.126225 57.288072 
L 503.574675 63.806482 
L 513.023125 69.965256 
L 522.471575 76.438712 
L 531.920025 84.215849 
L 541.368475 83.946122 
L 550.816925 82.64244 
L 560.265375 93.071896 
L 569.713825 106.153672 
L 579.162275 114.695037 
L 588.610725 130.294267 
L 598.059175 153.490817 
L 607.507625 174.34973 
L 616.956075 194.084779 
L 626.404525 213.14551 
L 635.852975 232.79065 
L 645.301425 252.43579 
L 654.749875 273.879112 
L 664.198325 291.860934 
L 673.646775 307.370255 
L 683.095225 319.95753 
L 692.543675 328.004395 
L 701.992125 334.747578 
L 711.440575 341.265989 
L 720.889025 343.963262 
L 730.337475 345.177035 
L 739.785925 348.323854 
L 749.234375 350.032127 
L 758.682825 351.200945 
L 768.131275 352.279854 
L 777.579725 352.324809 
L 787.028175 352.594536 
L 796.476625 352.909218 
L 805.925075 353.044082 
L 815.373525 353.089036 
L 824.821975 353.044082 
L 834.270425 353.178945 
L 843.718875 353.2239 
L 853.167325 353.2239 
L 862.615775 353.2239 
L 872.064225 353.2239 
L 881.512675 353.2239 
L 890.961125 353.2239 
L 900.409575 353.2239 
L 909.858025 353.2239 
L 919.306475 353.2239 
L 928.754925 353.2239 
L 938.203375 353.2239 
L 947.651825 353.2239 
L 957.100275 353.2239 
L 966.548725 353.2239 
L 975.997175 353.2239 
L 985.445625 353.2239 
" style="fill:none;stroke:#5cb85c;stroke-linecap:square;"/>
   </g>
   <g id="line2d_20">
    <path clip-path="url(#p7f0efc34e7)" d="M 40.600625 353.2239 
L 50.049075 353.2239 
L 59.497525 353.2239 
L 68.945975 353.2239 
L 78.394425 353.2239 
L 87.842875 353.2239 
L 97.291325 353.2239 
L 106.739775 353.102295 
L 116.188225 352.859085 
L 125.636675 352.73748 
L 135.085125 352.696945 
L 144.533575 352.859085 
L 153.982025 353.021225 
L 163.430475 352.940155 
L 172.878925 352.210525 
L 182.327375 351.27822 
L 191.775825 350.62966 
L 201.224275 350.22431 
L 210.672725 349.940565 
L 220.121175 349.33254 
L 229.569625 347.832744 
L 239.018075 344.914224 
L 248.466525 340.820189 
L 257.914975 337.901668 
L 267.363425 334.658868 
L 276.811875 331.051252 
L 286.260325 326.916682 
L 295.708775 317.715236 
L 305.157225 307.37881 
L 314.605675 298.096293 
L 324.054125 289.502872 
L 333.502575 279.733936 
L 342.951025 266.114175 
L 352.399475 255.575073 
L 361.847925 241.225682 
L 371.296375 225.700775 
L 380.744825 214.756323 
L 390.193275 203.892942 
L 399.641725 192.056721 
L 409.090175 178.234284 
L 418.538625 160.317812 
L 427.987075 144.34702 
L 437.435525 139.077469 
L 446.883975 129.632813 
L 456.332425 121.242067 
L 465.780875 110.702966 
L 475.229325 97.407484 
L 484.677775 91.165094 
L 494.126225 82.855418 
L 503.574675 73.653971 
L 513.023125 63.43915 
L 522.471575 59.912605 
L 531.920025 58.1696 
L 541.368475 52.129884 
L 550.816925 55.494289 
L 560.265375 56.061779 
L 569.713825 57.480505 
L 579.162275 65.749646 
L 588.610725 76.531957 
L 598.059175 87.638548 
L 607.507625 104.66325 
L 616.956075 123.917378 
L 626.404525 142.036525 
L 635.852975 166.195388 
L 645.301425 187.638405 
L 654.749875 207.500558 
L 664.198325 228.65983 
L 673.646775 250.994618 
L 683.095225 269.1543 
L 692.543675 283.503692 
L 701.992125 297.934153 
L 711.440575 309.689305 
L 720.889025 318.444866 
L 730.337475 326.470797 
L 739.785925 331.618742 
L 749.234375 336.928828 
L 758.682825 341.995704 
L 768.131275 344.549409 
L 777.579725 346.332949 
L 787.028175 347.994884 
L 796.476625 349.1704 
L 805.925075 349.81896 
L 815.373525 350.832335 
L 824.821975 352.16999 
L 834.270425 352.534805 
L 843.718875 352.65641 
L 853.167325 352.778015 
L 862.615775 352.89962 
L 872.064225 353.14283 
L 881.512675 353.14283 
L 890.961125 353.14283 
L 900.409575 353.183365 
L 909.858025 353.183365 
L 919.306475 353.2239 
L 928.754925 353.2239 
L 938.203375 353.2239 
L 947.651825 353.2239 
L 957.100275 353.2239 
L 966.548725 353.2239 
L 975.997175 353.2239 
L 985.445625 353.2239 
" style="fill:none;stroke:#f0ad4e;stroke-linecap:square;"/>
   </g>
   <g id="line2d_21">
    <path clip-path="url(#p7f0efc34e7)" d="M 40.600625 353.2239 
L 50.049075 353.198452 
L 59.497525 353.18997 
L 68.945975 353.206935 
L 78.394425 353.011837 
L 87.842875 352.81674 
L 97.291325 352.867635 
L 106.739775 352.95246 
L 116.188225 352.977907 
L 125.636675 352.808257 
L 135.085125 352.235688 
L 144.533575 351.80308 
L 153.982025 351.794597 
L 163.430475 351.798838 
L 172.878925 349.589144 
L 182.327375 345.886529 
L 191.775825 344.389366 
L 201.224275 341.674962 
L 210.672725 339.024178 
L 220.121175 336.229191 
L 229.569625 330.117542 
L 239.018075 326.656678 
L 248.466525 316.689729 
L 257.914975 300.674749 
L 267.363425 294.215318 
L 276.811875 284.744595 
L 286.260325 275.023639 
L 295.708775 263.97941 
L 305.157225 241.449863 
L 314.605675 229.302909 
L 324.054125 217.380741 
L 333.502575 198.986417 
L 342.951025 191.852626 
L 352.399475 175.180252 
L 361.847925 158.605427 
L 371.296375 149.554589 
L 380.744825 132.542915 
L 390.193275 124.196125 
L 399.641725 120.120279 
L 409.090175 115.972331 
L 418.538625 106.849392 
L 427.987075 91.004062 
L 437.435525 83.827859 
L 446.883975 81.876882 
L 456.332425 85.889109 
L 465.780875 91.262779 
L 475.229325 89.60869 
L 484.677775 87.903705 
L 494.126225 89.235459 
L 503.574675 92.038929 
L 513.023125 93.010176 
L 522.471575 98.60015 
L 531.920025 104.805107 
L 541.368475 105.835732 
L 550.816925 112.422401 
L 560.265375 118.648563 
L 569.713825 132.861009 
L 579.162275 155.895265 
L 588.610725 165.616222 
L 598.059175 177.517184 
L 607.507625 205.441607 
L 616.956075 222.495694 
L 626.404525 235.049809 
L 635.852975 247.676026 
L 645.301425 260.866329 
L 654.749875 282.233772 
L 664.198325 291.259163 
L 673.646775 301.679927 
L 683.095225 312.210963 
L 692.543675 319.63316 
L 701.992125 330.287192 
L 711.440575 334.155217 
L 720.889025 337.51005 
L 730.337475 342.993993 
L 739.785925 345.377578 
L 749.234375 347.417622 
L 758.682825 349.398288 
L 768.131275 349.724865 
L 777.579725 350.271986 
L 787.028175 350.590081 
L 796.476625 351.158409 
L 805.925075 352.099967 
L 815.373525 352.498645 
L 824.821975 352.519852 
L 834.270425 352.566505 
L 843.718875 352.710708 
L 853.167325 352.956701 
L 862.615775 353.062732 
L 872.064225 353.109386 
L 881.512675 353.168764 
L 890.961125 353.185729 
L 900.409575 353.206935 
L 909.858025 353.2239 
L 919.306475 353.219659 
L 928.754925 353.219659 
L 938.203375 353.2239 
L 947.651825 353.2239 
L 957.100275 353.2239 
L 966.548725 353.2239 
L 975.997175 353.2239 
L 985.445625 353.2239 
" style="fill:none;stroke:#5cb85c;stroke-linecap:square;"/>
   </g>
   <g id="line2d_22">
    <path clip-path="url(#p7f0efc34e7)" d="M 40.600625 353.165486 
L 50.049075 353.15575 
L 59.497525 353.165486 
L 68.945975 353.121676 
L 78.394425 353.04379 
L 87.842875 353.058394 
L 97.291325 352.970773 
L 106.739775 352.853945 
L 116.188225 352.717646 
L 125.636675 352.386634 
L 135.085125 352.123772 
L 144.533575 352.036151 
L 153.982025 351.490954 
L 163.430475 350.887344 
L 172.878925 350.347016 
L 182.327375 349.869969 
L 191.775825 349.660652 
L 201.224275 348.721162 
L 210.672725 346.866521 
L 220.121175 345.508398 
L 229.569625 343.201049 
L 239.018075 339.657273 
L 248.466525 337.841574 
L 257.914975 334.22478 
L 267.363425 327.13236 
L 276.811875 318.74023 
L 286.260325 313.45864 
L 295.708775 307.612383 
L 305.157225 296.971318 
L 314.605675 285.639022 
L 324.054125 278.994441 
L 333.502575 271.186451 
L 342.951025 256.290907 
L 352.399475 247.854967 
L 361.847925 239.384952 
L 371.296375 224.465069 
L 380.744825 209.321267 
L 390.193275 200.432619 
L 399.641725 192.181656 
L 409.090175 177.505164 
L 418.538625 164.28902 
L 427.987075 158.384349 
L 437.435525 150.688318 
L 446.883975 136.771207 
L 456.332425 130.798386 
L 465.780875 121.870796 
L 475.229325 109.827798 
L 484.677775 101.469743 
L 494.126225 95.618617 
L 503.574675 95.248663 
L 513.023125 91.578323 
L 522.471575 84.184097 
L 531.920025 80.995672 
L 541.368475 77.77804 
L 550.816925 72.131363 
L 560.265375 67.302481 
L 569.713825 64.77608 
L 579.162275 68.928335 
L 588.610725 80.236291 
L 598.059175 87.800891 
L 607.507625 99.907171 
L 616.956075 125.609285 
L 626.404525 151.84686 
L 635.852975 165.277189 
L 645.301425 179.700553 
L 654.749875 207.096671 
L 664.198325 233.475413 
L 673.646775 246.798649 
L 683.095225 258.418146 
L 692.543675 279.04312 
L 701.992125 289.299626 
L 711.440575 295.997753 
L 720.889025 309.535173 
L 730.337475 321.733942 
L 739.785925 326.864629 
L 749.234375 329.765853 
L 758.682825 335.027971 
L 768.131275 339.496634 
L 777.579725 341.545989 
L 787.028175 342.79702 
L 796.476625 345.138443 
L 805.925075 346.370003 
L 815.373525 347.586959 
L 824.821975 349.422129 
L 834.270425 350.653689 
L 843.718875 351.252431 
L 853.167325 351.65646 
L 862.615775 352.318485 
L 872.064225 352.712778 
L 881.512675 352.84421 
L 890.961125 352.965905 
L 900.409575 353.131411 
L 909.858025 353.194693 
L 919.306475 353.214164 
L 928.754925 353.214164 
L 938.203375 353.214164 
L 947.651825 353.214164 
L 957.100275 353.219032 
L 966.548725 353.2239 
L 975.997175 353.2239 
L 985.445625 353.2239 
" style="fill:none;stroke:#f0ad4e;stroke-linecap:square;"/>
   </g>
   <g id="line2d_23">
    <path clip-path="url(#p7f0efc34e7)" d="M 40.600625 353.2239 
L 50.049075 353.2239 
L 59.497525 353.2239 
L 68.945975 353.2239 
L 78.394425 353.2239 
L 87.842875 353.2239 
L 97.291325 353.2239 
L 106.739775 353.182911 
L 116.188225 353.182911 
L 125.636675 353.2239 
L 135.085125 353.182911 
L 144.533575 352.895985 
L 153.982025 352.732027 
L 163.430475 352.814006 
L 172.878925 352.977964 
L 182.327375 352.854995 
L 191.775825 352.076197 
L 201.224275 350.231673 
L 210.672725 348.059234 
L 220.121175 347.444393 
L 229.569625 346.460647 
L 239.018075 341.623897 
L 248.466525 334.778666 
L 257.914975 331.253576 
L 267.363425 326.82672 
L 276.811875 319.079722 
L 286.260325 307.39774 
L 295.708775 294.691023 
L 305.157225 280.467698 
L 314.605675 263.498082 
L 324.054125 248.209033 
L 333.502575 229.230936 
L 342.951025 212.589236 
L 352.399475 199.882519 
L 361.847925 182.830924 
L 371.296375 160.860601 
L 380.744825 143.645049 
L 390.193275 132.987802 
L 399.641725 122.863418 
L 409.090175 104.70511 
L 418.538625 87.243621 
L 427.987075 86.382843 
L 437.435525 84.579309 
L 446.883975 74.249978 
L 456.332425 71.380719 
L 465.780875 69.044323 
L 475.229325 63.633721 
L 484.677775 58.796971 
L 494.126225 57.690257 
L 503.574675 58.018172 
L 513.023125 61.912166 
L 522.471575 68.798387 
L 531.920025 70.151037 
L 541.368475 77.324184 
L 550.816925 86.341854 
L 560.265375 101.22101 
L 569.713825 115.526314 
L 579.162275 119.584265 
L 588.610725 137.455648 
L 598.059175 159.589929 
L 607.507625 178.609015 
L 616.956075 200.866264 
L 626.404525 218.942594 
L 635.852975 235.420337 
L 645.301425 254.60338 
L 654.749875 272.392784 
L 664.198325 290.182188 
L 673.646775 308.627422 
L 683.095225 320.432372 
L 692.543675 327.400572 
L 701.992125 333.958877 
L 711.440575 340.558172 
L 720.889025 343.058526 
L 730.337475 345.59987 
L 739.785925 348.633086 
L 749.234375 350.47761 
L 758.682825 351.338387 
L 768.131275 351.707292 
L 777.579725 352.035207 
L 787.028175 352.363122 
L 796.476625 352.814006 
L 805.925075 353.059942 
L 815.373525 353.059942 
L 824.821975 353.141921 
L 834.270425 353.182911 
L 843.718875 353.182911 
L 853.167325 353.2239 
L 862.615775 353.182911 
L 872.064225 353.182911 
L 881.512675 353.2239 
L 890.961125 353.2239 
L 900.409575 353.2239 
L 909.858025 353.2239 
L 919.306475 353.2239 
L 928.754925 353.2239 
L 938.203375 353.2239 
L 947.651825 353.2239 
L 957.100275 353.2239 
L 966.548725 353.2239 
L 975.997175 353.2239 
L 985.445625 353.2239 
" style="fill:none;stroke:#5cb85c;stroke-linecap:square;"/>
   </g>
   <g id="line2d_24">
    <path clip-path="url(#p7f0efc34e7)" d="M 40.600625 353.2239 
L 50.049075 353.2239 
L 59.497525 353.2239 
L 68.945975 353.2239 
L 78.394425 353.2239 
L 87.842875 353.2239 
L 97.291325 353.149723 
L 106.739775 353.075546 
L 116.188225 353.038458 
L 125.636675 352.964281 
L 135.085125 352.890105 
L 144.533575 352.704663 
L 153.982025 352.704663 
L 163.430475 352.778839 
L 172.878925 352.222514 
L 182.327375 351.85163 
L 191.775825 351.666188 
L 201.224275 350.961508 
L 210.672725 350.108476 
L 220.121175 348.699117 
L 229.569625 347.178493 
L 239.018075 345.843311 
L 248.466525 343.321301 
L 257.914975 340.539672 
L 267.363425 336.163243 
L 276.811875 331.119222 
L 286.260325 326.149379 
L 295.708775 319.91853 
L 305.157225 311.351113 
L 314.605675 300.224597 
L 324.054125 289.246435 
L 333.502575 275.894616 
L 342.951025 263.803803 
L 352.399475 254.865502 
L 361.847925 244.443666 
L 371.296375 232.909178 
L 380.744825 218.889768 
L 390.193275 206.057187 
L 399.641725 189.367413 
L 409.090175 171.639165 
L 418.538625 159.437086 
L 427.987075 146.307798 
L 437.435525 138.44506 
L 446.883975 134.624957 
L 456.332425 125.983363 
L 465.780875 111.333451 
L 475.229325 95.051649 
L 484.677775 79.474527 
L 494.126225 73.058237 
L 503.574675 70.499138 
L 513.023125 64.157024 
L 522.471575 58.371236 
L 531.920025 56.22011 
L 541.368475 56.145933 
L 550.816925 50.397233 
L 560.265375 54.402779 
L 569.713825 60.670716 
L 579.162275 68.16257 
L 588.610725 79.956676 
L 598.059175 87.374354 
L 607.507625 101.913001 
L 616.956075 121.68111 
L 626.404525 143.859965 
L 635.852975 165.853377 
L 645.301425 187.995143 
L 654.749875 210.58197 
L 664.198325 231.2402 
L 673.646775 251.453371 
L 683.095225 266.956316 
L 692.543675 280.679018 
L 701.992125 296.219052 
L 711.440575 308.717838 
L 720.889025 318.620436 
L 730.337475 327.447472 
L 739.785925 333.826674 
L 749.234375 337.053364 
L 758.682825 340.205877 
L 768.131275 343.618008 
L 777.579725 346.844698 
L 787.028175 348.884559 
L 796.476625 349.255443 
L 805.925075 349.811769 
L 815.373525 351.072774 
L 824.821975 351.814541 
L 834.270425 351.999983 
L 843.718875 352.407956 
L 853.167325 352.741751 
L 862.615775 352.927193 
L 872.064225 353.075546 
L 881.512675 353.075546 
L 890.961125 353.075546 
L 900.409575 353.186812 
L 909.858025 353.149723 
L 919.306475 353.186812 
L 928.754925 353.2239 
L 938.203375 353.2239 
L 947.651825 353.2239 
L 957.100275 353.2239 
L 966.548725 353.2239 
L 975.997175 353.2239 
L 985.445625 353.2239 
" style="fill:none;stroke:#5cb85c;stroke-linecap:square;"/>
   </g>
   <g id="line2d_25">
    <path clip-path="url(#p7f0efc34e7)" d="M 40.600625 353.2239 
L 985.445625 353.2239 
" style="fill:none;stroke:#dedede;stroke-linecap:square;stroke-width:2;"/>
   </g>
   <g id="text_17">
    <!-- FastQC: Per Sequence GC Content -->
    <g transform="translate(376.386875 19.3575)scale(0.16 -0.16)">
     <defs>
      <path d="M 628 4666 
L 3309 4666 
L 3309 4134 
L 1259 4134 
L 1259 2759 
L 3109 2759 
L 3109 2228 
L 1259 2228 
L 1259 0 
L 628 0 
L 628 4666 
z
" id="DejaVuSans-46" transform="scale(0.015625)"/>
      <path d="M 2834 3397 
L 2834 2853 
Q 2591 2978 2328 3040 
Q 2066 3103 1784 3103 
Q 1356 3103 1142 2972 
Q 928 2841 928 2578 
Q 928 2378 1081 2264 
Q 1234 2150 1697 2047 
L 1894 2003 
Q 2506 1872 2764 1633 
Q 3022 1394 3022 966 
Q 3022 478 2636 193 
Q 2250 -91 1575 -91 
Q 1294 -91 989 -36 
Q 684 19 347 128 
L 347 722 
Q 666 556 975 473 
Q 1284 391 1588 391 
Q 1994 391 2212 530 
Q 2431 669 2431 922 
Q 2431 1156 2273 1281 
Q 2116 1406 1581 1522 
L 1381 1569 
Q 847 1681 609 1914 
Q 372 2147 372 2553 
Q 372 3047 722 3315 
Q 1072 3584 1716 3584 
Q 2034 3584 2315 3537 
Q 2597 3491 2834 3397 
z
" id="DejaVuSans-73" transform="scale(0.015625)"/>
      <path d="M 2522 4238 
Q 1834 4238 1429 3725 
Q 1025 3213 1025 2328 
Q 1025 1447 1429 934 
Q 1834 422 2522 422 
Q 3209 422 3611 934 
Q 4013 1447 4013 2328 
Q 4013 3213 3611 3725 
Q 3209 4238 2522 4238 
z
M 3406 84 
L 4238 -825 
L 3475 -825 
L 2784 -78 
Q 2681 -84 2626 -87 
Q 2572 -91 2522 -91 
Q 1538 -91 948 567 
Q 359 1225 359 2328 
Q 359 3434 948 4092 
Q 1538 4750 2522 4750 
Q 3503 4750 4090 4092 
Q 4678 3434 4678 2328 
Q 4678 1516 4351 937 
Q 4025 359 3406 84 
z
" id="DejaVuSans-51" transform="scale(0.015625)"/>
      <path d="M 750 794 
L 1409 794 
L 1409 0 
L 750 0 
L 750 794 
z
M 750 3309 
L 1409 3309 
L 1409 2516 
L 750 2516 
L 750 3309 
z
" id="DejaVuSans-3a" transform="scale(0.015625)"/>
      <path d="M 3425 4513 
L 3425 3897 
Q 3066 4069 2747 4153 
Q 2428 4238 2131 4238 
Q 1616 4238 1336 4038 
Q 1056 3838 1056 3469 
Q 1056 3159 1242 3001 
Q 1428 2844 1947 2747 
L 2328 2669 
Q 3034 2534 3370 2195 
Q 3706 1856 3706 1288 
Q 3706 609 3251 259 
Q 2797 -91 1919 -91 
Q 1588 -91 1214 -16 
Q 841 59 441 206 
L 441 856 
Q 825 641 1194 531 
Q 1563 422 1919 422 
Q 2459 422 2753 634 
Q 3047 847 3047 1241 
Q 3047 1584 2836 1778 
Q 2625 1972 2144 2069 
L 1759 2144 
Q 1053 2284 737 2584 
Q 422 2884 422 3419 
Q 422 4038 858 4394 
Q 1294 4750 2059 4750 
Q 2388 4750 2728 4690 
Q 3069 4631 3425 4513 
z
" id="DejaVuSans-53" transform="scale(0.015625)"/>
      <path d="M 947 1747 
Q 947 1113 1208 752 
Q 1469 391 1925 391 
Q 2381 391 2643 752 
Q 2906 1113 2906 1747 
Q 2906 2381 2643 2742 
Q 2381 3103 1925 3103 
Q 1469 3103 1208 2742 
Q 947 2381 947 1747 
z
M 2906 525 
Q 2725 213 2448 61 
Q 2172 -91 1784 -91 
Q 1150 -91 751 415 
Q 353 922 353 1747 
Q 353 2572 751 3078 
Q 1150 3584 1784 3584 
Q 2172 3584 2448 3432 
Q 2725 3281 2906 2969 
L 2906 3500 
L 3481 3500 
L 3481 -1331 
L 2906 -1331 
L 2906 525 
z
" id="DejaVuSans-71" transform="scale(0.015625)"/>
      <path d="M 544 1381 
L 544 3500 
L 1119 3500 
L 1119 1403 
Q 1119 906 1312 657 
Q 1506 409 1894 409 
Q 2359 409 2629 706 
Q 2900 1003 2900 1516 
L 2900 3500 
L 3475 3500 
L 3475 0 
L 2900 0 
L 2900 538 
Q 2691 219 2414 64 
Q 2138 -91 1772 -91 
Q 1169 -91 856 284 
Q 544 659 544 1381 
z
M 1991 3584 
L 1991 3584 
z
" id="DejaVuSans-75" transform="scale(0.015625)"/>
      <path d="M 1959 3097 
Q 1497 3097 1228 2736 
Q 959 2375 959 1747 
Q 959 1119 1226 758 
Q 1494 397 1959 397 
Q 2419 397 2687 759 
Q 2956 1122 2956 1747 
Q 2956 2369 2687 2733 
Q 2419 3097 1959 3097 
z
M 1959 3584 
Q 2709 3584 3137 3096 
Q 3566 2609 3566 1747 
Q 3566 888 3137 398 
Q 2709 -91 1959 -91 
Q 1206 -91 779 398 
Q 353 888 353 1747 
Q 353 2609 779 3096 
Q 1206 3584 1959 3584 
z
" id="DejaVuSans-6f" transform="scale(0.015625)"/>
     </defs>
     <use xlink:href="#DejaVuSans-46"/>
     <use x="48.394531" xlink:href="#DejaVuSans-61"/>
     <use x="109.673828" xlink:href="#DejaVuSans-73"/>
     <use x="161.773438" xlink:href="#DejaVuSans-74"/>
     <use x="200.982422" xlink:href="#DejaVuSans-51"/>
     <use x="279.693359" xlink:href="#DejaVuSans-43"/>
     <use x="349.517578" xlink:href="#DejaVuSans-3a"/>
     <use x="383.208984" xlink:href="#DejaVuSans-20"/>
     <use x="414.996094" xlink:href="#DejaVuSans-50"/>
     <use x="471.673828" xlink:href="#DejaVuSans-65"/>
     <use x="533.197266" xlink:href="#DejaVuSans-72"/>
     <use x="574.310547" xlink:href="#DejaVuSans-20"/>
     <use x="606.097656" xlink:href="#DejaVuSans-53"/>
     <use x="669.574219" xlink:href="#DejaVuSans-65"/>
     <use x="731.097656" xlink:href="#DejaVuSans-71"/>
     <use x="794.574219" xlink:href="#DejaVuSans-75"/>
     <use x="857.953125" xlink:href="#DejaVuSans-65"/>
     <use x="919.476562" xlink:href="#DejaVuSans-6e"/>
     <use x="982.855469" xlink:href="#DejaVuSans-63"/>
     <use x="1037.835938" xlink:href="#DejaVuSans-65"/>
     <use x="1099.359375" xlink:href="#DejaVuSans-20"/>
     <use x="1131.146484" xlink:href="#DejaVuSans-47"/>
     <use x="1208.636719" xlink:href="#DejaVuSans-43"/>
     <use x="1278.460938" xlink:href="#DejaVuSans-20"/>
     <use x="1310.248047" xlink:href="#DejaVuSans-43"/>
     <use x="1380.072266" xlink:href="#DejaVuSans-6f"/>
     <use x="1441.253906" xlink:href="#DejaVuSans-6e"/>
     <use x="1504.632812" xlink:href="#DejaVuSans-74"/>
     <use x="1543.841797" xlink:href="#DejaVuSans-65"/>
     <use x="1605.365234" xlink:href="#DejaVuSans-6e"/>
     <use x="1668.744141" xlink:href="#DejaVuSans-74"/>
    </g>
   </g>
  </g>
 </g>
 <defs>
  <clipPath id="p7f0efc34e7">
   <rect height="317.968" width="944.845" x="40.600625" y="35.2559"/>
  </clipPath>
 </defs>
</svg>
